<?xml version="1.0" standalone="no"?>
<!DOCTYPE svg PUBLIC "-//W3C//DTD SVG 20010904//EN"
 "http://www.w3.org/TR/2001/REC-SVG-20010904/DTD/svg10.dtd">
<svg version="1.0" xmlns="http://www.w3.org/2000/svg"
 width="512.000000pt" height="512.000000pt" viewBox="0 0 512.000000 512.000000"
 preserveAspectRatio="xMidYMid meet">
<metadata>
Created by potrace 1.16, written by Peter Selinger 2001-2019
</metadata>
<g transform="translate(0.000000,512.000000) scale(0.100000,-0.100000)"
fill="#bbf7d0                                                       " stroke="none">
<path d="M0 3921 c0 -22 85 -33 290 -40 l215 -6 62 -34 c51 -27 71 -47 112
-105 27 -40 58 -79 68 -87 16 -12 17 -12 8 1 -5 9 0 4 12 -10 22 -24 23 -24
23 -4 0 11 -11 30 -25 42 -28 24 -40 29 -29 10 4 -7 3 -8 -5 -4 -6 4 -9 11 -6
15 2 5 -14 30 -37 56 -40 45 -40 47 -12 32 16 -8 85 -57 154 -107 68 -51 157
-108 196 -126 80 -36 194 -134 156 -134 -40 0 -82 13 -82 25 0 24 -42 66 -91
90 -27 14 -49 23 -49 20 0 -3 27 -31 60 -62 33 -31 58 -58 55 -62 -4 -3 -30
-8 -58 -12 -40 -5 -27 -7 58 -8 188 -3 216 -7 350 -50 162 -51 185 -61 318
-134 59 -33 110 -57 113 -55 7 8 -16 24 -106 72 -47 25 -81 46 -77 46 5 0 43
-9 85 -19 43 -11 124 -29 182 -41 84 -18 131 -35 241 -90 176 -89 249 -106
774 -181 83 -11 152 -23 154 -25 14 -13 -17 -13 -95 0 -49 9 -105 16 -124 15
-19 -1 4 -7 52 -14 98 -16 137 -32 188 -80 30 -28 40 -32 73 -28 33 5 37 8 31
27 -22 70 -77 95 -270 124 -71 11 -118 21 -104 21 37 2 54 16 47 40 -8 33 26
45 140 45 57 1 103 5 103 10 0 5 -76 6 -182 3 -394 -14 -473 -19 -483 -32 -8
-10 -28 -8 -95 9 -113 29 -176 63 -172 94 2 13 -2 22 -10 23 -7 1 1 5 17 9 23
6 14 8 -40 9 -38 1 -97 8 -130 15 -33 8 -105 24 -160 36 -193 40 -261 58 -424
109 -90 28 -183 54 -205 58 -30 5 -58 21 -105 62 -81 72 -146 136 -193 194
l-37 45 40 -9 c104 -24 235 -108 270 -175 13 -24 28 -44 32 -44 5 0 6 -4 3 -9
-3 -5 2 -15 12 -22 15 -13 16 -12 4 3 -12 14 -10 19 12 33 37 25 33 49 -11 64
-40 15 -86 41 -80 47 2 2 41 -8 88 -22 73 -23 92 -34 147 -85 35 -33 89 -72
121 -88 32 -16 79 -46 105 -66 27 -20 50 -34 52 -32 8 8 -108 97 -169 129 -36
20 -71 48 -86 70 -28 39 -85 71 -166 92 l-50 13 80 7 c44 4 116 13 160 21 72
14 86 14 130 0 59 -18 86 -37 191 -128 122 -106 167 -131 364 -201 151 -54
208 -70 317 -85 143 -21 210 -45 237 -86 9 -14 26 -25 37 -25 29 0 -86 86
-142 105 -23 9 -85 20 -138 26 -68 7 -140 25 -246 61 -245 83 -275 99 -431
234 -138 118 -202 143 -309 119 -33 -7 -120 -19 -194 -25 -127 -11 -135 -11
-160 8 -69 50 -221 104 -349 122 -53 7 -102 24 -180 62 l-107 52 -215 7 c-118
3 -222 9 -230 12 -36 13 -70 17 -70 8z m857 -172 c50 -11 60 -21 136 -139 34
-52 22 -44 -68 41 -33 31 -82 68 -110 83 -56 28 -41 34 42 15z m1936 -746 c-7
-2 -19 -2 -25 0 -7 3 -2 5 12 5 14 0 19 -2 13 -5z m360 -80 c-7 -2 -19 -2 -25
0 -7 3 -2 5 12 5 14 0 19 -2 13 -5z"/>
<path d="M4692 3820 c-24 -11 -75 -41 -115 -68 -92 -62 -217 -125 -287 -147
-44 -13 -64 -14 -100 -6 -83 19 -171 14 -226 -14 -27 -14 -66 -25 -87 -25 -43
0 -65 -10 -119 -52 l-38 -30 -70 16 c-39 9 -82 13 -96 10 -38 -10 -23 -15 53
-18 38 -2 77 -7 87 -13 16 -9 14 -13 -16 -37 -58 -49 -191 -118 -233 -122
-282 -26 -357 -39 -420 -72 -16 -9 -37 -16 -45 -16 -8 -1 -15 -9 -15 -18 0 -9
-14 -31 -30 -49 -22 -23 -15 -20 27 14 32 25 66 51 76 56 48 26 225 52 392 58
96 4 166 8 155 10 -72 13 -72 12 9 59 43 24 109 71 146 104 62 55 104 80 133
80 6 0 -11 -15 -38 -34 -62 -42 -115 -96 -94 -96 19 0 53 24 112 77 68 63 157
103 230 103 53 0 58 -2 67 -26 6 -14 8 -30 5 -34 -3 -5 14 2 37 14 24 13 81
36 128 51 47 15 104 39 127 52 24 14 48 21 55 17 7 -4 10 -4 6 1 -10 10 145
114 204 137 53 20 114 23 168 8 52 -14 233 -40 239 -34 11 11 -26 23 -93 29
-39 4 -95 14 -124 21 -73 19 -158 17 -210 -6z"/>
<path d="M450 3782 c51 -67 69 -87 70 -76 0 18 -43 76 -70 93 l-25 16 25 -33z"/>
<path d="M4860 3776 c0 -2 7 -9 15 -16 9 -7 15 -8 15 -2 0 5 -7 12 -15 16 -8
3 -15 4 -15 2z"/>
<path d="M560 3725 c0 -2 5 -16 12 -30 12 -26 34 -36 25 -11 -3 8 -1 16 5 18
6 2 -1 9 -16 16 -14 6 -26 10 -26 7z"/>
<path d="M176 3599 c-11 -34 -28 -65 -39 -70 -13 -8 -15 -14 -8 -23 7 -9 7
-16 -1 -24 -19 -19 -52 -14 -92 13 l-36 24 0 -44 0 -44 63 -30 c34 -16 91 -49
127 -72 37 -24 57 -32 46 -20 -11 11 -17 21 -14 21 18 0 216 -96 368 -178 65
-35 80 -40 65 -23 l-20 23 35 -7 c19 -4 54 -15 78 -26 23 -10 40 -14 37 -9 -3
5 -48 25 -100 45 l-95 37 2 52 1 51 6 -49 6 -50 110 -28 c190 -48 353 -99 575
-179 119 -42 245 -85 280 -94 36 -9 112 -39 169 -66 57 -27 106 -48 107 -46 2
2 -40 27 -94 56 -53 29 -90 51 -82 48 107 -32 226 -70 370 -118 96 -32 195
-63 220 -69 123 -32 424 -179 449 -220 14 -22 11 -21 -22 7 -53 46 -87 61
-191 88 -112 29 -181 53 -270 95 -37 18 -81 33 -97 32 -16 0 -27 3 -24 9 3 5
0 6 -8 3 -8 -3 -47 5 -86 17 -40 11 -74 19 -77 17 -2 -3 23 -17 57 -32 34 -15
60 -28 58 -30 -2 -2 -32 0 -66 4 -43 5 -81 19 -125 44 -165 95 -320 154 -189
72 41 -26 126 -86 190 -134 63 -47 131 -94 150 -104 l35 -18 -129 -2 -130 -1
130 -9 c72 -4 166 -9 210 -11 88 -4 156 -29 197 -75 l23 -25 -37 22 c-23 14
-58 24 -91 26 -29 1 -74 10 -100 19 -60 20 -122 20 -227 0 l-82 -15 -47 44
c-41 39 -99 77 -115 77 -3 0 17 -21 44 -46 28 -26 50 -54 50 -63 0 -12 -6 -9
-23 10 -12 14 -47 45 -77 69 -49 38 -47 35 19 -28 41 -39 72 -74 70 -77 -3 -3
-20 -2 -38 1 -31 7 -77 56 -67 72 9 15 -63 42 -112 42 -26 0 -63 -5 -82 -10
-20 -6 -65 -8 -105 -5 -66 6 -72 8 -94 41 -61 89 -267 144 -373 99 -33 -13
-39 -13 -79 8 -24 12 -58 41 -76 65 -28 36 -34 41 -39 25 -3 -10 -10 -29 -15
-42 -9 -22 -11 -23 -28 -7 -12 11 -21 13 -25 7 -10 -15 -61 18 -82 53 -18 31
-19 30 -49 -19 -11 -18 -36 -10 -248 79 -59 25 -125 50 -148 56 -22 6 -47 14
-55 17 -12 4 -15 -1 -12 -22 3 -25 10 -31 63 -48 33 -10 143 -49 245 -87 472
-173 775 -253 1026 -270 86 -6 153 -16 194 -30 71 -24 183 -92 160 -97 -8 -2
-69 15 -134 37 -66 22 -121 38 -122 37 -9 -8 151 -67 220 -82 84 -17 96 -21
96 -34 0 -5 -21 -7 -47 -5 -35 3 -25 -1 37 -15 47 -10 97 -24 111 -29 36 -14
99 -71 99 -89 0 -10 -14 -3 -40 20 -23 19 -66 44 -96 56 -56 21 -254 61 -304
61 -15 0 -96 20 -181 45 -238 70 -340 97 -345 92 -3 -3 39 -21 93 -42 54 -20
141 -55 193 -77 83 -35 110 -42 206 -49 125 -9 246 -47 330 -102 l49 -32 -58
-3 c-48 -3 -62 1 -90 22 -32 24 -116 60 -124 53 -1 -2 19 -18 46 -35 27 -18
52 -39 55 -48 7 -19 4 -18 -64 28 -30 20 -68 40 -83 44 -26 6 -24 3 22 -45 47
-48 61 -71 45 -71 -4 0 -21 13 -40 29 -55 49 -202 130 -311 172 -14 5 -23 5
-23 -1 0 -5 47 -32 105 -61 71 -35 117 -65 142 -92 20 -23 31 -43 25 -45 -6
-2 -27 15 -48 37 -23 27 -71 58 -133 90 -53 26 -129 69 -169 96 -72 48 -108
58 -55 15 l28 -23 -34 7 c-18 3 -41 6 -50 6 -9 0 -54 22 -101 50 -47 27 -89
50 -95 50 -5 0 13 -13 40 -29 47 -27 97 -71 81 -71 -5 0 -20 8 -34 19 -49 34
-125 68 -282 125 -85 31 -195 72 -245 91 -49 19 -153 54 -230 78 -77 25 -149
48 -160 52 l-20 7 20 -17 c11 -9 72 -32 135 -52 63 -19 160 -53 215 -75 55
-22 138 -53 185 -69 46 -16 109 -44 140 -62 30 -18 77 -41 103 -51 27 -10 67
-36 90 -58 41 -39 43 -40 99 -34 97 10 213 -10 289 -50 72 -38 159 -114 159
-139 0 -23 -24 -18 -51 11 -25 27 -78 59 -85 51 -2 -2 5 -12 16 -22 11 -10 20
-27 20 -37 0 -16 -7 -13 -44 19 -69 61 -182 85 -291 63 -86 -18 -111 -15 -155
20 -43 34 -63 39 -53 13 10 -26 -40 16 -81 68 -19 23 -53 57 -77 76 -82 66
-272 183 -296 183 -4 0 26 -22 68 -49 94 -60 111 -82 32 -42 -32 16 -86 37
-119 46 -80 24 -125 47 -221 116 -45 32 -84 59 -88 59 -3 0 -5 -21 -3 -47 l3
-48 163 -81 c90 -45 207 -96 260 -114 124 -42 176 -71 212 -122 34 -46 39 -67
13 -47 -10 7 -7 1 7 -14 19 -20 50 -33 121 -51 116 -29 201 -71 252 -124 38
-39 38 -39 15 -46 -13 -3 -56 -6 -97 -6 l-73 0 -52 48 c-62 56 -135 84 -287
112 -57 10 -105 17 -107 15 -6 -6 65 -25 147 -40 95 -17 165 -48 192 -86 10
-15 19 -30 19 -35 0 -10 -169 3 -183 14 -19 15 -77 23 -77 11 0 -12 -5 -12
-130 21 -106 28 -149 47 -281 121 -58 32 -109 59 -112 59 -4 0 -7 -49 -7 -110
l0 -110 73 0 c99 0 239 -25 372 -65 124 -39 203 -52 355 -59 118 -6 99 5 -42
24 -49 7 -88 16 -88 20 0 4 84 10 188 12 l187 4 80 36 c81 37 155 55 345 84
95 14 402 79 491 104 20 6 42 17 49 25 27 33 -43 91 -165 136 -56 21 -139 68
-132 75 1 2 63 -4 137 -12 190 -22 598 -12 798 18 90 15 142 27 142 34 0 17
-59 65 -100 81 -19 8 -73 33 -120 57 -47 24 -114 54 -150 67 l-65 24 65 6 c83
8 147 -18 228 -94 65 -61 117 -93 164 -102 43 -8 247 10 260 23 15 15 -55 63
-99 67 -21 2 -83 15 -138 28 -55 14 -122 28 -150 32 -44 6 -105 29 -245 93
-40 19 -80 58 -80 79 0 7 -7 16 -15 19 -8 4 -15 10 -15 15 0 5 7 9 15 9 19 0
20 39 1 46 -8 3 -16 18 -20 35 -7 37 -16 37 -41 -4 -34 -56 -37 -70 -20 -80
15 -8 14 -11 -5 -24 -13 -9 -19 -21 -16 -30 5 -12 1 -14 -16 -9 -42 12 -252
45 -328 52 -78 7 -138 22 -94 23 17 1 23 9 27 34 5 26 1 36 -22 57 -16 14 -32
35 -35 48 -4 12 -14 22 -21 22 -8 0 -19 9 -25 20 -6 11 -15 20 -21 20 -18 0
-64 -63 -64 -88 -1 -33 -62 -68 -101 -57 -21 6 -24 9 -11 12 22 6 22 19 0 27
-13 5 -14 9 -5 15 9 6 7 12 -8 26 -11 10 -17 22 -14 26 3 5 -4 21 -15 35 -19
24 -21 25 -28 8 -8 -22 -40 -54 -53 -54 -6 0 -8 -11 -6 -24 l4 -24 -50 15
c-28 8 -63 20 -77 25 -24 10 -24 12 -6 16 12 3 -6 10 -45 16 -59 10 -65 13
-74 41 -17 58 -19 61 -23 38 -6 -34 -20 -28 -34 14 -10 32 -14 35 -23 21 -9
-15 -12 -14 -22 10 l-12 27 -1 -25 c-1 -14 -5 -32 -11 -40 -7 -11 -11 -8 -20
15 -12 29 -12 30 -21 8 -8 -21 -49 -34 -49 -15 0 4 -14 27 -31 51 -22 30 -34
39 -40 30 -6 -10 -11 -10 -23 0 -14 12 -16 10 -16 -8 0 -28 -24 -37 -57 -22
-21 10 -23 14 -12 27 7 9 14 23 15 32 0 10 3 24 5 32 3 12 -4 14 -31 12 -24
-2 -31 0 -21 6 7 6 11 14 7 20 -3 6 2 15 11 21 10 6 13 11 6 11 -6 0 -24 5
-39 10 l-27 11 21 20 c27 25 27 31 2 47 -12 7 -18 17 -15 21 3 5 -5 28 -17 52
-22 41 -23 41 -26 15 -3 -20 -8 -26 -19 -22 -13 5 -15 0 -10 -31 6 -37 -12
-81 -26 -66 -12 12 -7 23 11 23 16 1 16 1 -1 14 -9 7 -26 38 -36 67 -14 39
-20 47 -20 29 -1 -14 -9 -42 -20 -63 -10 -20 -15 -34 -10 -31 13 8 11 -10 -3
-24 -10 -10 -10 -15 1 -21 31 -19 -14 -40 -53 -25 -23 9 -20 21 7 28 l22 6
-27 25 c-15 14 -37 46 -49 72 l-21 48 -18 -41 c-23 -54 -37 -61 -52 -29 l-12
26 -12 -31 c-14 -32 -21 -35 -44 -20 -13 9 -13 11 0 20 12 8 13 13 2 27 -14
20 -34 63 -37 78 -6 37 -18 75 -24 75 -3 0 -15 -27 -25 -61z m-71 -155 c26
-11 34 -19 27 -26 -7 -7 -24 -2 -54 16 -48 29 -32 35 27 10z m195 -19 c-14
-16 -40 -20 -40 -6 0 10 17 19 39 20 11 1 11 -2 1 -14z m31 -44 c-8 -5 -20 -7
-28 -4 -21 8 -15 13 15 13 20 0 23 -3 13 -9z m281 -23 c-6 -6 -15 -8 -19 -4
-4 4 -1 11 7 16 19 12 27 3 12 -12z m-94 -44 c-16 -16 -38 -12 -38 6 0 8 41
19 49 13 3 -2 -2 -11 -11 -19z m1419 -490 c-3 -3 -12 -4 -19 -1 -8 3 -5 6 6 6
11 1 17 -2 13 -5z m210 -34 c82 -16 186 -43 233 -60 l85 -30 -85 6 c-50 4
-124 19 -180 36 -52 17 -131 41 -175 53 -114 33 -54 31 122 -5z m-1006 -134
c22 -15 39 -33 36 -39 -8 -26 -99 -19 -199 14 -54 18 -96 34 -94 36 10 11 100
22 154 19 47 -3 72 -10 103 -30z m941 -7 c29 -6 78 -24 108 -39 35 -18 87 -32
145 -40 50 -7 110 -23 135 -35 25 -12 57 -25 72 -29 30 -7 88 -52 88 -68 0 -6
-8 -4 -17 4 -10 9 -31 22 -47 30 -26 14 -31 13 -47 -3 -24 -24 -46 -24 -59 1
-6 11 -31 31 -56 46 -37 22 -65 29 -147 36 -104 8 -143 24 -227 88 -29 23 -20
24 52 9z m692 -38 c82 -20 119 -40 144 -81 l16 -25 -30 26 c-42 38 -68 50
-164 75 -103 27 -76 31 34 5z m-7 -26 c28 -8 56 -21 62 -29 7 -9 -12 -4 -51
11 -91 37 -95 43 -11 18z m244 -24 c13 -11 20 -23 16 -27 -4 -4 -20 4 -35 19
-30 31 -16 37 19 8z m-651 -42 c47 -21 80 -46 80 -61 0 -4 -18 4 -40 18 -22
15 -68 35 -103 45 -60 17 -61 18 -22 18 22 0 60 -9 85 -20z m-257 -50 c46 -30
65 -59 30 -44 -120 50 -193 64 -245 46 -18 -7 -28 -7 -23 -2 15 15 82 29 141
30 41 1 60 -5 97 -30z m-907 -292 c35 -18 77 -57 70 -64 -3 -3 -20 5 -38 18
l-33 23 23 -26 24 -26 -52 -11 c-34 -7 -57 -8 -69 -1 -10 5 -21 7 -24 3 -4 -3
-28 8 -54 25 -26 16 -61 37 -78 45 l-30 15 35 11 c48 14 189 7 226 -12z m-719
-203 c-3 -3 -12 -4 -19 -1 -8 3 -5 6 6 6 11 1 17 -2 13 -5z m133 -13 l45 -8
-40 -1 c-22 0 -60 3 -85 7 l-45 8 40 1 c22 0 60 -3 85 -7z"/>
<path d="M4718 3601 c-17 -56 -19 -59 -76 -84 -33 -15 -65 -27 -71 -27 -23 0
-127 -49 -209 -99 -46 -27 -90 -47 -97 -44 -8 3 -21 -2 -30 -10 -16 -16 -136
-34 -154 -23 -6 4 -18 3 -28 -3 -10 -5 -65 -19 -123 -31 -58 -12 -153 -40
-211 -61 -59 -21 -114 -39 -123 -39 -9 0 -16 -4 -16 -10 0 -5 -7 -10 -15 -10
-8 0 -15 4 -15 9 0 5 -34 -2 -75 -16 -41 -13 -72 -29 -69 -35 3 -5 12 -7 20
-4 8 3 14 1 14 -5 0 -6 8 -8 18 -5 10 4 7 -2 -8 -13 -14 -12 -27 -16 -31 -10
-8 13 -59 -10 -59 -26 0 -25 -27 -46 -70 -54 l-45 -9 42 -1 c35 -1 52 6 93 37
162 123 472 233 738 262 136 15 174 28 285 94 86 51 210 104 282 120 l30 6
-27 -24 -28 -25 21 -15 22 -15 -27 -7 c-32 -8 -35 -39 -3 -48 18 -5 20 -8 7
-16 -8 -5 -25 -10 -37 -10 -13 0 -22 -5 -20 -12 1 -7 -5 -12 -13 -13 -8 0 -25
-6 -36 -12 -12 -7 -23 -11 -26 -10 -2 1 5 -7 17 -18 l21 -20 -24 -75 c-13 -41
-26 -81 -28 -88 -2 -7 -34 -26 -70 -42 -63 -29 -67 -29 -80 -13 -8 10 -19 36
-25 58 -9 33 -12 36 -21 22 -5 -10 -15 -46 -22 -80 -11 -56 -16 -64 -50 -82
-34 -18 -38 -19 -49 -4 -7 9 -23 19 -36 24 -18 5 -22 12 -18 32 3 14 -2 42
-10 62 l-15 35 -15 -39 c-8 -22 -17 -50 -20 -62 -3 -13 -8 -23 -12 -23 -3 0
-53 -2 -111 -4 -58 -3 -187 -8 -287 -12 -166 -6 -184 -9 -209 -29 l-27 -22 64
-6 c176 -18 469 -28 490 -17 11 7 23 9 27 6 3 -3 -1 -6 -9 -6 -10 -1 -9 -3 4
-11 35 -20 18 -43 -73 -96 -50 -29 -96 -53 -102 -53 -18 1 40 50 58 50 29 0
13 19 -23 29 -63 16 -334 24 -368 11 -55 -21 -5 -30 185 -31 102 -1 175 -4
162 -6 -12 -2 -20 -9 -16 -14 3 -6 -4 -8 -18 -5 -12 3 -39 1 -58 -4 -34 -9
-34 -10 10 -5 l45 4 -33 -15 c-37 -16 -38 -37 -1 -43 13 -1 27 -8 31 -14 4 -6
41 -13 83 -15 62 -4 74 -7 64 -18 -12 -15 0 -19 91 -29 144 -15 145 -19 10
-61 -47 -14 -119 -37 -160 -50 -88 -28 -103 -29 -120 -9 -10 12 -16 13 -26 4
-11 -9 -18 -8 -28 0 -10 8 -16 9 -21 1 -3 -5 -17 -10 -31 -10 -19 0 -24 -5
-24 -25 0 -23 -4 -25 -43 -25 -24 0 -52 -7 -63 -15 -17 -14 -14 -15 36 -9 36
3 50 2 40 -4 -8 -5 -55 -12 -105 -16 -49 -4 -121 -13 -160 -21 -38 -8 -113
-22 -165 -29 -189 -29 -324 -65 -362 -96 -19 -15 -21 -22 -12 -37 23 -38 59
-39 127 -5 34 18 69 32 77 32 8 -1 -6 -10 -32 -22 -27 -11 -48 -24 -48 -28 0
-5 30 -11 68 -15 37 -3 82 -8 101 -11 l35 -6 -40 -17 c-22 -10 -57 -33 -77
-51 -30 -26 -49 -33 -108 -41 -110 -14 -215 -47 -279 -89 -14 -9 -36 -17 -49
-18 -47 -2 -79 -55 -48 -80 31 -26 283 -68 477 -80 l145 -9 -115 -2 c-102 -3
-110 -4 -70 -13 46 -10 231 -5 262 7 10 4 15 11 12 16 -3 5 2 9 11 9 8 0 41 9
73 20 95 34 183 42 258 25 88 -20 125 -19 219 10 l80 24 -117 0 c-91 1 -120 4
-132 17 -12 11 -36 15 -103 13 -78 -1 -93 2 -133 25 -54 31 -46 35 11 6 37
-20 60 -21 327 -23 l287 -2 140 37 c128 33 203 49 440 94 44 8 152 37 240 64
88 27 179 54 203 60 l42 11 0 280 0 280 -22 -6 c-130 -39 -176 -61 -286 -141
-31 -23 -39 -10 -19 34 l17 37 -23 -28 c-25 -30 -37 -27 -37 9 0 30 10 35 69
36 42 0 57 6 103 40 63 48 128 78 169 78 l29 0 0 73 c0 45 -5 78 -12 85 -10
10 -10 14 0 21 9 6 10 14 3 34 -7 17 -7 28 -1 32 6 4 10 42 10 86 l0 79 -27
-6 c-42 -10 -54 -27 -16 -22 l32 4 -5 -45 c-6 -50 -8 -51 -114 -129 -49 -36
-73 -62 -95 -105 -16 -31 -37 -57 -45 -58 -8 0 -1 -7 15 -14 l30 -13 -27 -11
c-16 -6 -28 -18 -28 -28 -1 -22 -23 -53 -39 -53 -8 0 -9 5 -1 19 5 11 10 26
10 33 0 20 -53 16 -69 -6 -14 -18 -14 -18 -32 5 -13 16 -19 19 -19 9 0 -22
-56 -50 -98 -50 -21 0 -53 -4 -72 -10 l-35 -9 30 25 c17 14 64 43 105 64 74
38 150 103 137 117 -10 9 -87 -19 -87 -32 1 -5 10 -10 20 -9 11 0 20 -1 20 -3
0 -10 -145 -73 -157 -69 -8 3 -22 -2 -31 -13 -10 -10 -42 -27 -72 -36 -30 -10
-73 -24 -95 -31 -23 -8 -65 -14 -95 -14 l-54 0 92 45 c133 64 313 187 298 202
-3 4 -14 -1 -23 -9 -76 -66 -193 -133 -336 -192 -96 -40 -132 -45 -141 -19 -6
14 -9 14 -27 -5 -16 -18 -31 -22 -82 -22 l-61 0 34 30 c19 16 89 57 155 90 66
33 158 82 205 110 135 79 530 226 701 260 29 6 64 13 77 16 20 4 22 10 22 74
0 49 -4 70 -12 70 -9 0 -8 3 2 10 12 8 11 15 -8 48 -12 22 -22 53 -22 70 0 51
-17 45 -23 -8 -8 -63 -14 -75 -33 -59 -12 10 -14 4 -14 -31 0 -33 3 -41 15
-36 8 3 15 1 15 -3 0 -18 -34 -21 -57 -5 -24 15 -24 16 -6 29 17 13 17 14 -4
37 -12 13 -24 43 -28 69 l-7 46 44 7 c69 11 138 36 138 52 0 11 -9 10 -47 -5
-27 -10 -67 -22 -90 -26 -38 -6 -42 -5 -45 17 l-4 23 -11 -26 c-10 -23 -19
-27 -73 -33 -73 -8 -85 -1 -94 54 -9 58 -19 55 -38 -9z m202 -100 c0 -30 -6
-44 -22 -55 -19 -13 -20 -19 -10 -41 16 -34 16 -35 -10 -35 -22 -1 -22 -1 -4
-15 10 -8 23 -16 29 -18 6 -2 4 -12 -4 -25 -12 -19 -12 -24 0 -31 7 -5 10 -14
7 -20 -10 -15 -58 -14 -81 3 -18 13 -17 14 13 21 32 7 45 25 18 25 -9 0 -12 7
-9 19 4 16 -2 22 -28 29 -32 8 -32 9 -11 16 30 10 28 21 -8 48 -30 22 -30 22
-9 30 l22 9 -28 29 -27 29 38 6 c22 4 44 8 49 10 6 2 25 4 43 4 31 1 32 0 32
-38z m101 -174 c20 -15 13 -37 -12 -37 -11 0 -22 -7 -25 -15 -4 -8 -11 -12
-17 -8 -6 4 -3 11 9 20 18 13 18 15 2 24 -10 6 -18 14 -18 19 0 14 42 12 61
-3z m-377 -92 c11 -8 29 -15 40 -15 20 0 20 -1 -3 -19 -16 -12 -20 -21 -12
-25 6 -4 11 -12 11 -17 0 -16 -42 -6 -50 11 -4 8 -12 25 -18 37 -23 43 -6 57
32 28z m444 -211 c4 -26 -22 -48 -56 -49 -23 0 -27 -5 -30 -31 -2 -22 -11 -35
-28 -42 -28 -14 -31 -27 -6 -41 15 -9 15 -10 -5 -11 -12 0 -27 8 -32 18 -10
19 1 100 15 111 51 37 112 71 124 69 8 -2 16 -13 18 -24z m-1027 -78 c-7 -8
-9 -21 -5 -27 4 -8 3 -9 -4 -5 -15 9 -15 29 0 44 16 16 24 6 9 -12z m633 -192
c11 -29 -12 -54 -49 -54 -43 0 -44 8 -3 42 39 32 44 33 52 12z m-366 -53 c12
-7 -15 -10 -93 -10 -103 1 -108 2 -80 15 33 16 142 12 173 -5z m-250 -18 c-10
-2 -26 -2 -35 0 -10 3 -2 5 17 5 19 0 27 -2 18 -5z m530 -9 c12 -8 20 -19 17
-23 -2 -5 -32 -18 -65 -30 -49 -18 -64 -20 -76 -10 -8 6 -17 9 -21 5 -3 -3
-14 1 -24 10 -22 20 -39 11 -39 -20 0 -21 -6 -24 -56 -31 -31 -4 -58 -4 -61
-2 -2 3 -102 -29 -221 -70 -332 -115 -462 -152 -436 -123 16 16 236 103 379
149 66 21 167 58 225 81 190 76 328 99 378 64z m135 -70 c7 -75 -2 -114 -24
-114 -7 0 -9 10 -5 26 5 17 3 23 -4 19 -10 -6 -13 3 -11 45 1 23 0 23 -9 5 -9
-18 -10 -18 -8 5 1 14 -3 35 -10 47 -11 19 -9 22 16 31 47 18 49 15 55 -64z
m-486 60 c-3 -3 -12 -4 -19 -1 -8 3 -5 6 6 6 11 1 17 -2 13 -5z m843 -13 c0
-26 -189 -66 -203 -44 -9 14 45 28 196 52 4 0 7 -3 7 -8z m-446 -95 c7 -35 6
-38 -11 -31 -44 19 -64 17 -98 -9 -33 -25 -35 -26 -35 -7 0 11 5 23 10 26 8 5
7 11 -1 21 -15 18 -14 19 57 48 66 27 64 28 78 -48z m-289 -15 c-6 -4 -62 -27
-125 -51 -63 -23 -153 -62 -200 -86 -135 -69 -318 -125 -450 -139 -50 -5 -53
-4 -36 10 11 8 23 15 28 15 4 0 8 5 8 11 0 12 -187 7 -230 -6 -17 -5 -22 -4
-15 2 20 21 113 41 208 46 86 5 118 13 290 71 105 36 248 78 317 92 186 40
194 42 205 43 6 1 6 -2 0 -8z m45 -6 c0 -8 -7 -15 -15 -15 -26 0 -18 20 13 29
1 1 2 -6 2 -14z m-50 -40 c0 -16 -7 -28 -17 -31 -10 -3 -56 -23 -103 -43 -47
-21 -106 -44 -132 -51 -58 -15 -65 -32 -9 -19 50 11 124 40 200 78 35 18 66
28 80 24 30 -8 26 -18 -18 -45 -22 -13 -71 -42 -110 -66 -45 -28 -89 -47 -123
-52 -29 -5 -84 -18 -123 -29 -90 -27 -136 -25 -178 10 l-32 27 40 10 c22 6 65
16 95 23 72 16 108 31 177 76 49 31 222 110 246 112 4 1 7 -10 7 -24z m559 1
c-8 -7 -284 -85 -379 -107 -116 -26 -251 -73 -306 -105 -28 -16 -56 -24 -90
-24 -35 0 -64 -9 -101 -29 -41 -23 -64 -29 -115 -29 -131 0 -376 -46 -422 -78
-28 -19 -17 -18 46 6 51 19 291 60 349 60 48 0 32 -16 -28 -30 -32 -7 -103
-25 -158 -41 -55 -16 -125 -29 -155 -30 -30 0 -95 -6 -143 -13 -82 -11 -125
-6 -76 9 11 4 18 9 16 12 -3 2 -19 -3 -36 -11 -24 -13 -46 -15 -101 -10 -39 4
-67 11 -63 15 5 5 63 22 128 38 66 17 154 42 195 56 67 23 98 27 286 34 198 8
215 10 269 35 35 16 75 26 103 26 32 0 65 10 111 34 36 19 107 45 156 60 86
24 345 93 430 114 41 10 92 15 84 8z m181 -55 c-24 -13 -167 -39 -260 -46 -73
-6 -175 -23 -245 -41 -13 -3 -10 1 8 11 37 22 206 62 303 73 105 12 213 14
194 3z m-2 -33 c-3 -7 -35 -30 -72 -50 -38 -21 -106 -72 -152 -114 -79 -71
-89 -77 -171 -100 -88 -24 -99 -16 -28 20 17 9 23 16 15 16 -8 0 -33 -9 -54
-21 -22 -11 -87 -41 -145 -66 l-105 -45 -56 17 c-99 31 -96 27 -45 63 64 45
104 60 214 78 97 17 257 62 248 70 -2 3 -42 -4 -88 -16 -46 -11 -130 -29 -186
-40 -57 -10 -124 -28 -149 -39 -46 -21 -46 -21 -41 -1 5 18 1 19 -42 14 -25
-3 -55 -7 -66 -9 -19 -4 -19 -3 -2 9 42 32 213 77 422 111 126 20 251 47 293
62 65 23 163 48 200 52 8 0 12 -5 10 -11z m-1508 -13 c0 -13 -64 -35 -100 -35
-47 0 -46 15 3 29 35 10 97 14 97 6z m-170 -20 c0 -10 -109 -55 -135 -55 -23
0 -26 2 -15 15 19 23 150 58 150 40z m-166 -25 c-6 -6 -62 -22 -125 -36 -63
-14 -145 -36 -184 -49 -71 -23 -82 -24 -71 -6 15 24 208 76 351 94 17 2 32 5
35 6 2 0 -1 -4 -6 -9z m60 -49 c4 -5 -33 -12 -81 -15 -49 -4 -105 -11 -126
-17 -62 -17 -54 -3 10 19 60 20 188 29 197 13z m1796 -6 c0 -4 -79 -44 -145
-73 -5 -3 -1 5 10 18 30 34 135 77 135 55z m-1639 -65 c5 0 9 -4 9 -8 0 -14
-73 -42 -190 -72 -63 -16 -135 -36 -159 -45 -54 -19 -70 -19 -51 -1 27 26 140
78 188 86 28 4 37 8 22 9 l-25 2 23 9 c29 12 143 29 160 24 8 -2 18 -4 23 -4z
m789 -98 c0 -16 -39 -44 -54 -39 -20 8 -141 -10 -199 -29 -26 -9 -70 -31 -97
-50 -28 -19 -50 -31 -50 -26 0 15 43 50 100 82 l55 31 -40 -6 c-49 -8 -84 -26
-132 -68 l-37 -32 23 32 c27 39 94 80 159 98 52 15 272 20 272 7z m-114 -78
c-33 -8 -80 -26 -104 -39 -48 -27 -64 -26 -41 1 25 30 91 54 149 53 l55 -1
-59 -14z m-941 -14 c44 -7 46 -8 15 -9 -19 -1 -53 -6 -75 -11 -31 -6 -17 -8
60 -7 90 2 103 0 133 -21 33 -24 62 -69 62 -97 0 -12 -11 -7 -42 20 -50 43
-134 70 -192 62 -22 -3 -77 1 -121 10 -106 20 -219 12 -310 -22 -37 -14 -70
-23 -72 -21 -8 8 59 48 110 66 121 43 283 54 432 30z m460 -7 c22 -12 49 -31
60 -42 16 -19 11 -18 -37 8 -37 19 -80 32 -122 36 -60 7 -80 4 -181 -21 -20
-5 -20 -5 0 7 69 43 208 49 280 12z m-1053 -95 c-5 -7 -12 -24 -14 -38 -4 -21
-6 -22 -12 -7 -8 17 20 74 31 63 3 -3 1 -11 -5 -18z m518 -47 c40 -12 105 -50
97 -57 -2 -3 -40 8 -83 23 -66 23 -95 28 -179 28 -55 0 -115 -3 -134 -8 -50
-11 -30 4 26 20 53 15 214 11 273 -6z"/>
<path d="M3885 2375 c-40 -14 -40 -14 -5 -8 19 3 42 9 50 14 22 12 1 9 -45 -6z"/>
<path d="M1911 3571 c-10 -7 -11 -13 -2 -30 10 -17 21 -21 61 -21 47 0 52 -3
134 -79 62 -58 101 -85 142 -100 30 -12 60 -18 66 -15 6 4 -15 15 -46 24 -31
10 -77 35 -103 56 l-46 38 31 8 c24 7 42 4 73 -12 44 -23 65 -19 33 5 -45 36
43 1 117 -45 41 -27 101 -56 132 -65 32 -9 71 -28 88 -42 16 -14 32 -23 35
-20 10 10 -64 57 -120 77 -31 10 -87 40 -125 65 -85 57 -119 67 -201 59 -59
-5 -68 -3 -100 20 -110 81 -142 95 -169 77z"/>
<path d="M4001 3515 c-64 -65 -65 -83 -4 -45 20 12 30 25 27 33 -3 8 7 28 21
46 42 49 26 37 -44 -34z"/>
<path d="M3070 3485 c-69 -30 -134 -56 -145 -59 -10 -3 -17 -7 -15 -10 8 -7
149 42 185 64 18 11 43 20 56 20 13 0 35 9 49 20 41 32 4 22 -130 -35z"/>
<path d="M3338 3533 c6 -2 18 -2 25 0 6 3 1 5 -13 5 -14 0 -19 -2 -12 -5z"/>
<path d="M1400 3506 c0 -2 8 -10 18 -17 15 -13 16 -12 3 4 -13 16 -21 21 -21
13z"/>
<path d="M1760 3441 c30 -4 70 -16 88 -25 19 -10 36 -15 39 -12 12 12 -66 38
-121 42 l-61 3 55 -8z"/>
<path d="M3905 3390 c-89 -8 -191 -26 -248 -42 -68 -20 -31 -19 89 3 102 18
141 20 269 15 83 -3 166 -9 185 -12 l35 -5 -27 18 c-16 10 -28 21 -28 25 0 10
-163 8 -275 -2z"/>
<path d="M2985 3380 c-73 -13 -135 -32 -135 -40 0 -5 21 -1 48 8 36 12 99 16
267 18 121 2 238 8 260 13 33 9 27 10 -35 4 -93 -8 -99 -8 -240 0 -63 3 -137
2 -165 -3z"/>
<path d="M91 3351 c26 -10 64 -31 85 -47 l39 -28 -24 27 c-27 30 -97 67 -127
67 -10 -1 2 -9 27 -19z"/>
<path d="M3058 3333 c7 -3 16 -2 19 1 4 3 -2 6 -13 5 -11 0 -14 -3 -6 -6z"/>
<path d="M3188 3333 c7 -3 16 -2 19 1 4 3 -2 6 -13 5 -11 0 -14 -3 -6 -6z"/>
<path d="M2208 3283 c7 -3 16 -2 19 1 4 3 -2 6 -13 5 -11 0 -14 -3 -6 -6z"/>
<path d="M120 3258 c8 -9 186 -116 222 -133 l33 -16 -30 26 c-41 35 -249 149
-225 123z"/>
<path d="M3170 3240 c-8 -5 -12 -11 -10 -14 3 -2 14 2 24 10 22 15 10 19 -14
4z"/>
<path d="M2210 3230 c178 -18 207 -20 175 -10 -16 6 -82 12 -145 14 -111 5
-112 5 -30 -4z"/>
<path d="M3975 3220 c-3 -6 1 -7 9 -4 18 7 21 14 7 14 -6 0 -13 -4 -16 -10z"/>
<path d="M2483 3213 c9 -2 23 -2 30 0 6 3 -1 5 -18 5 -16 0 -22 -2 -12 -5z"/>
<path d="M0 3190 c0 -12 15 -28 43 -44 73 -43 308 -147 410 -181 54 -19 106
-39 115 -47 15 -11 16 -11 4 3 -7 10 -38 27 -70 40 -107 43 -377 175 -432 212
-63 43 -70 44 -70 17z"/>
<path d="M2558 3194 c50 -25 38 -34 -18 -13 -68 26 -78 24 -47 -9 26 -27 38
-60 17 -47 -6 3 -7 -1 -4 -10 5 -11 15 -15 33 -11 14 3 61 8 104 11 42 4 77
10 77 14 0 20 -52 54 -82 53 -25 -1 -29 2 -18 9 11 8 8 10 -12 6 -15 -2 -25 0
-22 4 3 5 -10 9 -28 9 l-33 0 33 -16z m92 -64 c0 -5 -10 -10 -22 -9 -22 0 -22
1 -3 9 11 5 21 9 23 9 1 1 2 -3 2 -9z"/>
<path d="M2308 3193 c6 -2 18 -2 25 0 6 3 1 5 -13 5 -14 0 -19 -2 -12 -5z"/>
<path d="M2776 3170 c32 -21 61 -19 61 3 0 7 -19 13 -46 14 l-46 3 31 -20z"/>
<path d="M3006 3165 c-20 -15 -20 -15 0 -15 10 0 30 3 42 7 18 4 20 8 10 14
-18 12 -30 11 -52 -6z"/>
<path d="M4904 3164 c-22 -8 -41 -21 -41 -29 0 -10 12 -8 49 11 70 35 66 44
-8 18z"/>
<path d="M2480 3150 c0 -5 5 -10 11 -10 5 0 7 5 4 10 -3 6 -8 10 -11 10 -2 0
-4 -4 -4 -10z"/>
<path d="M437 3131 c24 -11 82 -43 130 -71 86 -50 87 -50 48 -14 -42 39 -139
89 -190 99 -25 4 -23 2 12 -14z"/>
<path d="M3345 3099 c-10 -15 3 -25 16 -12 7 7 7 13 1 17 -6 3 -14 1 -17 -5z"/>
<path d="M3260 3080 l-65 -7 68 -1 c39 -1 67 2 67 8 0 6 -1 9 -2 8 -2 -1 -32
-4 -68 -8z"/>
<path d="M730 3045 c0 -6 50 -31 80 -39 21 -6 22 -5 7 4 -25 16 -87 41 -87 35z"/>
<path d="M978 3043 c7 -3 16 -2 19 1 4 3 -2 6 -13 5 -11 0 -14 -3 -6 -6z"/>
<path d="M1055 3020 c28 -10 57 -18 65 -18 8 0 -7 8 -35 18 -27 10 -57 18 -65
18 -8 0 8 -8 35 -18z"/>
<path d="M742 2970 c34 -33 72 -60 83 -60 11 -1 38 -8 60 -17 22 -8 75 -28
117 -43 43 -15 76 -29 74 -31 -3 -2 53 -3 124 -1 154 4 164 0 265 -99 68 -67
73 -69 175 -100 58 -17 119 -33 135 -35 25 -4 22 -1 -20 22 -27 15 -81 40
-118 55 -39 16 -101 55 -145 90 -105 85 -136 104 -215 134 -37 14 -94 38 -125
54 -62 31 -137 56 -192 65 -19 3 4 -7 51 -22 77 -26 189 -80 244 -119 18 -13
11 -14 -66 -11 -83 3 -87 4 -142 46 -31 23 -57 38 -57 33 0 -5 4 -13 10 -16 5
-3 14 -14 20 -25 9 -17 7 -18 -27 -8 -59 16 -135 53 -168 80 -36 31 -108 68
-130 68 -10 0 9 -24 47 -60z"/>
<path d="M4409 2975 c-25 -13 -51 -31 -58 -39 -8 -9 12 0 44 19 85 51 92 61
14 20z"/>
<path d="M2783 2953 c15 -2 37 -2 50 0 12 2 0 4 -28 4 -27 0 -38 -2 -22 -4z"/>
<path d="M1241 2936 c13 -13 189 -74 294 -102 58 -15 -25 18 -147 60 -130 44
-157 51 -147 42z"/>
<path d="M2828 2913 c7 -3 16 -2 19 1 4 3 -2 6 -13 5 -11 0 -14 -3 -6 -6z"/>
<path d="M2918 2903 c7 -3 16 -2 19 1 4 3 -2 6 -13 5 -11 0 -14 -3 -6 -6z"/>
<path d="M3350 2901 c-8 -5 -12 -12 -9 -16 9 -8 173 -27 211 -23 l33 3 -30 20
c-22 15 -49 21 -110 23 -44 1 -87 -2 -95 -7z"/>
<path d="M2976 2885 c7 -17 54 -21 54 -4 0 6 -9 8 -20 4 -11 -4 -20 -2 -20 4
0 6 -4 11 -10 11 -5 0 -7 -7 -4 -15z"/>
<path d="M2470 2875 c0 -8 5 -15 10 -15 6 0 10 7 10 15 0 8 -4 15 -10 15 -5 0
-10 -7 -10 -15z"/>
<path d="M3040 2869 c0 -5 5 -7 11 -3 13 8 9 -45 -4 -63 -5 -7 -6 -13 -1 -14
5 0 0 -4 -11 -9 -16 -7 -17 -9 -3 -9 9 -1 22 7 27 17 6 9 11 12 11 5 0 -14 60
3 60 17 0 10 -71 70 -82 70 -5 0 -8 -5 -8 -11z"/>
<path d="M600 2860 c0 -6 30 -10 71 -10 44 0 68 4 64 10 -3 6 -35 10 -71 10
-36 0 -64 -4 -64 -10z"/>
<path d="M3615 2860 c11 -5 36 -8 55 -8 32 0 33 1 10 8 -14 4 -38 8 -55 8 -25
1 -27 -1 -10 -8z"/>
<path d="M3818 2863 c7 -3 16 -2 19 1 4 3 -2 6 -13 5 -11 0 -14 -3 -6 -6z"/>
<path d="M3298 2853 c7 -3 16 -2 19 1 4 3 -2 6 -13 5 -11 0 -14 -3 -6 -6z"/>
<path d="M4348 2853 c7 -3 16 -2 19 1 4 3 -2 6 -13 5 -11 0 -14 -3 -6 -6z"/>
<path d="M4308 2843 c7 -3 16 -2 19 1 4 3 -2 6 -13 5 -11 0 -14 -3 -6 -6z"/>
<path d="M2608 2817 c-7 -7 -22 -19 -33 -26 -16 -10 -17 -11 -2 -7 11 4 16 2
11 -5 -3 -6 -15 -9 -25 -6 -23 6 -24 1 -4 -20 13 -13 41 -14 192 -7 l177 7
-34 29 c-19 15 -50 33 -70 38 -53 15 -196 13 -212 -3z"/>
<path d="M2918 2821 c8 -4 19 -19 26 -32 7 -16 22 -25 41 -27 21 -2 26 0 16 6
-11 8 -11 10 0 15 11 4 10 6 -2 6 -9 1 -24 10 -34 21 -10 11 -28 20 -39 20
-15 0 -17 -3 -8 -9z"/>
<path d="M2 2805 c2 -3 53 -19 113 -35 120 -34 276 -90 345 -125 68 -34 270
-102 326 -110 69 -10 45 8 -41 30 -38 10 -170 55 -292 101 -239 90 -475 163
-451 139z"/>
<path d="M3253 2777 c-41 -20 -43 -20 -62 -3 -28 25 -70 13 -112 -31 l-34 -35
90 7 c233 17 259 20 262 32 2 6 -6 18 -19 26 -40 25 -80 26 -125 4z"/>
<path d="M1755 2713 c6 -6 28 -20 50 -32 22 -13 31 -15 20 -6 -22 18 -86 53
-70 38z"/>
<path d="M3190 2698 c-45 -22 -45 -22 -15 -25 50 -5 120 11 120 27 0 23 -54
22 -105 -2z"/>
<path d="M3408 2699 c-32 -18 -19 -27 50 -34 193 -17 415 -56 463 -81 17 -8
34 -13 37 -9 23 23 -139 68 -308 86 -58 5 -114 16 -125 23 -29 19 -97 28 -117
15z"/>
<path d="M2680 2694 c0 -7 66 -34 82 -34 7 0 -7 9 -31 20 -47 22 -51 23 -51
14z"/>
<path d="M3640 2690 c8 -5 24 -10 35 -10 17 0 17 2 5 10 -8 5 -24 10 -35 10
-17 0 -17 -2 -5 -10z"/>
<path d="M2881 2666 c5 -5 191 -35 399 -66 171 -24 216 -35 223 -54 8 -20 -34
-55 -84 -71 -51 -16 -32 -20 21 -5 19 5 70 14 113 20 42 5 87 15 99 21 l22 12
-27 23 c-38 33 -71 39 -337 69 -129 15 -274 33 -323 41 -91 15 -113 17 -106
10z"/>
<path d="M618 2630 c113 -39 131 -44 112 -31 -16 12 -170 61 -186 60 -5 0 28
-13 74 -29z"/>
<path d="M3945 2625 c70 -22 116 -26 55 -5 -30 10 -64 19 -75 18 -11 0 -2 -6
20 -13z"/>
<path d="M1884 2609 c0 -14 8 -19 30 -19 16 0 27 1 25 3 -2 2 -15 10 -29 19
-24 15 -26 14 -26 -3z"/>
<path d="M3675 2560 c21 -11 40 -18 43 -16 5 6 -54 36 -70 36 -7 0 5 -9 27
-20z"/>
<path d="M3153 2527 c9 -25 -2 -46 -32 -61 -31 -16 -256 -66 -429 -96 -143
-24 -202 -44 -202 -69 0 -22 34 -38 119 -56 36 -7 75 -17 86 -20 15 -5 13 -1
-7 15 -16 12 -28 31 -28 42 0 11 -5 18 -12 15 -7 -2 -13 -13 -12 -24 0 -19 -2
-20 -49 -7 -28 7 -54 17 -60 23 -19 19 55 49 172 71 296 55 664 131 682 140
10 6 19 18 19 28 -1 16 -1 16 -10 0 -6 -9 -25 -21 -43 -27 -42 -13 -199 -42
-204 -38 -2 3 3 10 12 17 18 15 20 46 3 56 -8 5 -9 2 -5 -9z"/>
<path d="M1130 2505 c52 -13 116 -33 143 -44 26 -11 47 -18 47 -16 0 13 -123
65 -175 74 -103 19 -113 10 -15 -14z"/>
<path d="M3348 2453 c7 -3 16 -2 19 1 4 3 -2 6 -13 5 -11 0 -14 -3 -6 -6z"/>
<path d="M675 2410 c-4 -7 3 -8 22 -4 38 9 42 14 10 14 -14 0 -29 -5 -32 -10z"/>
<path d="M63 2392 c21 -11 51 -32 68 -48 l30 -29 -3 28 c-2 15 -7 26 -10 25
-3 -2 -14 4 -24 14 -11 9 -37 19 -59 22 l-40 6 38 -18z"/>
<path d="M2362 2375 c-182 -24 -252 -53 -252 -106 0 -25 6 -32 43 -48 23 -10
59 -21 79 -25 21 -4 50 -17 64 -29 l26 -22 -21 -19 c-11 -10 -98 -42 -193 -72
-208 -65 -273 -95 -294 -135 -35 -68 28 -132 168 -173 88 -25 92 -18 5 10 -96
31 -157 80 -157 126 0 64 72 99 383 188 112 31 157 53 157 75 0 25 -52 54
-126 71 -84 18 -109 35 -94 64 14 27 88 48 277 80 144 24 159 28 103 28 -36 0
-111 -6 -168 -13z"/>
<path d="M1533 2363 c9 -2 25 -2 35 0 9 3 1 5 -18 5 -19 0 -27 -2 -17 -5z"/>
<path d="M1603 2353 c9 -2 25 -2 35 0 9 3 1 5 -18 5 -19 0 -27 -2 -17 -5z"/>
<path d="M2818 2333 c7 -3 16 -2 19 1 4 3 -2 6 -13 5 -11 0 -14 -3 -6 -6z"/>
<path d="M2728 2318 c-23 -6 -38 -16 -38 -25 0 -12 3 -13 15 -3 8 6 34 18 57
25 50 16 22 18 -34 3z"/>
<path d="M2309 2300 c-46 -24 -66 -47 -52 -61 8 -8 13 -5 18 10 3 11 25 32 48
46 49 29 39 33 -14 5z"/>
<path d="M31 2266 c23 -23 292 -166 311 -166 22 0 -13 27 -77 60 -44 23 -52
30 -30 26 17 -3 48 -8 70 -11 60 -9 22 10 -50 25 -33 7 -95 25 -138 41 -76 28
-95 34 -86 25z"/>
<path d="M310 2260 c8 -5 21 -10 29 -10 8 0 43 -11 78 -26 69 -27 225 -45 236
-27 4 6 -23 13 -71 17 -79 7 -175 32 -168 44 2 4 -24 8 -58 9 -42 2 -56 -1
-46 -7z"/>
<path d="M2064 2212 c9 -14 -12 -36 -46 -49 l-33 -11 43 -1 c24 -1 52 4 63 9
23 13 25 46 3 54 -22 8 -36 7 -30 -2z"/>
<path d="M2151 2193 c7 -10 15 -20 16 -22 2 -2 3 3 3 11 0 9 -7 19 -16 22 -15
6 -15 4 -3 -11z"/>
<path d="M2545 2192 c3 -4 11 -7 17 -7 6 0 16 -8 21 -17 9 -13 7 -22 -7 -37
-22 -25 -10 -28 22 -5 25 17 28 36 9 52 -14 12 -74 25 -62 14z"/>
<path d="M2825 2176 c21 -18 79 -36 110 -35 11 0 -7 8 -40 18 -33 9 -67 20
-75 25 -8 4 -6 0 5 -8z"/>
<path d="M2530 2134 c-23 -26 -79 -44 -255 -79 -248 -49 -348 -89 -362 -143
-10 -43 16 -74 97 -115 97 -48 170 -62 423 -82 138 -10 238 -24 300 -39 50
-13 93 -23 95 -21 1 1 -17 12 -41 23 -60 28 -129 39 -368 56 -218 16 -287 27
-356 57 -90 38 -115 92 -68 147 36 42 101 67 273 102 169 34 250 60 277 90 10
11 13 20 8 20 -6 0 -16 -7 -23 -16z"/>
<path d="M2702 2119 c-18 -16 -26 -29 -18 -29 20 0 60 34 55 48 -2 6 -18 -2
-37 -19z"/>
<path d="M2065 2133 c-77 -5 -317 -41 -452 -68 -150 -30 -226 -58 -253 -92
-19 -25 -19 -28 -4 -51 16 -24 16 -25 -7 -18 -115 32 -269 53 -269 36 0 -6 24
-10 53 -10 126 0 381 -89 472 -166 l30 -25 -59 26 c-158 70 -352 86 -534 46
-109 -24 -173 -24 -274 0 -48 11 -68 11 -115 0 -122 -27 -144 -26 -188 9 -100
81 -180 115 -309 131 -87 11 -156 4 -156 -15 0 -9 36 -17 112 -25 124 -13 231
-45 323 -95 33 -18 112 -54 176 -80 116 -48 189 -95 189 -122 0 -18 -31 -30
-128 -51 -89 -20 -105 -16 -237 62 -98 57 -193 95 -295 115 -36 7 -82 21 -102
32 l-38 18 0 -120 0 -120 58 -2 c31 -1 78 -1 105 1 26 1 70 -5 98 -14 51 -17
119 -68 119 -89 0 -6 -21 -20 -47 -31 -26 -11 -50 -21 -53 -23 -3 -1 -30 17
-60 39 -70 53 -146 89 -187 89 l-33 0 0 -191 c0 -139 3 -188 11 -183 7 4 40
28 75 55 120 91 296 172 432 200 54 11 65 18 82 46 16 28 31 36 117 62 238 74
486 111 743 111 262 0 410 -38 467 -120 19 -27 9 -39 -39 -46 -30 -5 -44 0
-95 35 -72 49 -151 71 -256 71 -83 0 -203 -23 -232 -44 -15 -11 -12 -15 27
-40 24 -15 49 -36 56 -47 9 -14 1 -12 -34 11 -26 16 -72 34 -102 41 -54 11
-146 8 -159 -4 -3 -4 11 -25 31 -47 41 -46 56 -77 56 -121 0 -43 -34 -103 -66
-118 -26 -11 -30 -10 -47 11 -67 85 -125 119 -241 139 -142 24 -301 -5 -423
-78 -77 -45 -77 -54 -1 -13 157 85 326 101 511 49 35 -9 107 -62 107 -78 0 -4
-31 -5 -69 -3 -54 3 -91 -2 -161 -22 -107 -31 -163 -58 -248 -120 -34 -25 -68
-46 -76 -46 -7 0 -19 12 -25 28 -16 38 -44 53 -112 59 -69 7 -172 -22 -244
-68 -25 -16 -48 -29 -51 -29 -15 0 62 54 129 90 42 23 79 45 82 50 10 16 -83
-12 -162 -50 l-83 -39 0 -101 c0 -55 2 -100 4 -100 3 0 42 9 88 19 46 11 128
25 183 31 158 17 302 40 410 65 304 72 535 169 535 223 0 13 27 29 98 59 123
51 193 68 362 88 160 18 233 37 266 70 47 47 30 88 -64 149 -37 25 -98 73
-136 106 -78 70 -171 133 -266 182 -79 40 -88 64 -38 101 55 42 168 69 613
147 162 29 165 33 10 23z m-712 -343 c141 -27 320 -90 304 -106 -3 -3 -18 1
-34 9 -65 34 -295 93 -428 110 -23 3 -21 4 12 6 23 0 89 -8 146 -19z"/>
<path d="M2750 2105 c-14 -8 -20 -14 -14 -15 5 0 19 7 30 15 24 18 16 19 -16
0z"/>
<path d="M4970 2110 c-8 -5 -72 -31 -143 -57 -132 -49 -159 -72 -40 -32 70 22
181 73 198 90 12 12 4 11 -15 -1z"/>
<path d="M5025 2075 c-49 -17 -135 -51 -190 -74 -118 -50 -218 -77 -314 -87
-80 -7 -91 2 -38 34 17 12 46 35 62 52 l30 32 -45 -20 c-25 -12 -68 -28 -96
-36 -66 -20 -148 -55 -142 -61 2 -3 40 8 84 24 121 44 136 47 94 20 -19 -12
-78 -37 -130 -55 -52 -18 -138 -48 -190 -67 -69 -25 -120 -37 -185 -42 -148
-11 -238 -47 -222 -88 3 -8 36 -27 74 -42 265 -109 324 -150 86 -60 -190 72
-210 92 -152 151 32 34 89 57 164 69 22 4 87 22 145 40 58 18 130 38 160 44
48 10 133 51 105 51 -31 0 -230 -52 -280 -73 -33 -14 -100 -34 -148 -46 -48
-11 -99 -27 -112 -33 -36 -19 -145 -128 -145 -144 0 -8 16 -22 35 -30 19 -8
35 -16 35 -18 0 -1 -22 0 -49 5 -52 8 -91 24 -91 37 0 15 25 40 60 62 l35 21
-35 -6 c-59 -11 -105 -38 -108 -63 -8 -57 69 -87 263 -102 126 -10 186 -22
270 -53 40 -15 41 -14 111 24 96 52 180 73 271 66 133 -10 119 -32 -29 -46
-103 -10 -219 -49 -301 -101 -26 -16 -92 -72 -147 -124 -76 -72 -118 -103
-175 -130 -42 -20 -80 -36 -84 -36 -14 0 -71 -69 -71 -86 0 -24 44 -61 86 -73
22 -6 95 -11 163 -11 116 0 133 -3 238 -36 62 -20 113 -40 113 -43 0 -11 -119
10 -178 30 -41 15 -81 19 -180 19 -181 0 -275 28 -362 106 -100 91 -65 190 93
265 37 17 66 33 64 35 -6 6 -81 -18 -122 -38 -48 -24 -101 -73 -121 -110 -8
-15 -14 -50 -14 -77 0 -83 55 -132 200 -179 67 -22 206 -42 295 -42 69 0 162
-25 210 -57 37 -25 40 -25 67 -10 27 16 28 15 28 -7 0 -29 25 -52 90 -82 27
-13 62 -35 77 -50 l27 -27 -34 -26 c-62 -47 -152 -136 -166 -163 -35 -68 -7
-104 117 -149 159 -57 151 -47 63 -85 -121 -53 -230 -123 -313 -201 l-76 -72
563 -1 562 0 0 169 0 168 -22 -3 c-172 -24 -489 -91 -589 -124 -71 -24 -220
-94 -289 -136 l-45 -27 24 26 c41 45 166 126 274 177 130 63 365 121 585 146
l62 7 0 154 c0 178 10 169 -105 100 -38 -23 -106 -76 -149 -117 -97 -92 -81
-53 18 45 71 70 174 135 215 135 20 0 21 5 21 91 l0 91 -37 -6 c-21 -3 -64 -8
-96 -12 l-58 -6 30 -19 c42 -26 43 -70 1 -107 -41 -38 -127 -89 -202 -120 -56
-23 -77 -26 -188 -27 -104 -1 -136 -5 -190 -24 -36 -13 -71 -28 -78 -34 -7 -5
-15 -7 -18 -4 -16 15 144 146 236 192 51 26 72 43 98 83 33 51 93 107 170 157
23 15 42 30 42 33 0 10 -163 -10 -226 -28 -69 -20 -154 -60 -189 -89 -19 -16
-19 -15 -4 8 36 57 213 122 384 140 79 8 105 17 208 66 116 56 117 57 117 92
0 28 -3 33 -17 29 -10 -3 -90 -21 -178 -41 -88 -19 -183 -42 -212 -50 -28 -8
-60 -12 -70 -9 -12 4 -14 3 -6 -3 9 -6 -13 -20 -70 -42 -91 -37 -198 -93 -221
-117 -9 -9 -16 -11 -16 -4 0 6 23 34 50 61 36 36 80 64 153 99 108 52 380 145
510 175 l77 19 0 119 c0 90 -3 118 -12 115 -7 -2 -55 -16 -105 -33 -86 -28
-111 -46 -80 -59 8 -3 6 -9 -7 -20 -16 -13 -45 -16 -135 -15 -125 1 -195 -15
-291 -67 l-45 -24 30 26 c42 35 79 54 160 81 l70 23 -60 -5 c-33 -2 -107 -18
-165 -35 -118 -34 -240 -42 -240 -16 0 27 35 50 187 123 185 89 309 131 521
177 90 19 166 37 169 39 2 3 3 23 1 45 l-3 41 -145 -49 c-167 -57 -217 -61
-325 -29 -92 28 -231 28 -335 1 -94 -25 -248 -79 -277 -98 -66 -42 -24 8 67
81 72 57 129 89 175 98 65 13 371 79 430 92 34 8 100 32 147 54 47 22 124 51
172 66 74 23 110 45 95 59 -2 2 -44 -11 -94 -29z m-512 -359 c24 -9 15 -10
-57 -7 -96 3 -204 -16 -300 -55 -65 -26 -81 -26 -42 0 107 70 305 101 399 62z
m-184 -220 c-2 -2 -69 -38 -149 -81 -80 -42 -170 -95 -200 -118 -113 -87 -103
-65 17 38 80 68 168 119 253 146 51 17 89 24 79 15z m41 -247 c75 -20 150 -56
150 -70 0 -4 -21 2 -47 13 -67 30 -141 48 -188 47 -22 -1 -31 -3 -20 -6 79
-17 206 -75 192 -89 -2 -2 -58 14 -123 36 -65 22 -134 40 -153 40 -33 0 -111
-38 -181 -88 l-35 -25 30 32 c17 18 50 43 75 56 25 13 39 24 32 25 -7 0 -26
-7 -42 -15 -20 -11 -30 -11 -32 -3 -3 7 -50 -12 -123 -50 -114 -60 -118 -61
-86 -28 51 53 180 113 296 139 56 13 185 6 255 -14z m-525 -59 c3 -6 -6 -15
-22 -21 -15 -6 -35 -16 -43 -23 -8 -7 -31 -19 -50 -26 -19 -7 -43 -20 -52 -28
-10 -8 -18 -10 -18 -4 0 17 61 63 115 88 58 27 62 27 70 14z m1052 -36 c-3 -3
-12 -4 -19 -1 -8 3 -5 6 6 6 11 1 17 -2 13 -5z m63 -868 c0 -4 -160 -59 -210
-73 -53 -15 59 35 120 53 79 24 90 27 90 20z"/>
<path d="M1655 1996 c-39 -17 -85 -71 -85 -99 1 -19 3 -17 14 8 15 34 47 65
91 88 36 20 22 21 -20 3z"/>
<path d="M1715 1974 c-54 -29 -70 -70 -42 -108 12 -17 14 -14 15 24 2 51 5 56
46 81 37 23 23 25 -19 3z"/>
<path d="M5070 1959 c-25 -9 -71 -27 -103 -39 -31 -12 -76 -35 -100 -50 -23
-15 -64 -33 -92 -40 -77 -20 -76 -30 1 -30 64 0 332 34 341 44 2 2 3 33 1 68
l-3 65 -45 -18z"/>
<path d="M2220 1935 c-13 -14 -22 -27 -19 -29 2 -2 14 10 27 25 29 36 24 38
-8 4z"/>
<path d="M2350 1934 c-41 -35 -36 -62 14 -91 43 -23 93 -34 281 -58 111 -15
282 -62 312 -86 7 -6 18 -7 24 -3 7 4 9 3 6 -3 -4 -6 1 -17 11 -24 15 -13 16
-12 3 4 -26 32 7 17 38 -18 35 -41 42 -32 9 10 -41 53 -177 102 -375 135 -66
11 -141 26 -167 34 -25 8 -55 12 -66 9 -27 -7 -78 15 -92 40 -9 18 -6 25 21
49 40 35 23 37 -19 2z"/>
<path d="M360 1947 c0 -7 131 -84 163 -96 34 -13 105 -15 92 -3 -6 5 -39 19
-75 32 -36 13 -81 31 -100 40 -41 20 -80 33 -80 27z"/>
<path d="M2400 1883 c0 -10 40 -36 46 -30 3 2 -7 12 -21 21 -14 9 -25 13 -25
9z"/>
<path d="M2070 1871 c0 -19 63 -61 113 -76 29 -9 77 -18 107 -20 l55 -5 -63
15 c-76 18 -138 44 -171 74 -26 22 -41 27 -41 12z"/>
<path d="M768 1853 c12 -2 32 -2 45 0 12 2 2 4 -23 4 -25 0 -35 -2 -22 -4z"/>
<path d="M2220 1846 c0 -2 8 -10 18 -17 15 -13 16 -12 3 4 -13 16 -21 21 -21
13z"/>
<path d="M2368 1763 c7 -3 16 -2 19 1 4 3 -2 6 -13 5 -11 0 -14 -3 -6 -6z"/>
<path d="M3472 1749 c-62 -24 -127 -82 -138 -122 -17 -69 33 -101 214 -142 61
-13 126 -31 146 -39 20 -8 34 -11 31 -7 -11 19 -95 50 -194 72 -122 27 -161
52 -161 104 0 45 29 78 105 116 90 45 89 53 -3 18z"/>
<path d="M2078 1723 c7 -3 16 -2 19 1 4 3 -2 6 -13 5 -11 0 -14 -3 -6 -6z"/>
<path d="M2128 1713 c7 -3 16 -2 19 1 4 3 -2 6 -13 5 -11 0 -14 -3 -6 -6z"/>
<path d="M3441 1676 c-13 -14 -21 -31 -18 -38 4 -10 6 -10 6 0 1 6 7 12 15 12
7 0 16 10 19 22 8 31 4 32 -22 4z"/>
<path d="M4926 1644 c-165 -35 -381 -99 -451 -134 -48 -24 -46 -23 175 38 96
27 236 64 310 81 133 32 188 51 145 50 -11 0 -92 -16 -179 -35z"/>
<path d="M2131 1585 c58 -29 111 -60 118 -69 7 -8 18 -13 25 -10 20 8 66 -53
66 -87 0 -19 -10 -39 -25 -55 -34 -34 -150 -88 -281 -130 -61 -19 -91 -32 -69
-30 22 3 83 20 135 37 183 60 270 120 270 183 0 45 -27 76 -97 113 -55 30
-231 104 -242 102 -3 0 41 -24 100 -54z"/>
<path d="M2281 1607 c146 -65 189 -105 189 -176 0 -28 -9 -43 -48 -81 -77 -74
-195 -118 -527 -197 -94 -22 -112 -28 -84 -31 38 -3 269 51 404 95 187 60 275
129 275 214 0 68 -69 139 -176 178 -93 35 -112 34 -33 -2z"/>
<path d="M2639 1610 c30 -17 62 -37 71 -45 25 -23 36 -18 14 6 -21 23 -105 69
-126 69 -7 0 11 -14 41 -30z"/>
<path d="M2737 1611 c23 -16 48 -40 57 -53 9 -12 16 -18 16 -12 0 19 -40 64
-70 79 -46 24 -47 18 -3 -14z"/>
<path d="M1995 1604 c122 -64 149 -131 76 -197 -39 -35 -142 -75 -246 -96 -45
-9 -41 -10 36 -6 123 7 209 36 264 89 34 32 45 50 45 74 0 43 -40 86 -113 121
-81 38 -126 49 -62 15z"/>
<path d="M3150 1600 c0 -21 -12 -43 -37 -72 -23 -24 -30 -37 -18 -31 36 19 57
50 62 92 3 23 3 41 -1 41 -3 0 -6 -13 -6 -30z"/>
<path d="M2565 1600 c10 -11 20 -20 23 -20 3 0 -3 9 -13 20 -10 11 -20 20 -23
20 -3 0 3 -9 13 -20z"/>
<path d="M1130 1579 c-77 -10 -163 -29 -157 -36 3 -2 39 3 81 11 41 9 97 16
123 16 26 0 55 5 63 10 18 12 -14 12 -110 -1z"/>
<path d="M3171 1580 c-1 -8 -4 -26 -7 -40 -5 -19 -4 -22 5 -14 7 6 11 24 8 40
-2 16 -5 22 -6 14z"/>
<path d="M1678 1563 c6 -2 18 -2 25 0 6 3 1 5 -13 5 -14 0 -19 -2 -12 -5z"/>
<path d="M3320 1521 c14 -11 30 -21 35 -21 11 0 -7 14 -40 31 -13 7 -12 3 5
-10z"/>
<path d="M2896 1484 c-15 -25 -26 -47 -23 -50 8 -9 57 57 57 77 0 10 -1 19 -2
19 -2 -1 -16 -21 -32 -46z"/>
<path d="M2940 1493 c0 -24 5 -43 10 -43 13 0 13 50 0 70 -7 11 -10 4 -10 -27z"/>
<path d="M2670 1465 c0 -11 -7 -37 -14 -57 -8 -21 -10 -35 -5 -32 12 7 31 83
25 97 -2 7 -5 3 -6 -8z"/>
<path d="M3045 1411 c-22 -10 -49 -26 -60 -35 -11 -9 8 -2 43 15 34 17 62 32
62 35 0 6 -1 6 -45 -15z"/>
<path d="M3168 1411 c-107 -35 -168 -87 -168 -147 0 -70 -35 -121 -111 -159
-25 -13 -121 -45 -213 -71 -92 -26 -173 -53 -181 -60 -7 -7 -15 -11 -19 -9 -3
3 -2 0 2 -5 5 -7 30 -1 69 14 33 14 113 39 179 57 152 40 211 67 252 113 26
29 32 45 32 81 0 24 4 55 10 69 14 37 78 80 159 105 67 21 87 32 59 30 -7 0
-38 -8 -70 -18z"/>
<path d="M3719 1407 c-33 -27 -49 -58 -49 -92 0 -34 48 -55 125 -55 102 0 137
38 100 110 -18 35 -45 51 -82 48 -15 -1 -37 1 -48 5 -13 4 -29 -2 -46 -16z"/>
<path d="M3210 1381 c-45 -14 -84 -39 -115 -72 l-30 -33 40 31 c50 37 79 53
130 69 22 7 31 13 20 12 -11 0 -31 -3 -45 -7z"/>
<path d="M1090 1373 c0 -6 5 -15 11 -19 6 -3 19 -20 30 -38 10 -17 19 -24 19
-16 0 19 -59 91 -60 73z"/>
<path d="M2619 1343 c-13 -16 -12 -17 4 -4 9 7 17 15 17 17 0 8 -8 3 -21 -13z"/>
<path d="M3184 1297 c-31 -28 -45 -48 -40 -56 6 -9 15 -2 32 22 13 19 36 44
51 56 15 11 23 21 16 21 -6 0 -33 -19 -59 -43z"/>
<path d="M1698 1293 c12 -2 32 -2 45 0 12 2 2 4 -23 4 -25 0 -35 -2 -22 -4z"/>
<path d="M3285 1278 c-30 -24 -55 -75 -54 -110 0 -14 6 -5 15 23 7 26 21 53
31 60 15 13 16 12 8 -6 -30 -70 -9 -160 50 -215 23 -21 21 -17 -10 30 -35 53
-37 58 -32 120 6 72 9 89 20 108 12 18 3 15 -28 -10z"/>
<path d="M2790 1270 c0 -32 -57 -85 -145 -135 -44 -26 -69 -43 -55 -40 49 14
138 67 172 103 35 37 58 92 38 92 -5 0 -10 -9 -10 -20z"/>
<path d="M2871 1276 c-2 -31 -40 -84 -77 -107 -19 -12 -33 -23 -30 -26 2 -3
25 9 49 26 46 31 72 76 64 108 -4 17 -5 17 -6 -1z"/>
<path d="M1756 1248 c-180 -24 -246 -46 -284 -95 -87 -115 -95 -121 -312 -221
-47 -21 -110 -60 -140 -86 -67 -58 -108 -79 -309 -161 -87 -35 -194 -81 -237
-103 -44 -22 -133 -59 -199 -82 -127 -45 -170 -64 -180 -80 -11 -17 226 70
385 142 85 39 205 90 265 113 160 62 234 99 289 145 27 23 115 73 195 113 148
73 148 73 272 204 37 40 107 62 304 98 133 25 176 36 124 34 -13 -1 -91 -10
-173 -21z"/>
<path d="M4971 1234 c-125 -32 -161 -44 -133 -44 18 0 274 68 280 75 9 9 -10
5 -147 -31z"/>
<path d="M2564 1244 c-18 -14 -18 -15 4 -4 12 6 22 13 22 15 0 8 -5 6 -26 -11z"/>
<path d="M2322 1221 c-29 -16 -56 -32 -60 -36 -11 -12 70 24 103 45 45 29 17
23 -43 -9z"/>
<path d="M1440 1212 c-19 -10 -57 -35 -84 -56 -60 -45 -140 -87 -317 -162 -73
-31 -151 -67 -171 -80 -44 -28 -115 -57 -208 -86 -35 -11 -128 -45 -205 -75
-77 -30 -183 -69 -235 -88 -52 -18 -104 -36 -115 -40 -13 -4 -7 4 15 24 56 49
185 107 321 145 121 34 207 65 182 66 -46 1 -450 -80 -570 -115 l-53 -16 0
-114 c0 -95 3 -115 15 -115 28 0 260 52 293 65 18 8 54 32 80 54 71 59 134 86
294 125 175 43 217 60 283 115 57 48 88 66 236 131 147 65 196 101 221 160 14
34 30 53 52 64 17 9 24 16 16 16 -9 0 -31 -8 -50 -18z"/>
<path d="M2067 1145 c-96 -33 -100 -35 -95 -41 6 -6 149 44 163 57 12 12 11
12 -68 -16z"/>
<path d="M3346 1110 c10 -38 39 -82 76 -115 l33 -30 -27 30 c-15 17 -41 55
-58 85 -17 30 -28 44 -24 30z"/>
<path d="M2680 1110 c-8 -5 -10 -10 -5 -10 6 0 17 5 25 10 8 5 11 10 5 10 -5
0 -17 -5 -25 -10z"/>
<path d="M2600 1080 c-8 -5 -10 -10 -5 -10 6 0 17 5 25 10 8 5 11 10 5 10 -5
0 -17 -5 -25 -10z"/>
<path d="M2460 1037 c-122 -42 -234 -99 -238 -122 -3 -14 5 -11 41 14 38 26
193 94 292 129 17 6 23 11 15 11 -8 1 -58 -14 -110 -32z"/>
<path d="M5032 1053 c-35 -8 -61 -17 -59 -20 7 -7 127 18 133 28 6 11 4 11
-74 -8z"/>
<path d="M4938 1023 c7 -3 16 -2 19 1 4 3 -2 6 -13 5 -11 0 -14 -3 -6 -6z"/>
<path d="M408 893 c6 -2 18 -2 25 0 6 3 1 5 -13 5 -14 0 -19 -2 -12 -5z"/>
<path d="M225 866 c-137 -29 -225 -55 -225 -66 0 -5 27 0 59 11 33 11 120 33
193 49 73 15 122 28 108 28 -14 1 -74 -10 -135 -22z"/>
<path d="M3631 876 c8 -8 170 -48 175 -43 3 2 -34 14 -80 26 -87 21 -103 24
-95 17z"/>
<path d="M3409 794 c-22 -27 -124 -68 -256 -104 -67 -19 -120 -37 -117 -42 6
-9 24 -6 162 33 57 16 124 40 150 53 47 24 90 62 80 71 -3 3 -11 -2 -19 -11z"/>
<path d="M4105 705 c47 -63 53 -69 29 -27 -10 18 -30 43 -43 55 -14 13 -8 1
14 -28z"/>
<path d="M3345 589 c-60 -32 -107 -59 -102 -59 11 0 193 86 219 104 49 35 -12
11 -117 -45z"/>
<path d="M4141 514 c0 -11 3 -14 6 -6 3 7 2 16 -1 19 -3 4 -6 -2 -5 -13z"/>
<path d="M2880 335 c-23 -17 -36 -21 -41 -13 -4 6 -6 -1 -6 -16 2 -19 6 -25
17 -20 8 3 35 13 59 21 26 10 38 18 31 23 -6 4 -11 11 -10 16 3 17 -16 13 -50
-11z"/>
<path d="M4950 342 c-52 -9 -88 -17 -80 -19 8 -2 69 5 135 16 66 10 102 19 80
19 -22 0 -83 -7 -135 -16z"/>
<path d="M3073 313 c-48 -21 -79 -40 -77 -47 3 -7 -18 -34 -46 -60 -38 -36
-50 -43 -51 -29 0 11 -3 13 -6 5 -2 -7 -14 -17 -25 -23 -13 -7 -18 -7 -14 -1
15 24 -22 16 -57 -11 -35 -29 -117 -126 -117 -140 0 -4 130 -7 288 -7 283 0
289 0 308 22 34 38 146 103 272 158 67 29 120 55 118 57 -2 3 -35 -4 -73 -15
-37 -11 -92 -23 -122 -27 -30 -3 -62 -10 -71 -15 -9 -5 -58 -10 -109 -12 -73
-2 -94 0 -101 12 -6 10 -10 11 -10 3 0 -20 -73 -64 -85 -52 -7 7 0 19 23 40
24 22 28 29 15 29 -10 -1 -29 -7 -43 -15 -34 -19 -87 -19 -87 0 0 8 4 15 9 15
4 0 8 5 8 12 0 6 -8 3 -20 -7 -11 -10 -17 -22 -13 -28 3 -6 1 -7 -5 -3 -6 3
-27 -14 -48 -39 -21 -24 -40 -43 -42 -41 -2 2 6 21 16 43 31 58 109 129 193
173 92 49 80 51 -28 3z"/>
<path d="M4074 329 c-19 -22 -19 -22 4 -10 12 6 22 16 22 21 0 15 -5 12 -26
-11z"/>
<path d="M4780 310 c-20 -6 -21 -8 -5 -8 11 0 34 4 50 8 27 7 27 8 5 8 -14 0
-36 -4 -50 -8z"/>
<path d="M3739 283 c-13 -16 -12 -17 4 -4 16 13 21 21 13 21 -2 0 -10 -8 -17
-17z"/>
<path d="M3799 272 c-14 -15 -69 -49 -123 -75 -102 -52 -262 -152 -285 -180
-12 -16 -9 -17 38 -17 47 0 55 3 83 36 33 38 111 92 267 189 67 41 89 60 80
66 -22 13 -32 10 -60 -19z"/>
<path d="M4718 293 c6 -2 18 -2 25 0 6 3 1 5 -13 5 -14 0 -19 -2 -12 -5z"/>
<path d="M2715 250 c-16 -4 -49 -17 -72 -29 -26 -14 -67 -24 -109 -27 -38 -3
-76 -10 -86 -15 -10 -5 -18 -6 -18 -2 0 4 -34 8 -75 8 -41 0 -75 -4 -75 -9 0
-4 -20 -6 -45 -4 -29 2 -46 -1 -50 -9 -2 -7 -16 -13 -29 -13 -18 0 -24 4 -20
14 4 11 0 13 -15 9 -11 -3 -18 -10 -15 -15 4 -6 -2 -8 -12 -6 -14 2 -18 12
-18 35 l1 32 -43 -35 c-42 -35 -110 -118 -133 -161 l-12 -23 226 0 225 0 81
60 c45 33 144 92 221 130 130 65 146 79 73 60z"/>
<path d="M3410 240 c-9 -6 -10 -10 -3 -10 6 0 15 5 18 10 8 12 4 12 -15 0z"/>
<path d="M1900 185 c-54 -29 -76 -31 -89 -7 -10 16 -10 16 -11 -2 0 -14 -5
-17 -25 -12 -18 5 -25 2 -25 -8 0 -9 -14 -14 -47 -14 -25 -1 -49 -5 -52 -10
-3 -5 -13 -9 -21 -10 -8 0 -49 -3 -90 -7 -41 -4 -88 -8 -105 -9 -16 -1 -38 -6
-48 -10 -11 -5 -23 -4 -29 2 -13 13 -48 3 -48 -14 0 -13 -13 -19 -33 -15 -43
8 -75 7 -89 0 -10 -5 -62 -11 -117 -14 -55 -2 -117 -8 -138 -14 -81 -21 -149
-24 -165 -7 -14 14 -17 14 -22 0 -3 -8 0 -17 7 -19 6 -2 233 -6 504 -9 l492
-4 42 54 c23 31 50 61 59 67 24 17 104 87 99 86 -2 0 -24 -11 -49 -24z"/>
<path d="M3905 158 c-86 -28 -87 -28 -73 -11 11 13 7 13 -22 -2 -34 -18 -61
-45 -55 -55 2 -3 -7 -5 -20 -5 -13 0 -21 4 -18 9 9 14 -74 -35 -109 -65 l-32
-26 78 -1 78 -1 71 61 c40 33 71 64 70 69 -2 4 3 6 10 4 6 -3 23 4 37 15 28
22 27 22 -15 8z"/>
<path d="M3795 20 c-15 -17 -16 -20 -3 -20 9 0 19 7 22 16 10 25 1 27 -19 4z"/>
<path d="M246 14 c-17 -12 -17 -14 -4 -14 9 0 20 5 23 11 11 17 2 18 -19 3z"/>
<path d="M448 13 c7 -3 16 -2 19 1 4 3 -2 6 -13 5 -11 0 -14 -3 -6 -6z"/>
</g>
</svg>