<?xml version="1.0" standalone="no"?>
<!DOCTYPE svg PUBLIC "-//W3C//DTD SVG 20010904//EN"
 "http://www.w3.org/TR/2001/REC-SVG-20010904/DTD/svg10.dtd">
<svg version="1.0" xmlns="http://www.w3.org/2000/svg"
 width="512.000000pt" height="512.000000pt" viewBox="0 0 512.000000 512.000000"
 preserveAspectRatio="xMidYMid meet">
<metadata>
Created by potrace 1.16, written by Peter Selinger 2001-2019
</metadata>
<g transform="translate(0.000000,512.000000) scale(0.100000,-0.100000)"
fill="#bbf7d0" stroke="none">
<path d="M0 4648 c1 -407 3 -470 14 -448 8 14 12 28 10 32 -2 3 1 10 7 14 7 4
10 3 6 -2 -3 -5 17 -9 44 -9 31 0 49 4 49 12 0 30 24 63 47 63 l23 0 0 258 c0
304 -4 293 106 300 60 4 64 3 64 -17 0 -18 -5 -22 -27 -20 -115 9 -113 13
-113 -267 0 -129 3 -234 8 -234 4 0 6 105 4 234 -3 205 -1 234 13 240 13 5 14
2 5 -15 -13 -23 -10 -380 2 -372 5 2 8 79 8 171 0 191 6 212 64 212 22 0 36
-6 40 -16 10 -26 7 -451 -4 -478 -6 -16 -6 -27 0 -31 6 -4 10 4 10 15 0 12 10
36 22 53 12 17 17 28 11 24 -6 -4 -14 0 -17 9 -3 9 -6 149 -6 313 0 324 0 325
59 356 15 7 51 17 79 21 49 6 52 5 52 -15 0 -18 -6 -21 -40 -21 -55 0 -99 -40
-107 -96 -5 -38 -2 -45 33 -84 38 -41 39 -46 42 -125 4 -75 2 -83 -22 -112
-31 -37 -32 -55 -6 -91 11 -15 23 -46 26 -67 8 -57 24 -95 40 -95 8 0 14 -7
14 -15 0 -10 -10 -15 -29 -15 -52 0 -55 -13 -52 -226 l3 -194 -69 0 c-97 0
-141 -9 -148 -30 -4 -13 -20 -19 -56 -22 -28 -3 -63 -14 -77 -25 -29 -21 -58
-71 -67 -115 -3 -18 -14 -29 -37 -37 -40 -14 -34 -20 15 -13 35 4 37 6 37 39
0 77 55 133 131 133 l49 0 0 -365 c0 -237 -4 -365 -10 -365 -6 0 -10 40 -10
100 0 99 0 100 -24 100 -24 0 -25 -1 -28 -105 l-3 -105 175 0 c256 -1 469 -9
518 -22 61 -16 47 -19 -29 -7 -84 14 -223 3 -215 -17 3 -8 1 -14 -5 -14 -16 0
-23 31 -8 41 9 5 10 9 2 9 -6 0 -18 -7 -27 -15 -12 -12 -47 -15 -187 -15 -148
0 -170 -2 -160 -14 7 -8 15 -40 18 -70 5 -46 3 -56 -9 -56 -11 0 -17 16 -21
62 -5 56 -10 66 -41 96 l-36 32 -2 288 -2 287 -6 -290 c-4 -159 -7 -291 -8
-293 -1 -2 -6 -1 -11 3 -5 3 -12 1 -16 -5 -3 -5 3 -10 14 -10 11 0 35 -13 53
-29 l33 -29 3 -354 c3 -345 2 -355 -18 -373 -20 -18 -20 -18 -20 38 0 43 4 58
17 66 17 10 17 10 -1 11 -11 0 -28 7 -38 17 -17 15 -18 15 -18 0 0 -10 -6 -17
-12 -17 -10 0 -12 -23 -10 -90 3 -77 1 -90 -12 -90 -13 0 -16 15 -18 88 l-2
87 -5 -85 c-6 -84 -6 -85 -34 -88 l-27 -3 -1 488 c-1 268 -5 499 -9 513 -4 14
-8 -264 -9 -617 l-1 -643 24 0 c23 0 24 2 13 30 -14 37 -1 76 35 103 35 26 90
16 130 -23 22 -23 28 -37 28 -74 0 -32 -5 -48 -17 -55 -10 -6 -13 -11 -8 -11
6 0 15 4 21 10 14 14 65 -2 81 -26 12 -19 10 -25 -17 -59 -16 -21 -30 -43 -30
-49 0 -6 -7 -24 -15 -39 -8 -15 -12 -34 -9 -42 4 -8 -8 -27 -27 -45 -29 -26
-41 -30 -92 -30 -51 0 -62 4 -88 29 l-29 29 0 -89 0 -89 55 0 c60 0 62 -3 40
-57 -8 -19 -15 -57 -15 -84 l0 -49 -40 0 c-22 0 -40 -4 -40 -10 0 -6 35 -10
85 -10 69 0 85 -3 85 -15 0 -12 -16 -15 -85 -15 l-85 0 0 -40 0 -40 85 0 c50
0 85 -4 85 -10 0 -6 -35 -10 -85 -10 l-85 0 0 -83 c0 -82 1 -84 35 -117 19
-19 35 -29 35 -22 0 16 32 16 48 0 19 -19 15 -27 -23 -42 -19 -8 -35 -22 -35
-30 0 -15 -16 -20 -46 -17 -6 1 -11 -6 -11 -14 0 -13 22 -15 139 -15 90 0 137
-4 133 -10 -4 -6 -62 -10 -141 -10 l-134 0 0 -70 0 -70 93 0 c59 0 97 -4 105
-12 15 -15 17 -618 2 -618 -6 0 -10 105 -10 295 0 341 10 315 -114 315 -74 0
-76 -1 -76 -25 0 -23 3 -25 51 -25 36 0 49 -4 46 -12 -3 -9 -20 -12 -51 -10
l-47 4 3 -129 3 -128 61 -3 c67 -3 96 -23 108 -74 11 -47 -21 -68 -104 -68
-98 0 -88 -18 13 -23 l82 -3 -82 -2 c-46 -1 -83 -6 -83 -12 0 -5 37 -10 83
-12 l82 -3 3 -34 c2 -18 -1 -38 -7 -44 -8 -8 -11 0 -11 26 l0 37 -75 0 -75 0
0 -40 0 -40 178 0 c190 0 197 -2 215 -52 4 -10 11 -18 17 -18 14 0 12 11 -5
34 -13 17 -15 81 -15 397 l0 378 38 10 c20 6 55 11 77 11 62 0 69 10 38 53
-25 35 -25 37 -9 62 29 45 81 27 102 -35 8 -23 9 -22 14 15 5 39 6 40 49 43
74 5 91 -3 91 -44 0 -21 8 -47 20 -61 11 -14 20 -32 20 -39 0 -8 11 -14 25
-14 31 0 32 -13 3 -37 -22 -17 -23 -24 -20 -140 l3 -123 -31 0 -30 0 0 75 0
75 -94 0 c-86 0 -98 -2 -123 -24 l-28 -24 -3 -164 c-1 -89 1 -228 6 -308 9
-137 9 -129 11 155 1 366 -6 345 117 345 54 0 83 -4 79 -10 -3 -5 -35 -10 -70
-10 -104 0 -95 30 -95 -316 l0 -304 40 0 40 0 0 225 0 225 438 -2 437 -3 3
-51 c3 -51 3 -52 -31 -58 -19 -3 -52 -22 -74 -41 l-41 -35 -273 -2 -274 -3
-20 -32 c-17 -28 -26 -32 -62 -33 l-43 0 -1 43 -2 42 -6 -45 c-3 -25 -3 -88 0
-140 l5 -95 2 88 2 87 45 0 45 0 0 -85 c0 -50 4 -85 10 -85 6 0 10 41 10 103
0 88 3 106 18 120 16 15 50 17 270 17 217 0 252 -2 252 -15 0 -13 -34 -15
-244 -15 -134 0 -251 -3 -260 -6 -13 -5 -16 -24 -16 -105 l0 -99 60 0 60 0 0
95 c0 57 4 95 10 95 6 0 10 -38 10 -95 0 -95 0 -95 25 -95 l25 0 0 100 c0 66
4 100 11 100 7 0 10 -32 7 -100 l-3 -100 91 0 91 0 7 39 c7 47 54 91 96 91 29
0 32 4 45 66 8 40 56 97 99 118 42 20 118 21 155 1 38 -19 81 -71 88 -106 6
-33 7 -33 33 -19 23 12 87 -10 96 -34 4 -12 17 -14 55 -9 36 4 55 1 74 -11 34
-22 65 -74 65 -108 0 -23 4 -28 25 -28 l25 0 0 298 c0 356 -6 339 115 334 43
-2 76 2 80 8 17 28 25 2 25 -85 l0 -95 35 0 35 0 0 88 0 88 138 -3 c75 -2 158
-4 185 -6 32 -1 47 2 47 11 0 7 -14 12 -35 12 -22 0 -38 6 -41 15 -4 8 -12 15
-19 15 -18 0 -24 57 -20 185 2 61 4 122 4 138 l1 27 145 0 145 0 0 -210 0
-210 -265 0 -265 0 0 -150 0 -150 -90 0 -90 0 0 135 0 135 25 0 c24 0 25 -3
25 -60 0 -51 3 -60 18 -59 10 0 12 3 5 6 -9 3 -13 28 -13 74 l0 69 -72 -5
c-53 -3 -76 -9 -85 -22 -16 -21 -19 -583 -3 -583 6 0 11 107 12 287 2 225 6
287 16 291 9 3 12 -6 11 -29 -2 -19 -2 -150 -1 -291 l2 -258 25 0 c25 0 25 1
27 93 1 50 1 116 -1 144 l-3 53 96 0 c89 0 96 -2 96 -20 0 -17 -8 -20 -72 -23
l-73 -3 73 -2 72 -2 0 -120 c0 -73 4 -120 10 -120 6 0 10 90 10 250 0 243 1
250 20 250 11 0 20 5 20 10 0 6 -9 10 -20 10 -30 0 -28 55 3 64 12 3 142 6
289 6 l266 0 25 -42 c14 -24 41 -82 60 -131 l35 -87 -71 0 -72 0 -50 96 c-27
53 -56 101 -64 107 -7 6 7 -27 32 -73 25 -47 48 -95 52 -107 6 -22 3 -23 -40
-23 -85 0 -85 1 -85 -175 l0 -155 39 0 38 0 7 53 c3 28 6 67 6 85 l0 32 60 0
60 0 0 -85 0 -85 30 0 30 0 0 65 c0 53 3 65 16 65 13 0 15 -9 9 -65 l-7 -65
121 0 121 0 0 80 0 81 103 -3 102 -3 3 -77 c2 -60 6 -78 17 -78 12 0 15 18 15
89 0 107 5 113 91 109 l62 -3 0 -95 1 -95 3 88 c3 77 6 88 21 85 14 -3 17 -17
20 -91 l3 -87 29 0 30 0 0 91 0 92 53 -7 c28 -3 69 -6 90 -6 l37 0 0 -85 0
-85 38 0 c32 0 39 4 49 29 18 49 76 75 130 57 19 -6 23 -4 23 13 0 31 47 80
85 87 70 13 140 -27 152 -88 4 -23 8 -26 24 -18 44 24 92 2 122 -55 15 -29 16
-24 17 108 l0 139 -31 -26 c-48 -41 -59 -30 -11 12 37 33 42 42 42 80 0 45 -4
48 -46 31 l-28 -10 19 22 20 22 -31 -16 c-17 -9 -37 -23 -44 -32 -12 -14 -11
-16 11 -10 13 3 36 1 49 -4 22 -9 18 -10 -25 -9 -28 1 -60 -5 -72 -13 -20 -12
-23 -22 -23 -86 l0 -73 -40 21 -40 21 0 75 0 75 59 -4 59 -3 7 40 c3 21 11 45
17 52 15 18 -212 19 -230 1 -8 -8 -12 -52 -12 -130 0 -72 -4 -118 -10 -118
-15 0 -13 267 2 276 6 4 77 6 157 5 84 -1 157 2 171 8 18 8 -24 10 -158 8
-201 -2 -188 -7 -176 66 6 32 10 37 34 37 23 0 30 6 39 32 6 18 21 42 33 55
29 31 92 32 126 1 l25 -23 -12 22 c-28 54 5 136 69 172 51 28 132 28 180 0
l35 -21 -22 22 c-15 16 -37 24 -72 28 l-51 5 0 108 0 109 55 0 55 0 0 -49 0
-49 29 11 c45 17 64 4 57 -41 l-5 -37 17 45 c26 68 39 86 76 109 37 23 105 28
124 9 9 -9 12 75 12 380 l0 392 -190 0 c-162 0 -190 2 -190 15 0 13 29 15 193
17 112 1 149 4 89 5 l-104 4 7 52 c9 77 22 102 65 126 52 29 97 83 110 131 12
46 5 121 -17 163 -13 26 -12 28 12 37 14 5 25 14 25 19 0 6 -14 4 -32 -4 -18
-8 -32 -18 -31 -22 1 -4 10 -28 19 -53 11 -30 14 -62 11 -99 -10 -97 -72 -159
-177 -175 -53 -8 -70 -21 -70 -52 0 -26 -26 -44 -63 -44 -29 0 -37 15 -38 78
l-1 47 -16 -47 -17 -48 -132 -3 c-88 -2 -137 -7 -145 -15 -30 -30 -78 11 -78
68 0 64 64 129 115 116 19 -5 22 -2 17 19 -3 17 4 39 20 63 21 31 24 46 21 92
-4 46 -1 61 19 89 38 55 72 75 134 78 31 1 58 4 60 6 3 2 0 17 -7 33 -13 36
-4 140 17 195 27 67 103 119 154 106 13 -3 20 0 20 9 0 8 7 28 15 43 13 26 13
30 -10 50 -28 24 -31 47 -11 96 20 47 56 68 110 63 26 -2 41 1 36 6 -14 14
-87 8 -115 -10 -55 -36 -76 -129 -36 -161 35 -28 14 -65 -46 -82 -101 -26
-160 -134 -151 -273 l5 -68 -44 0 c-70 0 -133 -44 -154 -107 -6 -18 -14 -33
-19 -33 -5 0 -3 -21 5 -47 14 -45 13 -47 -10 -75 -14 -16 -25 -40 -25 -54 0
-19 -5 -24 -25 -24 -25 0 -25 0 -25 99 0 56 -4 103 -10 106 -6 4 -10 -35 -10
-108 0 -87 -3 -116 -13 -120 -20 -8 -47 -70 -47 -110 0 -19 8 -45 18 -57 18
-22 18 -23 -5 -48 -17 -19 -23 -37 -23 -71 0 -35 -5 -49 -20 -59 -11 -7 -20
-23 -20 -36 0 -13 -7 -29 -15 -36 -13 -11 -15 22 -15 289 0 194 -4 301 -10
301 -6 0 -10 -106 -10 -298 l0 -299 -25 -23 c-15 -14 -25 -35 -25 -51 0 -18
-6 -28 -20 -32 -15 -4 -20 -14 -20 -40 0 -34 -1 -34 -52 -43 -51 -9 -53 -10
-56 -43 -2 -18 1 -38 7 -44 7 -7 11 -63 11 -144 l0 -133 -34 0 c-31 0 -34 3
-41 36 -3 20 -5 162 -4 315 1 154 -1 282 -4 286 -8 7 -149 4 -156 -3 -3 -3 0
-9 8 -13 10 -7 9 -10 -3 -14 -13 -5 -16 -26 -16 -130 0 -188 -12 -427 -22
-427 -4 0 -8 65 -8 145 0 139 -1 147 -23 169 -13 13 -30 25 -38 28 -11 4 -15
48 -17 252 -4 236 -3 247 15 245 10 -1 26 1 35 5 30 13 62 2 83 -30 11 -17 26
-29 32 -27 7 3 23 -14 38 -36 14 -23 28 -41 31 -41 13 0 -31 57 -79 103 l-50
49 -53 -7 -54 -6 0 55 c0 55 1 57 45 88 44 31 45 33 45 85 0 56 -1 57 -70 65
l-25 3 -3 491 -2 492 25 16 c22 15 25 23 25 81 0 37 -4 65 -10 65 -5 0 -10
-12 -10 -26 0 -16 -5 -24 -12 -21 -14 4 -16 92 -3 139 6 23 2 33 -28 63 -39
39 -78 45 -126 21 -25 -14 -51 -53 -51 -78 0 -6 -7 -20 -17 -30 -9 -11 -11
-18 -5 -18 8 0 12 -18 12 -48 0 -39 -4 -49 -22 -57 -33 -14 -34 -50 -4 -94
l26 -37 0 -481 0 -480 -66 -7 c-96 -10 -105 -16 -98 -74 5 -38 13 -54 45 -82
l38 -35 7 -411 c6 -341 5 -416 -7 -443 -8 -17 -17 -31 -20 -31 -4 0 -9 69 -12
152 -3 84 -10 169 -16 189 -17 56 -57 86 -141 108 -67 17 -76 22 -88 50 -7 18
-26 40 -42 49 l-30 17 0 361 0 361 50 31 50 31 0 84 c0 48 5 88 11 94 15 15
-29 57 -73 69 l-33 10 -3 132 -3 131 38 20 c67 34 71 43 64 155 l-6 100 -42
20 -42 21 -1 61 c0 77 9 126 24 121 6 -3 26 1 43 9 44 18 88 4 130 -42 43 -48
53 -37 19 20 -26 44 -82 96 -104 96 -23 0 -72 52 -72 76 0 14 -7 36 -16 49 -8
13 -14 36 -12 52 l4 28 11 -25 c6 -14 23 -36 37 -49 14 -14 26 -35 26 -48 0
-17 9 -27 36 -38 20 -8 41 -12 47 -8 5 3 7 2 4 -4 -3 -5 8 -20 26 -33 25 -19
29 -19 16 -4 -21 26 -16 63 10 83 22 17 85 38 131 45 17 2 25 9 25 22 0 14 15
24 62 40 34 11 68 26 76 32 10 8 22 9 38 4 15 -6 30 -5 41 1 13 9 22 7 38 -8
12 -11 24 -19 27 -18 8 2 23 27 23 38 0 6 -4 4 -9 -3 -10 -17 -34 97 -25 124
20 62 67 103 102 89 13 -5 10 -9 -15 -20 -59 -25 -96 -124 -58 -155 13 -11 26
-11 71 0 43 11 60 11 75 2 10 -6 25 -9 33 -6 14 5 76 -24 76 -36 0 -3 30 -5
67 -4 l67 1 33 69 c18 38 33 73 33 79 0 6 -16 19 -35 29 -19 10 -42 28 -52 39
-11 12 2 7 35 -14 29 -18 57 -40 62 -49 5 -10 4 -46 -2 -88 -9 -61 -15 -76
-40 -97 -16 -14 -24 -25 -18 -25 18 0 68 29 82 48 11 15 59 42 74 42 3 0 4
-105 3 -232 -2 -228 -2 -234 -25 -261 -25 -30 -30 -57 -15 -86 8 -13 4 -19
-19 -29 -16 -7 -36 -29 -45 -49 -15 -31 -16 -41 -5 -74 11 -33 11 -41 -2 -56
-26 -30 -58 -102 -42 -96 8 3 14 12 14 21 0 9 12 33 26 54 26 36 27 47 10 103
-11 35 28 82 81 99 29 9 39 15 25 15 -32 1 -48 46 -27 78 9 13 27 28 41 33 13
5 24 12 24 15 0 4 -5 3 -11 0 -7 -5 -9 3 -7 21 2 24 10 31 46 43 38 12 45 11
61 -3 16 -15 19 -15 36 4 22 25 62 26 89 3 21 -18 21 -18 2 5 -12 13 -30 22
-48 22 -27 0 -28 2 -28 45 0 25 -4 45 -8 45 -16 0 -52 -47 -52 -68 0 -16 -8
-23 -27 -27 -16 -3 -41 -12 -56 -20 -15 -8 11 22 59 67 l86 82 -6 166 c-6 155
-6 163 9 135 29 -55 40 -60 72 -38 36 25 133 40 144 21 9 -14 99 -22 99 -9 0
10 39 3 57 -11 6 -5 23 -6 37 -2 20 5 34 -1 61 -24 l34 -31 -35 -11 c-78 -26
-135 -124 -119 -207 13 -75 82 -143 145 -143 17 0 21 -4 15 -17 -4 -10 -10
-26 -12 -35 -3 -10 -8 -18 -12 -18 -10 0 -11 -78 -1 -106 16 -42 -6 -91 -44
-98 -113 -23 -189 -172 -140 -277 10 -23 13 -26 9 -9 -15 62 -16 100 -5 136
25 78 84 132 150 137 19 1 30 7 30 17 0 9 7 25 15 38 12 16 13 27 5 41 -15 28
-12 103 5 144 8 20 29 47 46 59 17 13 38 37 47 53 14 28 14 29 -1 17 -9 -8
-19 -22 -22 -33 -4 -10 -23 -23 -44 -30 -86 -26 -162 37 -169 140 -7 95 41
165 123 178 30 5 33 8 33 43 1 49 23 91 64 124 18 14 27 26 20 26 -25 0 -80
-65 -92 -109 -13 -50 -27 -49 -55 2 -17 31 -18 41 -8 79 9 35 9 46 -3 59 -7 8
-19 29 -25 46 -24 70 41 172 113 176 23 1 41 10 57 30 12 15 18 27 12 27 -6 0
-20 15 -31 33 -34 55 -22 148 24 186 14 12 16 45 16 227 l0 214 -395 0 c-365
0 -420 -4 -385 -25 6 -3 10 -18 10 -33 0 -25 -2 -24 -26 16 l-25 42 -134 0
-134 0 24 -36 c17 -24 25 -51 25 -78 l0 -41 26 30 25 30 -15 -32 c-20 -41 -59
-70 -110 -83 -71 -18 -95 -31 -126 -67 -39 -44 -39 -78 2 -120 18 -18 28 -33
22 -33 -13 0 -56 29 -71 48 -17 20 -16 80 1 111 20 36 91 79 152 91 66 14 82
35 65 90 -6 21 -20 49 -32 64 l-20 26 -413 0 -413 0 4 -47 c3 -34 -1 -58 -14
-82 -18 -33 -18 -34 -98 -37 -44 -1 -100 -7 -125 -13 -34 -8 -48 -7 -60 3 -29
24 -45 28 -19 4 l26 -24 -34 -39 c-31 -36 -39 -40 -83 -41 -97 -2 -177 -78
-186 -176 l-4 -43 10 38 c27 103 97 167 184 167 17 0 37 -5 44 -12 9 -9 12 -8
12 4 0 22 46 75 81 94 32 16 175 29 221 19 16 -4 49 -22 73 -41 32 -24 56 -34
80 -34 106 0 195 -110 195 -239 0 -64 -12 -105 -38 -134 -11 -12 -15 -32 -13
-58 2 -33 -2 -44 -29 -69 -18 -17 -42 -30 -54 -30 -11 0 -28 -5 -36 -10 -12
-8 -11 -10 6 -10 11 0 31 -12 45 -26 20 -21 24 -36 24 -88 0 -54 -4 -68 -29
-100 -47 -62 -144 -94 -198 -65 -19 10 -25 6 -55 -30 -38 -45 -50 -49 -68 -25
-9 13 -9 3 -1 -45 7 -45 7 -74 -2 -107 -7 -24 -12 -104 -12 -177 l0 -133 -167
0 c-93 1 -187 -2 -210 -7 l-43 -7 0 247 c0 276 3 290 71 368 27 31 29 36 9 22
-24 -17 -80 -92 -80 -109 0 -19 -20 -6 -35 22 -17 34 -21 180 -4 197 7 7 -11
12 -60 16 -138 11 -195 75 -195 217 0 64 4 83 28 127 39 70 89 104 169 113 44
5 56 9 42 14 -11 4 -32 13 -48 18 -68 26 -99 148 -48 189 23 19 25 19 44 2 18
-16 18 -15 -2 13 -27 37 -44 105 -35 139 6 25 6 25 -70 25 l-76 0 0 -27 c0
-46 -44 -126 -93 -169 -56 -49 -110 -67 -191 -62 l-61 3 -3 -37 c-3 -30 2 -41
24 -60 91 -76 114 -102 129 -149 41 -121 -30 -237 -154 -254 l-50 -7 20 -31
c10 -18 19 -42 19 -54 0 -19 6 -23 31 -23 79 0 147 -89 134 -176 -3 -24 -10
-46 -16 -49 -18 -12 1 -23 42 -23 22 -1 52 -8 65 -17 14 -9 28 -13 33 -11 5 3
15 -2 22 -12 13 -15 12 -16 -3 -3 -24 18 -23 6 3 -28 48 -65 31 -162 -34 -201
-45 -28 -81 -26 -97 5 -9 17 -16 21 -21 14 -9 -15 -2 -36 23 -68 28 -36 23
-87 -11 -121 -16 -16 -41 -32 -57 -36 -42 -10 -45 -23 -18 -69 28 -48 31 -101
8 -133 -26 -38 -47 -43 -90 -23 -43 21 -129 51 -145 51 -24 0 5 -20 54 -36 63
-20 143 -60 152 -74 14 -22 -4 -20 -39 4 -20 13 -60 32 -89 42 -29 9 -58 21
-64 27 -16 12 -17 2 -3 -24 20 -37 29 -113 18 -162 -17 -83 -89 -145 -154
-133 -19 4 -41 2 -52 -5 -20 -12 -20 -13 0 -51 33 -63 3 -148 -67 -189 -20
-12 -35 -29 -35 -39 0 -26 -47 -60 -84 -60 l-31 -1 27 -14 c15 -8 29 -23 31
-32 4 -14 2 -109 -2 -144 -1 -3 -19 -16 -42 -28 -28 -16 -48 -21 -66 -16 l-26
6 29 18 c16 10 36 26 44 37 11 15 9 14 -10 -3 -14 -12 -38 -27 -54 -32 -18 -7
-26 -16 -23 -25 3 -8 -1 -20 -8 -26 -13 -10 -12 -16 5 -37 24 -31 26 -73 4
-114 -19 -37 -93 -71 -143 -67 -33 3 -38 0 -56 -37 -15 -30 -27 -41 -48 -43
-24 -3 -25 -5 -12 -18 8 -9 15 -24 15 -34 0 -21 -33 -44 -53 -37 -6 2 -19 -5
-27 -16 -11 -13 -28 -19 -53 -19 -26 0 -40 -6 -48 -19 -8 -17 -22 -19 -104
-19 -102 0 -105 2 -85 54 7 20 16 26 40 26 21 0 30 5 30 17 0 9 10 28 23 42
l22 25 -25 -16 c-14 -8 -26 -25 -28 -37 -5 -29 -36 -23 -40 7 -4 25 23 62 45
62 8 0 13 13 13 38 0 46 23 82 54 82 19 0 22 -5 19 -37 -2 -37 -2 -37 6 -7 11
44 19 54 42 54 11 0 17 5 14 10 -12 19 7 52 38 65 27 12 29 14 9 15 -27 0 -62
-33 -62 -59 0 -28 -30 -35 -54 -12 -28 28 -25 85 6 118 18 20 31 24 61 21 33
-3 37 -1 37 20 0 30 43 72 74 72 24 0 24 1 9 30 -13 28 -13 34 5 68 18 35 33
45 92 56 23 5 25 9 22 45 -6 62 42 113 97 102 7 -1 10 2 6 8 -19 32 -98 -11
-115 -64 -7 -20 -10 -45 -7 -55 4 -16 -2 -21 -28 -26 -45 -8 -85 -53 -92 -101
-4 -27 -12 -42 -27 -49 -11 -5 -29 -25 -38 -44 -18 -34 -18 -28 -18 258 0 253
2 292 15 292 8 0 15 5 15 10 0 6 -4 10 -9 10 -5 0 -6 29 -3 65 5 74 -3 91 -53
101 -33 6 -34 7 -40 69 -6 56 -11 65 -39 85 l-31 21 28 -25 c33 -30 37 -67 7
-59 -29 8 -50 42 -50 81 0 26 6 36 30 50 34 19 36 25 15 42 -12 10 -15 10 -15
0 0 -7 -14 -28 -30 -47 -35 -39 -37 -57 -11 -99 l19 -32 -29 -4 -29 -5 0 114
c0 108 1 113 21 113 11 0 29 -4 39 -10 17 -9 17 -7 8 23 -13 42 5 111 37 142
12 13 42 29 66 35 64 15 72 22 92 76 21 57 20 53 18 82 l-1 23 -30 -23 c-24
-17 -35 -20 -48 -12 -15 10 -17 46 -22 377 l-5 365 -25 27 c-63 67 -160 84
-243 41 -34 -17 -47 -20 -47 -10 0 26 75 54 142 54 97 -1 171 -43 197 -113 7
-18 11 -153 11 -373 0 -272 3 -345 13 -342 8 3 13 42 15 137 3 132 3 132 21
109 14 -17 16 -27 9 -36 -8 -9 -7 -11 6 -6 14 5 17 17 14 54 -2 28 1 46 6 42
5 -3 7 2 3 11 -3 9 -3 16 1 15 4 -2 18 5 32 14 18 13 45 17 98 16 40 -1 67 -5
60 -9 -6 -4 -15 -6 -19 -3 -11 6 -21 -14 -14 -27 5 -7 11 -5 18 4 23 29 53 29
86 1 26 -21 31 -33 31 -67 0 -61 -35 -112 -78 -114 -39 -1 -39 -2 -44 -28 -2
-17 2 -20 27 -18 34 3 121 -24 146 -45 11 -8 32 -11 57 -9 30 4 42 1 46 -10 4
-9 13 -12 28 -8 23 6 23 6 -2 -17 -46 -42 -33 -140 23 -169 12 -6 23 -13 25
-14 2 -2 -8 -20 -23 -40 -27 -40 -31 -77 -15 -120 18 -47 1 -60 -78 -60 -84 0
-131 -27 -163 -93 -44 -90 -9 -195 78 -234 42 -19 44 -21 28 -38 -9 -10 -20
-30 -24 -46 -5 -19 -17 -31 -40 -39 -53 -18 -81 -57 -81 -116 0 -27 3 -49 8
-49 4 0 7 22 7 49 0 63 31 101 82 101 28 0 33 3 33 25 0 36 19 71 47 86 24 13
24 13 -17 25 -60 18 -90 41 -111 87 -21 48 -23 68 -9 119 22 78 114 132 185
108 32 -11 36 -9 70 24 24 24 30 36 20 36 -41 0 -39 111 3 142 9 7 18 24 20
38 3 32 57 88 107 111 52 24 142 25 175 2 30 -20 41 -36 58 -83 l12 -35 -5 35
c-12 78 -77 125 -163 115 -70 -7 -121 -34 -169 -89 -43 -49 -61 -49 -88 4 -25
49 0 111 53 131 21 8 23 14 17 48 -15 88 41 178 123 200 49 14 81 7 142 -27
35 -20 42 -21 30 -7 -21 25 -89 55 -128 55 -37 0 -97 -23 -124 -47 -24 -22
-61 -5 -83 37 -13 24 -20 29 -39 24 -28 -7 -91 18 -124 49 -59 55 -84 178 -53
269 12 35 80 108 102 108 6 0 8 9 4 20 -7 23 17 74 53 113 25 27 25 27 4 27
-30 0 -73 68 -80 125 -3 30 1 61 13 91 13 33 14 49 6 57 -18 18 -24 1 -28 -83
-5 -93 7 -139 47 -177 l29 -27 -20 -27 c-11 -15 -26 -43 -33 -61 l-14 -33 -50
50 c-103 103 -109 266 -14 368 14 15 31 27 36 27 6 0 17 4 25 9 10 7 10 12 -5
30 -18 20 -27 21 -221 21 -192 0 -202 -1 -208 -20 -10 -32 17 -73 64 -97 54
-27 81 -51 93 -82 6 -17 5 -27 -4 -33 -19 -12 -28 -10 -28 7 0 8 -12 22 -26
32 -89 61 -134 118 -134 168 0 25 -1 25 -85 25 -47 0 -85 -4 -85 -9 0 -4 -15
-13 -32 -19 l-33 -10 38 -1 c47 -1 48 -17 2 -25 -48 -9 -51 -22 -4 -18 24 3
39 0 39 -7 0 -6 -10 -11 -22 -11 -13 -1 -34 -7 -48 -15 -14 -8 -28 -14 -32
-15 -5 0 -8 29 -8 65 l0 65 -330 0 -330 0 0 -472z m633 415 c-7 -2 -21 -2 -30
0 -10 3 -4 5 12 5 17 0 24 -2 18 -5z m7 -23 c0 -5 -11 -10 -25 -10 -14 0 -25
5 -25 10 0 6 11 10 25 10 14 0 25 -4 25 -10z m772 -42 c-7 -7 -12 -8 -12 -2 0
14 12 26 19 19 2 -3 -1 -11 -7 -17z m-653 -12 c-2 -2 -22 -6 -44 -9 -27 -4
-35 -3 -25 3 14 9 79 15 69 6z m61 -36 c0 -16 -4 -30 -10 -30 -11 0 -14 43 -3
53 11 12 13 8 13 -23z m3625 11 c3 -6 -16 -13 -42 -16 -27 -4 -56 -9 -65 -12
-30 -8 -20 7 15 22 37 16 83 19 92 6z m-3716 -16 c-26 -7 -52 -15 -58 -19 -6
-4 -11 -1 -11 8 0 17 20 24 75 24 l40 0 -46 -13z m3692 -25 c21 0 39 -4 39 -9
0 -4 -21 -8 -47 -7 -27 1 -58 -3 -70 -7 -17 -6 -23 -5 -23 7 0 15 26 26 48 20
8 -2 31 -4 53 -4z m-3573 -34 c43 -22 41 -39 -3 -20 -50 21 -153 18 -198 -5
-29 -15 -37 -16 -37 -5 0 8 15 24 33 35 26 17 44 20 102 16 39 -2 85 -11 103
-21z m3590 -12 l22 -15 0 -539 0 -540 -51 -57 c-29 -32 -56 -62 -60 -68 -5 -5
-9 259 -9 602 l0 611 28 10 c38 14 45 14 70 -4z m-3308 -318 c0 -270 -2 -315
-15 -320 -13 -5 -15 34 -15 308 0 172 3 316 7 319 3 4 10 7 15 7 4 0 8 -141 8
-314z m40 -11 c0 -203 -4 -315 -10 -315 -6 0 -10 112 -10 315 0 203 4 315 10
315 6 0 10 -112 10 -315z m-426 273 c-12 -40 -45 -49 -80 -23 -19 15 -19 15 0
30 11 8 35 15 54 15 30 0 33 -2 26 -22z m16 -68 c0 -38 -2 -40 -30 -40 -26 0
-30 4 -30 28 0 20 7 32 23 40 34 17 37 15 37 -28z m-80 -16 c0 -19 -4 -34 -10
-34 -5 0 -10 11 -10 24 0 13 -3 32 -6 40 -5 12 -2 15 10 10 10 -4 16 -18 16
-40z m3247 -36 c-3 -8 -6 -5 -6 6 -1 11 2 17 5 13 3 -3 4 -12 1 -19z m-3094
-75 c29 -17 32 -24 35 -76 l3 -56 -53 4 -53 4 47 -12 c25 -7 50 -16 55 -20 4
-5 -6 -5 -22 0 -17 4 -74 8 -128 8 l-98 0 3 70 c3 69 4 70 38 88 43 22 125 17
173 -10z m3194 -95 c39 -38 57 -87 49 -133 -7 -37 -50 -95 -71 -95 -7 0 -24
-9 -38 -20 -14 -11 -27 -20 -29 -20 -2 0 -1 21 1 46 3 42 5 46 27 41 26 -5 57
23 68 60 13 41 -12 99 -57 138 -39 33 -40 35 -12 25 17 -6 45 -25 62 -42z
m-3130 -50 c-3 -7 -5 -2 -5 12 0 14 2 19 5 13 2 -7 2 -19 0 -25z m-117 -17
c37 -7 28 -8 -51 -9 -53 0 -106 -5 -117 -11 -27 -14 -39 -14 -25 0 25 25 113
34 193 20z m120 -314 c0 -258 2 -306 16 -325 13 -19 13 -22 0 -22 -8 0 -17 4
-20 8 -3 5 -46 9 -95 11 l-91 2 0 -135 0 -136 -25 0 -25 0 0 145 0 145 98 0
c60 0 102 -4 109 -11 20 -20 24 44 21 343 -2 157 0 284 5 281 4 -2 7 -140 7
-306z m-110 283 c47 0 80 -4 73 -8 -6 -4 -14 -24 -18 -45 -6 -29 -11 -37 -23
-32 -34 13 -147 24 -150 15 -2 -6 -15 -10 -28 -10 -21 0 -24 4 -24 39 0 33 4
40 23 44 12 3 31 3 42 1 11 -2 58 -4 105 -4z m-190 -45 c0 -19 -4 -35 -10 -35
-11 0 -14 53 -3 63 11 12 13 8 13 -28z m377 -187 c-2 -35 -3 -7 -3 62 0 69 1
97 3 63 2 -35 2 -91 0 -125z m110 150 c-3 -7 -5 -2 -5 12 0 14 2 19 5 13 2 -7
2 -19 0 -25z m-292 -19 c64 -16 75 -34 22 -35 -29 -1 -36 1 -22 6 17 6 14 9
-16 15 -32 6 -205 -14 -266 -31 -34 -9 -28 12 7 26 64 27 206 36 275 19z m-37
-26 c-10 -2 -26 -2 -35 0 -10 3 -2 5 17 5 19 0 27 -2 18 -5z m325 -74 c-4 -4
-6 13 -3 39 l5 47 3 -39 c2 -21 0 -42 -5 -47z m-453 -49 c0 -88 -2 -100 -17
-101 -17 -1 -17 -2 0 -6 14 -4 17 -17 17 -89 l0 -84 -60 0 -60 0 0 180 c0 178
0 180 23 184 106 23 97 30 97 -84z m182 74 l58 -17 0 -163 c0 -125 -3 -164
-12 -164 -7 0 -38 7 -68 15 -30 8 -72 15 -92 15 l-38 0 0 65 0 65 33 2 32 1
-32 4 -33 4 0 95 0 94 47 0 c26 0 73 -7 105 -16z m1523 -78 c44 -10 85 -27 85
-36 0 -4 -19 -4 -41 1 -52 12 -60 5 -20 -16 31 -16 43 -56 21 -70 -5 -3 -10 3
-10 15 0 15 -11 25 -35 36 -22 9 -35 21 -35 33 0 10 -10 31 -22 47 l-23 29 25
-16 c14 -9 39 -19 55 -23z m175 10 c0 -2 -7 -7 -16 -10 -8 -3 -12 -2 -9 4 6
10 25 14 25 6z m1987 -48 c-3 -7 -5 -2 -5 12 0 14 2 19 5 13 2 -7 2 -19 0 -25z
m-3480 -10 c-3 -8 -6 -5 -6 6 -1 11 2 17 5 13 3 -3 4 -12 1 -19z m3923 -44 c0
-19 -4 -33 -8 -30 -8 5 -4 66 4 66 2 0 4 -16 4 -36z m-1570 -7 c0 -2 -10 -12
-22 -23 l-23 -19 19 23 c18 21 26 27 26 19z m-220 -61 c0 -2 -7 -7 -16 -10 -8
-3 -12 -2 -9 4 6 10 25 14 25 6z m-1593 -88 c-2 -13 -4 -3 -4 22 0 25 2 35 4
23 2 -13 2 -33 0 -45z m1023 -216 l0 -219 -38 -11 c-71 -21 -82 -41 -82 -141
0 -106 13 -128 95 -162 l55 -23 0 -117 0 -117 -28 -7 c-15 -3 -42 -14 -60 -25
l-32 -20 0 -100 0 -100 42 -30 c22 -16 47 -30 55 -30 9 0 13 -15 13 -49 0 -27
2 -55 5 -63 3 -8 -10 -19 -35 -30 -34 -14 -40 -21 -42 -50 -1 -18 -3 -44 -4
-58 -1 -14 -2 -127 -3 -252 l-1 -228 -64 0 c-35 0 -84 3 -110 6 l-46 7 0 518
c0 398 3 524 13 540 10 18 9 23 -16 44 -39 35 -100 48 -189 42 l-78 -5 0 29
c0 28 2 29 48 29 26 0 53 -4 61 -9 10 -7 20 -2 33 15 11 13 27 24 37 24 26 0
61 -29 61 -50 0 -10 4 -21 9 -24 16 -10 -1 38 -22 62 -24 26 -60 29 -84 5 -15
-15 -32 -17 -90 -15 l-73 4 0 36 c0 23 8 44 22 59 18 19 20 27 10 48 -6 14
-16 25 -21 25 -5 0 7 16 26 35 33 33 35 39 31 86 -3 28 -14 62 -25 77 l-20 27
51 25 c67 33 93 78 79 131 -9 36 -9 38 16 44 78 19 125 82 120 160 -2 24 0 47
4 51 4 4 7 0 7 -9 0 -9 7 -17 15 -17 9 0 15 -7 13 -16 -4 -22 16 -29 33 -11
16 16 38 11 56 -12 8 -10 15 -12 20 -6 11 14 42 13 51 -2 4 -6 19 -14 33 -18
30 -7 39 10 39 78 0 20 2 37 5 37 3 0 5 -98 5 -218z m-1870 168 c0 -5 -28 -11
-62 -11 -35 -1 -126 -4 -203 -8 l-140 -6 -3 -372 c-1 -237 -6 -373 -12 -373
-6 0 -10 53 -11 133 -2 223 3 632 8 640 7 11 423 9 423 -3z m-82 -187 l-3
-138 -58 -3 -58 -3 3 128 c3 125 4 128 28 140 14 7 40 13 58 13 l33 0 -3 -137z
m365 92 c-19 -57 -34 -67 -26 -18 4 30 25 63 39 63 2 0 -4 -20 -13 -45z m-523
-15 c0 -11 -21 -11 -65 0 -27 7 -25 8 18 9 26 0 47 -3 47 -9z m471 -23 c-1 -4
-1 -14 -1 -22 0 -8 -4 -15 -10 -15 -5 0 -10 12 -10 26 0 14 5 24 11 22 6 -2
10 -7 10 -11z m-481 -45 c27 -33 25 -58 -5 -87 -61 -62 -155 10 -114 86 22 43
86 43 119 1z m1668 13 c-3 -3 -9 2 -12 12 -6 14 -5 15 5 6 7 -7 10 -15 7 -18z
m1531 -21 c19 -16 31 -35 31 -50 0 -24 -1 -24 -30 -9 -27 14 -37 14 -88 1 -31
-8 -59 -13 -60 -11 -9 8 12 50 36 72 33 30 73 29 111 -3z m-31 -136 l3 -58
-58 -1 c-56 -2 -57 -2 -18 -9 l40 -8 -45 2 -45 1 -3 56 c-3 49 0 57 20 67 13
6 41 10 63 9 l40 -2 3 -57z m-3128 -72 c0 -73 -4 -127 -10 -131 -6 -4 -10 40
-10 124 0 81 4 131 10 131 6 0 10 -48 10 -124z m130 -161 c0 -174 -2 -205 -15
-205 -12 0 -15 23 -18 123 l-3 122 -2 -127 -2 -128 -42 0 -41 0 6 199 c3 110
8 205 12 210 3 6 28 11 56 11 l49 0 0 -205z m80 68 c0 -156 -4 -179 -31 -186
-18 -5 -19 2 -19 159 l0 164 25 0 25 0 0 -137z m75 127 c13 -5 14 -9 5 -9 -8
0 -24 4 -35 9 -13 5 -14 9 -5 9 8 0 24 -4 35 -9z m2152 -20 c104 -12 155 -25
184 -49 21 -17 14 -16 -51 6 -57 20 -103 27 -192 31 l-118 5 0 -52 c0 -28 -4
-51 -10 -51 -5 0 -10 23 -10 50 l0 50 -42 -6 c-65 -9 -159 -33 -189 -48 -23
-11 -27 -11 -22 0 11 30 181 71 303 73 36 0 102 -3 147 -9z m721 -17 c-10 -2
-28 -2 -40 0 -13 2 -5 4 17 4 22 1 32 -1 23 -4z m-871 -70 c-2 -16 -4 -5 -4
22 0 28 2 40 4 28 2 -13 2 -35 0 -50z m703 57 c-20 -13 -33 -13 -25 0 3 6 14
10 23 10 15 0 15 -2 2 -10z m-650 -40 c0 -29 -4 -40 -15 -40 -11 0 -15 11 -15
40 0 29 4 40 15 40 11 0 15 -11 15 -40z m30 0 c0 -22 -4 -40 -10 -40 -5 0 -10
18 -10 40 0 22 5 40 10 40 6 0 10 -18 10 -40z m785 29 c24 -7 21 -7 -17 -4
-45 4 -120 -5 -163 -21 -16 -5 -18 -4 -8 6 24 26 127 36 188 19z m-935 -39 c0
-40 0 -40 -37 -40 -21 0 -48 -3 -60 -6 -21 -6 -23 -3 -23 34 0 44 6 48 83 51
37 1 37 1 37 -39z m227 -22 c-2 -13 -4 -3 -4 22 0 25 2 35 4 23 2 -13 2 -33 0
-45z m153 29 c8 -3 0 -6 -17 -6 -23 -1 -33 4 -33 14 0 12 5 13 18 7 9 -5 24
-12 32 -15z m-523 -34 c-3 -10 -5 -2 -5 17 0 19 2 27 5 18 2 -10 2 -26 0 -35z
m-17 -2 c0 -6 -4 -11 -10 -11 -5 0 -10 4 -10 9 0 5 -3 18 -7 28 -6 17 -6 17
10 1 9 -9 17 -21 17 -27z m1068 18 c2 -13 -8 -17 -50 -21 -29 -3 -61 -9 -70
-13 -15 -6 -18 -2 -18 18 0 30 15 36 85 34 37 -2 51 -6 53 -18z m-1121 -51
c-2 -13 -4 -3 -4 22 0 25 2 35 4 23 2 -13 2 -33 0 -45z m632 15 c-1 -53 -6
-49 -11 10 -2 20 0 37 4 37 4 0 8 -21 7 -47z m-29 7 c0 -20 -5 -30 -15 -30
-29 0 -18 50 13 59 1 1 2 -12 2 -29z m-43 -12 c-3 -7 -5 -2 -5 12 0 14 2 19 5
13 2 -7 2 -19 0 -25z m563 -514 c0 -336 -3 -514 -10 -514 -5 0 -10 7 -10 15 0
12 -13 15 -55 15 l-55 0 0 474 c0 275 4 485 9 500 10 26 40 34 94 27 l27 -3 0
-514z m-625 501 c84 -22 145 -51 145 -69 0 -13 -5 -13 -32 4 -62 37 -165 53
-326 48 -152 -5 -251 -27 -294 -65 -17 -15 -18 -14 -18 5 0 26 27 44 95 65 72
23 85 24 235 26 94 1 154 -4 195 -14z m-2530 -15 c10 -16 -15 -40 -41 -40 -19
0 -24 -5 -24 -24 0 -19 6 -26 28 -29 25 -4 25 -4 -5 -6 l-33 -1 0 -65 c0 -37
-4 -65 -10 -65 -6 0 -10 40 -10 100 0 87 3 103 20 120 21 21 65 27 75 10z m19
-38 c3 -5 -1 -9 -9 -9 -8 0 -12 4 -9 9 3 4 7 8 9 8 2 0 6 -4 9 -8z m6 -117 c0
-60 -3 -75 -15 -75 -12 0 -15 15 -15 75 0 60 3 75 15 75 12 0 15 -15 15 -75z
m305 67 c6 -4 16 -15 24 -24 12 -17 9 -18 -53 -18 l-66 0 12 25 c8 19 19 25
42 25 17 0 36 -4 41 -8z m2192 -37 c23 -15 23 -17 23 -240 l0 -225 -42 7 c-24
5 -112 8 -195 7 l-153 0 0 218 0 217 29 16 c66 34 286 34 338 0z m-2277 -50
c0 -19 -4 -35 -10 -35 -5 0 -10 16 -10 35 0 19 5 35 10 35 6 0 10 -16 10 -35z
m70 0 c0 -31 -3 -35 -25 -35 -14 0 -25 6 -25 13 0 6 -3 22 -6 35 -6 19 -3 22
25 22 29 0 31 -2 31 -35z m-100 -5 c0 -16 -4 -30 -10 -30 -5 0 -10 14 -10 30
0 17 5 30 10 30 6 0 10 -13 10 -30z m218 -8 c2 -24 -1 -32 -12 -32 -12 0 -16
10 -16 36 0 45 24 42 28 -4z m-251 6 c-3 -8 -6 -5 -6 6 -1 11 2 17 5 13 3 -3
4 -12 1 -19z m200 -20 c-3 -7 -5 -2 -5 12 0 14 2 19 5 13 2 -7 2 -19 0 -25z
m93 -8 c0 -31 -3 -38 -15 -34 -9 4 -15 19 -15 40 0 24 5 34 15 34 11 0 15 -11
15 -40z m-137 -17 c-29 -2 -77 -2 -105 0 -29 2 -6 3 52 3 58 0 81 -1 53 -3z
m90 -10 c-7 -2 -19 -2 -25 0 -7 3 -2 5 12 5 14 0 19 -2 13 -5z m1117 -553 c0
-309 -4 -540 -9 -540 -5 0 -9 233 -10 540 -1 368 1 540 9 540 7 0 10 -173 10
-540z m-38 37 c2 -218 0 -397 -4 -397 -5 0 -7 201 -6 448 1 246 3 425 5 397 1
-27 4 -229 5 -448z m-1234 196 l-3 -258 -47 -3 -48 -3 0 254 c0 139 3 257 7
260 3 4 26 7 50 7 l43 0 -2 -257z m-118 227 c0 -6 -33 -10 -77 -11 -91 0 -209
-12 -219 -21 -3 -4 -9 -22 -13 -40 -4 -20 -15 -37 -29 -43 l-22 -10 0 -322 c0
-280 -2 -323 -15 -323 -13 0 -15 43 -15 330 0 279 2 330 14 330 22 0 46 29 46
54 0 27 26 52 60 59 52 9 270 7 270 -3z m1180 -359 l0 -330 -32 -4 c-28 -3
-26 -4 12 -6 25 -1 58 -7 73 -14 24 -10 15 -12 -73 -12 -77 0 -96 2 -77 10 21
8 22 12 11 23 -11 10 -14 69 -14 300 0 158 3 296 6 308 6 23 50 53 77 54 16 0
17 -22 17 -329z m67 27 c-1 -57 -3 -11 -3 102 0 113 2 159 3 103 2 -57 2 -149
0 -205z m263 -75 c0 -394 7 -583 21 -583 5 0 9 216 9 480 0 333 3 480 11 480
6 0 19 -5 30 -10 18 -10 19 -27 19 -540 l0 -530 -31 0 c-17 0 -28 4 -24 10 4
6 -21 10 -67 10 -54 1 -69 3 -55 11 23 13 22 45 -3 66 -19 17 -20 30 -20 494
0 261 3 479 7 482 3 4 28 7 54 7 l48 0 1 -377z m-1510 142 l0 -225 -30 0 -30
0 0 225 0 225 30 0 30 0 0 -225z m1975 146 c-15 -13 -85 -34 -92 -27 -3 3 9
12 28 20 38 17 79 21 64 7z m499 -5 c19 -8 37 -19 40 -25 4 -6 -11 -2 -34 8
-65 29 -70 44 -6 17z m-19 -24 c16 -11 17 -34 3 -43 -22 -15 -28 -10 -28 21 0
30 6 36 25 22z m-555 -71 c0 -33 -4 -63 -10 -66 -6 -4 -10 18 -10 59 0 37 4
66 10 66 6 0 10 -26 10 -59z m70 44 c0 -17 -2 -18 -25 -9 -13 5 -14 8 -3 15
19 13 28 11 28 -6z m-19 -25 c29 -16 25 -57 -6 -62 -23 -5 -25 -2 -25 33 0 42
2 44 31 29z m559 -40 c0 -27 -4 -50 -10 -50 -5 0 -10 23 -10 50 0 28 5 50 10
50 6 0 10 -22 10 -50z m-40 -4 c0 -29 -3 -33 -20 -29 -25 7 -26 38 -2 52 9 6
18 11 20 11 1 0 2 -15 2 -34z m-2555 14 c-11 -5 -34 -9 -52 -9 -33 -1 -63 -23
-63 -47 0 -8 -7 -14 -15 -14 -8 0 -15 -5 -15 -12 0 -6 -3 -9 -6 -6 -9 10 23
75 43 87 10 6 43 10 73 10 40 0 49 -3 35 -9z m1075 -115 l0 -95 -58 0 c-56 0
-57 0 -68 34 -10 31 -8 35 13 45 13 6 31 26 40 46 9 19 22 35 29 35 6 0 17 7
24 15 7 8 14 15 16 15 2 0 4 -43 4 -95z m1444 54 c39 -13 71 -29 73 -35 2 -7
-18 -4 -52 8 -85 28 -207 41 -330 35 -104 -6 -205 -27 -232 -49 -10 -8 -13 -6
-13 6 0 18 42 42 97 56 21 5 117 8 213 6 156 -2 183 -5 244 -27z m-2614 -19
c0 -5 -10 -10 -22 -9 -22 0 -22 1 -3 9 11 5 21 9 23 9 1 1 2 -3 2 -9z m-10
-123 c0 -97 -8 -127 -32 -127 -4 0 -8 52 -8 115 0 108 1 115 20 115 19 0 20
-7 20 -103z m2533 82 c21 -5 40 -16 43 -22 2 -7 3 -257 2 -557 l-3 -545 -27
80 c-15 44 -27 72 -28 61 0 -10 14 -59 31 -110 17 -50 33 -112 36 -137 4 -36
11 -50 29 -60 30 -16 54 -51 56 -86 2 -15 12 -36 24 -48 18 -18 24 -19 40 -9
10 7 31 10 47 7 l27 -5 0 -114 0 -114 -40 0 c-42 0 -60 18 -60 59 0 12 -4 21
-10 21 -5 0 -10 -7 -10 -15 0 -7 -8 -18 -17 -24 -14 -7 -25 0 -56 35 l-39 44
-236 2 c-131 1 -182 4 -114 5 67 2 122 8 122 13 0 5 -46 6 -108 3 -106 -6
-108 -5 -109 16 -4 50 -48 62 -148 42 -36 -8 -31 -9 40 -11 l80 -3 -65 -8
c-36 -5 -73 -6 -82 -3 -12 3 -18 0 -18 -9 0 -12 9 -14 40 -10 36 5 40 3 40
-16 0 -20 -4 -21 -140 -21 l-140 0 0 -80 0 -80 -35 0 c-30 0 -39 5 -53 32 -9
17 -29 45 -44 62 l-26 31 -239 3 -238 3 -46 -52 c-27 -30 -51 -49 -58 -45 -6
4 -11 36 -11 77 l0 69 -139 0 c-147 0 -184 -7 -195 -36 -6 -17 -5 -16 14 1 11
10 23 15 27 12 3 -4 -6 -18 -20 -31 -25 -23 -27 -32 -27 -101 0 -43 -4 -75
-10 -75 -6 0 -10 43 -10 110 0 156 -8 151 212 148 l172 -3 13 -25 c7 -14 13
-19 13 -11 0 8 7 23 17 33 14 15 33 18 135 18 66 0 128 -5 139 -10 15 -9 19
-7 19 6 0 24 30 43 66 44 35 0 84 -33 85 -58 0 -9 5 -2 12 16 16 45 59 72 87
54 21 -13 27 -3 9 15 -17 17 -1 52 34 74 23 13 27 19 14 19 -22 0 -67 -43 -67
-65 0 -9 -4 -13 -10 -10 -16 10 -11 97 8 134 27 55 63 75 132 76 53 0 60 2 65
23 11 42 74 101 127 117 95 28 172 -6 202 -89 8 -23 15 -34 15 -26 0 8 -7 33
-17 55 -15 36 -17 78 -14 413 l3 372 48 0 48 0 6 -122 c4 -66 7 -231 7 -365 0
-220 7 -284 24 -220 9 36 6 728 -4 772 -5 22 -18 47 -30 57 -17 14 -20 28 -20
96 0 54 4 83 13 91 36 29 248 36 340 10z m-1343 -304 c0 -162 -2 -195 -14
-195 -8 0 -21 -3 -30 -6 -14 -5 -16 12 -16 152 0 197 -2 204 -46 204 -22 0
-34 5 -34 13 0 23 11 27 77 27 l63 0 0 -195z m-990 45 l0 -80 -33 0 c-43 0
-77 -25 -77 -56 0 -13 -6 -24 -12 -25 -10 0 -10 -2 -1 -6 9 -3 13 -40 12 -134
l0 -129 -29 0 -28 0 5 108 c3 59 8 109 10 112 3 3 3 -32 1 -77 -2 -57 0 -79 7
-70 6 7 9 49 7 100 l-3 87 -37 -1 c-25 -1 -29 -3 -14 -6 23 -5 23 -5 16 -121
-3 -64 -11 -123 -17 -130 -6 -7 -22 -12 -36 -10 l-26 3 0 210 c1 186 3 214 19
241 30 51 61 63 154 64 l82 0 0 -80z m110 -35 l0 -115 -50 0 -50 0 0 115 0
115 50 0 50 0 0 -115z m1888 43 l3 -48 -50 0 c-50 0 -51 0 -51 31 0 52 16 71
58 67 37 -3 37 -4 40 -50z m-2478 -89 c0 -46 -4 -79 -10 -79 -6 0 -10 35 -10
86 0 54 4 83 10 79 6 -3 10 -42 10 -86z m1337 83 c14 -9 15 -80 7 -344 -5
-177 -6 -188 -25 -188 -18 0 -19 10 -19 270 0 276 1 285 37 262z m2251 -28
c23 -5 29 -11 28 -28 -1 -21 -4 -21 -43 -12 -31 7 -43 14 -43 28 0 19 10 21
58 12z m-348 -25 c0 -14 -6 -19 -17 -17 -10 1 -24 -1 -30 -5 -9 -6 -13 -2 -13
12 0 18 6 21 53 30 4 0 7 -8 7 -20z m90 11 c0 -5 -6 -10 -12 -11 -7 0 -23 -2
-35 -5 -16 -3 -23 1 -23 11 0 10 11 15 35 15 19 0 35 -4 35 -10z m63 -7 c-7
-2 -21 -2 -30 0 -10 3 -4 5 12 5 17 0 24 -2 18 -5z m190 -43 c20 -6 37 -16 37
-22 0 -6 -8 -7 -17 -3 -85 33 -320 32 -407 -1 -14 -5 -17 -3 -14 7 8 25 105
39 238 34 69 -2 142 -9 163 -15z m-2303 -310 c0 -206 -3 -300 -11 -300 -7 0
-9 49 -7 153 l3 152 -32 -3 -33 -4 0 -159 c0 -99 -4 -159 -10 -159 -6 0 -10
82 -10 225 l0 225 -50 0 c-39 0 -50 3 -50 16 0 11 5 14 16 10 9 -3 43 -7 77
-7 34 -1 54 -3 45 -6 -15 -4 -18 -16 -18 -64 l0 -59 36 0 c21 0 33 4 29 10 -6
10 5 270 11 270 2 0 4 -135 4 -300z m407 223 l3 -53 -75 0 -75 0 0 49 c0 57 5
60 90 58 l55 -2 2 -52z m43 22 c0 -8 -7 -15 -15 -15 -8 0 -15 7 -15 15 0 8 7
15 15 15 8 0 15 -7 15 -15z m-1292 -41 c5 -54 10 -59 35 -38 l22 19 -19 -22
c-10 -13 -22 -20 -26 -18 -4 3 -7 -42 -6 -100 0 -58 -2 -105 -6 -105 -7 0 -14
220 -9 258 1 8 -4 21 -11 29 -11 14 -11 15 2 11 8 -2 16 -18 18 -34z m-380 19
c-32 -2 -86 -2 -120 0 -35 2 -9 3 57 3 66 0 94 -1 63 -3z m130 0 c-10 -2 -26
-2 -35 0 -10 3 -2 5 17 5 19 0 27 -2 18 -5z m-147 -23 c111 0 168 -3 164 -10
-4 -6 -69 -10 -164 -10 -154 0 -182 5 -180 35 0 5 3 4 6 -2 3 -10 48 -13 174
-13z m3403 4 c13 -12 16 -40 16 -140 0 -124 0 -125 25 -134 l25 -10 -2 -312
-3 -313 -65 -3 -65 -2 -18 39 c-15 32 -18 64 -17 173 2 200 1 203 -10 192 -7
-7 -10 -72 -8 -182 2 -95 1 -174 -2 -175 -3 -2 0 -3 6 -1 6 1 17 -9 23 -22 12
-28 11 -29 -56 -38 -41 -6 -42 -6 -41 24 1 19 9 37 22 46 11 7 15 14 8 14 -18
0 -18 825 1 837 11 7 77 19 124 22 12 0 29 -6 37 -15z m-1717 -55 c43 -6 83
-15 88 -21 7 -8 2 -9 -15 -4 -44 11 -254 19 -303 12 l-47 -7 0 -53 c0 -45 -3
-54 -20 -59 -18 -5 -20 0 -20 58 l0 64 58 6 c31 3 64 8 72 9 33 8 113 5 187
-5z m-657 -69 c0 -49 -4 -70 -12 -71 -10 0 -10 -2 0 -6 6 -2 12 -20 12 -39 0
-27 -4 -34 -20 -34 -11 0 -20 -4 -20 -10 0 -5 9 -10 20 -10 11 0 20 -4 20 -10
0 -5 -16 -10 -35 -10 -34 0 -35 1 -35 39 0 36 3 40 28 43 24 4 25 5 8 13 -25
11 -56 -26 -56 -66 l0 -29 -109 0 c-61 0 -112 4 -115 8 -3 5 -2 18 1 30 4 16
13 22 35 22 16 0 48 10 71 22 23 12 49 24 57 28 8 4 16 23 18 44 2 20 8 36 13
36 5 0 19 16 30 35 17 29 27 35 55 35 l34 0 0 -70z m-956 29 c27 -21 35 -64
14 -72 -8 -3 -6 -6 5 -6 18 -1 20 -5 11 -37 -4 -16 -12 -19 -33 -16 -23 3 -27
8 -23 28 6 32 -15 80 -46 104 l-25 20 35 0 c21 0 46 -9 62 -21z m1544 -30 l3
-47 -45 -4 -46 -3 0 53 0 53 43 -3 42 -3 3 -46z m-111 -36 c-2 -16 -4 -3 -4
27 0 30 2 43 4 28 2 -16 2 -40 0 -55z m-429 -149 c-3 -187 -8 -239 -22 -223
-2 2 -6 102 -8 221 -4 207 -4 216 14 215 18 -1 19 -12 16 -213z m372 169 c0
-25 -2 -44 -4 -42 -8 10 -13 89 -5 89 5 0 9 -21 9 -47z m308 25 c15 -15 16
-38 2 -38 -5 0 -10 9 -10 19 0 11 -6 22 -12 24 -7 3 -8 6 -2 6 5 1 15 -4 22
-11z m-291 -50 c-2 -13 -4 -5 -4 17 -1 22 1 32 4 23 2 -10 2 -28 0 -40z m270
5 c-3 -10 -5 -4 -5 12 0 17 2 24 5 18 2 -7 2 -21 0 -30z m50 -10 c-3 -10 -5
-2 -5 17 0 19 2 27 5 18 2 -10 2 -26 0 -35z m2936 20 c-20 -13 -23 -24 -23
-79 0 -36 -4 -64 -10 -64 -6 0 -10 30 -10 70 0 55 3 71 18 79 29 17 50 12 25
-6z m-2953 -54 c61 -9 90 -22 79 -34 -3 -2 -23 0 -44 6 -48 13 -274 17 -374 6
-59 -7 -72 -6 -69 5 3 7 22 16 44 19 67 10 296 9 364 -2z m2700 1 c15 -5 -21
-8 -95 -8 -75 0 -109 3 -90 8 40 10 153 10 185 0z m-3260 -82 c0 -111 -12
-238 -21 -232 -5 3 -9 72 -9 155 0 126 2 149 15 149 12 0 15 -15 15 -72z
m3435 45 c-4 -16 -7 -28 -8 -28 -1 -1 -9 -6 -19 -13 -23 -18 -68 -5 -68 19 0
11 6 21 13 23 6 2 26 8 42 14 45 15 48 14 40 -15z m-317 8 c66 0 102 -7 102
-21 0 -12 -144 -18 -152 -6 -5 7 -8 7 -8 -1 0 -7 -6 -13 -14 -13 -8 0 -17 -3
-19 -7 -3 -5 43 -8 101 -8 l107 0 0 -287 c0 -181 3 -284 10 -278 13 14 298 13
290 0 -4 -6 -60 -10 -136 -10 l-129 0 0 -61 c0 -47 5 -67 21 -87 l21 -27 -46
-3 c-40 -3 -46 -6 -46 -26 0 -37 -106 -124 -137 -112 -8 4 -13 13 -9 21 3 8 1
15 -4 15 -15 0 -12 -36 4 -49 17 -14 10 -44 -15 -67 -25 -23 -37 -10 -15 15
10 11 16 26 13 33 -4 9 -6 8 -6 -3 -1 -9 -8 -22 -16 -29 -8 -7 -15 -24 -15
-39 0 -44 -30 -69 -83 -69 -18 0 -34 -8 -43 -21 -19 -27 -38 -27 -31 -1 3 11
1 18 -4 14 -5 -3 -9 -16 -9 -29 0 -18 4 -23 15 -19 22 9 19 -22 -4 -45 -11
-11 -17 -22 -13 -25 3 -3 -40 -6 -96 -6 l-102 0 0 -25 c0 -25 0 -25 -92 -25
-93 0 -93 0 -110 30 -15 27 -22 30 -68 30 -27 0 -50 3 -50 8 0 12 36 62 56 77
10 8 29 15 42 15 19 0 21 4 15 28 -29 113 36 201 141 190 26 -3 55 -13 64 -21
16 -15 17 -2 14 209 l-3 224 40 0 41 0 0 -80 c0 -48 -4 -80 -10 -80 -7 0 -7
-6 -1 -18 6 -11 7 -64 2 -138 -4 -65 -4 -123 1 -129 14 -15 9 -82 -7 -95 -8
-7 -15 -23 -15 -35 0 -17 -8 -25 -27 -30 -41 -10 -53 -24 -53 -60 0 -21 8 -38
23 -51 22 -19 22 -19 5 2 -38 44 -9 104 49 104 17 0 23 6 23 23 0 39 38 106
64 113 17 4 22 11 19 24 -5 18 28 60 47 60 6 0 15 -11 20 -25 14 -37 20 -30 8
11 -5 20 -7 48 -3 63 4 14 7 109 8 211 1 180 1 181 4 37 4 -148 4 -148 26
-141 12 4 34 20 48 35 36 38 99 41 132 5 l22 -24 -3 222 -3 221 30 30 c18 17
31 39 31 53 0 14 8 31 18 38 15 12 15 13 -5 7 -16 -4 -24 -15 -29 -40 -6 -34
-32 -59 -69 -65 -12 -2 -19 2 -17 10 1 8 -2 11 -8 7 -8 -5 -6 -13 5 -25 22
-24 16 -74 -9 -78 -10 -2 -22 2 -26 8 -5 8 -12 -1 -20 -24 -11 -35 -50 -66
-83 -66 -8 0 -22 18 -31 41 -12 30 -21 39 -32 35 -9 -3 -25 -7 -37 -7 -12 -1
-4 -5 18 -9 l40 -7 -46 -2 c-25 0 -50 -6 -56 -12 -20 -20 -45 -2 -41 28 2 22
9 29 30 31 23 3 26 6 19 21 -18 32 -2 57 54 81 47 21 52 26 44 42 -14 26 7 51
38 45 23 -4 23 -3 8 19 -23 36 -19 81 11 110 21 22 31 25 62 20 20 -3 65 -6
100 -5z m-3978 -31 c0 -6 -35 -10 -85 -10 -50 0 -85 4 -85 10 0 6 35 10 85 10
50 0 85 -4 85 -10z m1070 -90 c0 -79 0 -80 25 -80 19 0 32 -10 48 -37 l22 -38
3 118 3 117 33 0 c48 0 116 -39 137 -80 13 -23 19 -55 19 -97 0 -62 0 -63 -27
-63 -20 -1 -8 -9 45 -29 95 -38 102 -45 102 -97 l0 -44 -70 0 c-89 0 -84 1
-93 -16 -4 -8 -23 -14 -40 -14 -18 0 -38 -5 -45 -12 -14 -14 -11 -16 -45 44
-47 82 -52 83 -369 83 -253 0 -277 1 -281 17 -10 38 18 43 197 40 l171 -4 23
31 c14 20 39 36 70 45 26 8 38 15 27 15 -30 1 -101 -34 -114 -56 -8 -15 -10
-9 -11 30 0 60 24 87 79 87 44 0 51 12 51 93 0 45 1 47 20 37 17 -9 20 -21 20
-90z m88 -22 c-1 -100 -1 -101 -7 -33 -3 39 -5 85 -3 103 8 62 12 31 10 -70z
m337 -78 c14 0 25 -2 25 -4 0 -2 3 -11 6 -19 4 -12 -1 -13 -28 -8 l-33 7 -1
104 0 105 3 -92 c4 -91 4 -93 28 -93z m-1245 160 c0 -6 -32 -10 -76 -10 -47 0
-73 4 -69 10 3 6 37 10 76 10 39 0 69 -4 69 -10z m-162 -47 c12 -43 11 -49 -5
-61 -10 -7 -28 -11 -41 -9 -17 3 -26 -3 -37 -24 -8 -15 -15 -38 -15 -51 0 -43
-9 -46 -151 -47 l-135 0 7 68 c9 78 27 120 65 150 24 19 40 21 163 21 l137 0
12 -47z m240 40 c-10 -2 -26 -2 -35 0 -10 3 -2 5 17 5 19 0 27 -2 18 -5z
m1282 -10 c0 -2 -11 -8 -26 -13 -14 -6 -29 -23 -35 -40 -8 -22 -17 -30 -35
-30 -22 0 -24 4 -24 46 l0 45 60 -2 c33 -1 60 -4 60 -6z m-1370 -98 l0 -85
-27 -1 -28 -1 25 -7 c16 -4 26 -14 28 -28 3 -22 0 -23 -62 -23 l-66 0 0 115 0
115 65 0 65 0 0 -85z m1510 -5 l0 -91 -102 3 -102 3 -8 33 c-6 22 -14 32 -28
32 -11 0 -20 5 -20 10 0 6 13 10 29 10 24 0 31 6 40 31 17 48 37 58 119 59
l72 0 0 -90z m55 79 c12 -19 -5 -23 -22 -6 -16 16 -16 17 -1 17 9 0 20 -5 23
-11z m-1125 -9 c0 -6 -55 -10 -145 -10 -90 0 -145 4 -145 10 0 6 55 10 145 10
90 0 145 -4 145 -10z m1290 0 c0 -6 -30 -10 -69 -10 -39 0 -73 5 -76 10 -4 6
22 10 69 10 44 0 76 -4 76 -10z m-1020 -18 c0 -9 -9 -23 -20 -30 -18 -11 -20
-10 -20 18 0 23 4 30 20 30 12 0 20 -7 20 -18z m3266 -29 c-3 -21 -6 -125 -6
-230 0 -122 -4 -193 -10 -193 -6 0 -10 83 -10 230 0 206 2 230 16 230 14 0 15
-7 10 -37z m274 -163 c0 -104 0 -193 0 -197 -1 -5 14 -11 32 -14 30 -6 28 -7
-14 -8 -29 0 -48 -6 -48 -13 0 -6 -3 -9 -6 -5 -3 3 -3 11 1 18 12 18 11 99 0
99 -6 0 -9 -69 -6 -195 4 -194 3 -195 -18 -195 -11 0 -21 -4 -21 -10 0 -6 -55
-10 -145 -10 l-145 0 0 -119 0 -119 -27 -10 c-42 -14 -93 -72 -105 -117 -10
-38 -13 -40 -43 -37 -47 6 -88 -20 -110 -67 -11 -25 -25 -41 -36 -41 -54 0 45
112 133 150 32 14 58 31 58 38 0 19 65 82 84 82 13 0 16 20 18 133 l3 132 158
0 157 0 0 123 0 122 -90 0 -90 0 0 225 0 225 130 0 130 0 0 -190z m-2520 165
c0 -12 -16 -15 -80 -15 -64 0 -80 3 -80 15 0 12 16 15 80 15 64 0 80 -3 80
-15z m585 -27 c12 -39 55 -75 103 -89 64 -17 98 -43 114 -85 10 -29 14 -32 20
-17 5 11 6 6 3 -16 -3 -18 -5 -52 -5 -74 l0 -40 -21 27 c-34 43 -95 32 -124
-24 -10 -20 -15 -59 -15 -130 0 -78 -3 -100 -14 -100 -18 0 -32 18 -40 52 -3
15 -20 43 -36 62 l-30 34 0 221 c0 216 0 221 19 211 11 -5 23 -20 26 -32z
m808 25 c-13 -2 -33 -2 -45 0 -13 2 -3 4 22 4 25 0 35 -2 23 -4z m-2683 -68
l0 -64 -59 2 c-49 2 -64 -2 -83 -19 -12 -12 -42 -25 -65 -29 -41 -6 -42 -6
-45 27 -2 28 -7 34 -30 36 -17 2 -28 9 -28 18 0 11 6 13 21 9 15 -5 19 -4 15
4 -4 6 -14 11 -22 11 -9 0 -14 11 -14 35 l0 35 155 0 155 0 0 -65z m2680 35
c0 -5 -18 -10 -40 -10 -22 0 -40 5 -40 10 0 6 18 10 40 10 22 0 40 -4 40 -10z
m60 -290 c0 -260 -2 -300 -15 -300 -13 0 -15 39 -15 293 0 162 3 297 7 300 3
4 10 7 15 7 4 0 8 -135 8 -300z m-3320 102 c0 -104 -3 -224 -7 -266 -6 -76 -6
-77 -32 -74 l-26 3 -3 254 c-3 271 -3 271 46 271 l22 0 0 -188z m1870 138 l0
-30 -85 0 -85 0 0 30 0 30 85 0 85 0 0 -30z m728 9 c25 -7 54 -25 68 -42 32
-38 22 -48 -14 -15 -15 15 -49 33 -76 41 -28 7 -52 19 -54 26 -3 9 2 11 14 8
11 -3 38 -11 62 -18z m612 -214 c0 -218 -1 -225 -20 -225 -19 0 -20 7 -20 225
0 218 1 225 20 225 19 0 20 -7 20 -225z m-3637 131 c-22 -30 -33 -33 -33 -7 0
19 43 55 48 40 2 -4 -5 -20 -15 -33z m745 17 c2 -8 -6 -13 -22 -13 -17 0 -26
5 -26 16 0 19 41 16 48 -3z m1552 2 c0 -13 -28 -15 -211 -15 l-210 0 7 -70 c5
-49 3 -70 -5 -70 -7 0 -11 25 -11 70 l0 70 -39 0 c-21 0 -60 3 -87 8 -45 6
-42 7 46 12 52 3 188 7 303 8 180 2 207 1 207 -13z m-1990 -25 c0 -6 -57 -10
-151 -10 -97 0 -148 4 -144 10 4 6 65 10 151 10 89 0 144 -4 144 -10z m425
-12 c14 -6 25 -15 25 -20 0 -5 8 -7 18 -4 9 3 30 8 46 12 l28 7 -26 -45 c-14
-25 -26 -49 -26 -54 0 -5 9 6 20 24 l20 32 143 0 144 0 -24 -47 c-21 -42 -24
-59 -21 -131 l3 -82 -57 0 -57 0 1 -31 c1 -32 -22 -59 -48 -59 -7 0 -24 -11
-37 -24 -16 -16 -32 -23 -45 -20 -15 4 -21 -1 -26 -21 -4 -14 -18 -31 -31 -37
-16 -7 -25 -19 -25 -34 0 -13 -8 -25 -18 -28 -11 -4 -18 -16 -17 -33 0 -14 -4
-28 -10 -30 -6 -2 -11 48 -13 132 l-4 135 29 1 28 1 -27 10 -28 10 0 174 c0
96 2 174 5 174 2 0 16 -5 30 -12z m-165 -42 c0 -43 1 -45 33 -49 23 -3 16 -5
-23 -7 -30 -1 -45 -5 -32 -7 21 -4 22 -9 22 -89 l0 -84 -65 0 -65 0 0 140 0
140 65 0 65 0 0 -44z m1730 40 c0 -3 -4 -8 -10 -11 -5 -3 -10 -1 -10 4 0 6 5
11 10 11 6 0 10 -2 10 -4z m-2250 -137 c0 -84 -4 -128 -10 -124 -6 4 -10 56
-10 124 0 103 4 131 17 131 2 0 3 -59 3 -131z m206 104 c-3 -10 -10 -64 -17
-119 l-12 -102 -36 -6 c-20 -3 -55 -6 -78 -6 l-43 0 0 125 0 125 96 0 c86 0
95 -2 90 -17z m1694 -33 c0 -27 -4 -50 -10 -50 -11 0 -14 59 -4 84 10 27 14
18 14 -34z m-1960 32 c0 -5 -11 -14 -25 -20 -24 -11 -25 -14 -25 -117 l0 -105
-31 0 -31 0 5 63 c7 93 23 149 47 169 23 19 60 24 60 10z m4290 -7 c0 -11 -11
-15 -37 -15 -49 0 -28 20 30 29 4 0 7 -6 7 -14z m-2806 -41 c45 -44 52 -70 48
-199 l-3 -105 -27 1 c-15 1 -20 3 -11 6 11 2 18 17 21 39 l4 34 -197 0 -197 0
-11 48 c-13 55 -2 136 26 183 l18 29 147 -1 147 -1 35 -34z m2596 1 c0 -10
-10 -15 -30 -15 -20 0 -30 5 -30 15 0 10 10 15 30 15 20 0 30 -5 30 -15z m210
-122 l0 -134 -32 6 c-23 4 -45 0 -70 -13 l-38 -20 0 129 c0 103 3 129 14 129
8 0 24 9 37 19 14 12 38 19 57 19 l32 -1 0 -134z m-4300 -120 c0 -163 -4 -243
-10 -233 -13 20 -13 480 0 480 6 0 10 -94 10 -247z m4009 233 c-2 -2 -40 -6
-84 -10 -54 -5 -77 -4 -70 3 6 5 42 11 80 13 68 3 83 2 74 -6z m-849 -111 c0
-70 -4 -115 -10 -115 -5 0 -10 21 -10 48 0 56 11 182 16 182 2 0 4 -52 4 -115z
m393 13 c4 -46 7 -102 7 -126 0 -39 -2 -43 -22 -40 -22 3 -23 7 -26 136 -2
127 -2 133 16 123 15 -8 20 -26 25 -93z m327 57 c0 -8 -4 -15 -10 -15 -5 0
-10 7 -10 15 0 8 5 15 10 15 6 0 10 -7 10 -15z m120 5 c0 -6 -18 -10 -39 -10
-22 0 -46 -3 -55 -6 -10 -4 -16 -1 -16 7 0 10 17 15 55 16 31 1 55 -2 55 -7z
m83 -182 c3 -108 1 -197 -4 -203 -5 -5 -9 -15 -9 -23 0 -14 -27 -41 -42 -42
-5 0 -8 104 -8 230 l0 230 29 0 28 0 6 -192z m-2108 172 c19 -5 -22 -8 -107
-9 -82 -1 -139 3 -143 9 -7 12 204 12 250 0z m1125 -8 c13 -11 20 -24 16 -30
-5 -9 -11 -8 -22 3 -18 18 -30 13 -37 -15 -4 -14 0 -20 11 -20 34 -1 52 -26
52 -71 0 -40 -4 -45 -33 -59 -20 -9 -33 -24 -35 -38 -3 -17 -9 -22 -25 -20
-20 3 -22 10 -25 83 -4 99 3 140 29 166 24 24 41 24 69 1z m-1365 -22 c-3 -5
-30 -10 -58 -10 -29 0 -57 -4 -64 -8 -23 -15 -33 -65 -33 -168 0 -68 -4 -103
-10 -99 -6 4 -10 57 -10 127 0 111 2 124 22 145 18 20 31 23 90 23 44 0 67 -4
63 -10z m2265 -245 c0 -150 -4 -235 -10 -235 -6 0 -10 85 -10 235 0 150 4 235
10 235 6 0 10 -85 10 -235z m-2250 205 c0 -5 -25 -10 -55 -10 -30 0 -55 5 -55
10 0 6 25 10 55 10 30 0 55 -4 55 -10z m-20 -119 l0 -99 -32 10 c-18 6 -39 12
-45 14 -9 2 -13 28 -13 83 l0 80 38 4 c20 2 40 4 45 5 4 1 7 -43 7 -97z m3160
-46 c0 -141 -1 -145 -44 -129 -13 5 -16 25 -16 119 0 62 3 120 6 129 3 9 17
16 30 16 l24 0 0 -135z m-4592 98 c-10 -2 -28 -2 -40 0 -13 2 -5 4 17 4 22 1
32 -1 23 -4z m-95 -25 c62 0 97 -3 80 -5 -32 -4 -33 -5 -33 -54 l0 -49 -57 -2
-58 -2 58 -3 57 -4 0 -70 c0 -64 -1 -69 -16 -55 -8 9 -19 16 -24 16 -5 0 5
-13 22 -30 16 -16 39 -30 52 -30 23 0 63 -24 83 -49 9 -13 6 -18 -18 -28 -28
-12 -47 -52 -34 -72 9 -15 -18 -14 -33 1 -9 9 -12 9 -12 0 0 -8 -20 -12 -60
-12 -53 0 -60 2 -60 20 0 18 -7 20 -55 20 -50 0 -56 -2 -65 -25 -9 -23 -14
-25 -80 -25 l-71 0 3 28 c2 22 8 28 36 30 18 2 30 7 27 12 -5 8 15 43 60 107
8 12 31 27 50 34 23 9 34 18 30 27 -3 7 -5 61 -5 118 0 68 -4 103 -10 99 -5
-3 -10 -1 -10 5 0 7 7 9 16 6 9 -3 66 -7 127 -8z m387 -158 l0 -170 -59 0
c-44 0 -60 4 -65 16 -3 9 -6 85 -6 170 l0 154 65 0 65 0 0 -170z m4029 63 c-2
-81 -2 -84 -9 -38 -12 72 -12 125 0 125 6 0 9 -35 9 -87z m-1419 47 c0 -6 -6
-10 -12 -9 -37 5 -78 -3 -92 -17 -14 -13 -16 -61 -16 -370 0 -229 -4 -354 -10
-354 -6 0 -10 127 -10 360 0 347 1 361 20 380 15 15 33 20 70 20 28 0 50 -5
50 -10z m338 -207 l2 -173 -115 0 -115 0 -1 58 c-1 31 -3 100 -5 152 -7 149
-14 141 119 138 l112 -3 3 -172z m-378 36 l0 -119 -30 0 c-22 0 -30 5 -30 18
0 9 -3 34 -6 55 -6 35 -5 37 19 37 30 0 39 10 28 29 -6 9 -11 10 -15 2 -15
-24 -26 -8 -26 39 0 43 3 52 23 59 12 5 25 7 30 4 4 -2 7 -58 7 -124z m40 76
c0 -30 -4 -55 -10 -55 -5 0 -10 25 -10 55 0 30 5 55 10 55 6 0 10 -25 10 -55z
m30 0 c0 -30 -4 -55 -10 -55 -5 0 -10 25 -10 55 0 30 5 55 10 55 6 0 10 -25
10 -55z m-2780 -74 c0 -87 -1 -89 -25 -95 -14 -4 -30 -4 -35 -1 -6 4 -10 46
-10 96 l0 89 35 0 35 0 0 -89z m3408 37 c-3 -22 -7 -23 -118 -26 -120 -2 -145
4 -134 31 5 15 24 17 131 17 123 0 124 0 121 -22z m-1558 -18 c0 -11 -7 -20
-15 -20 -8 0 -15 9 -15 20 0 11 7 20 15 20 8 0 15 -9 15 -20z m50 16 c0 -2 -3
-11 -6 -20 -9 -23 -24 -20 -24 4 0 11 7 20 15 20 8 0 15 -2 15 -4z m850 -380
l0 -344 35 -27 c35 -26 36 -29 33 -83 l-3 -57 -35 0 c-32 0 -35 3 -38 33 l-3
32 -118 0 -117 0 -23 47 c-18 37 -20 48 -9 55 10 8 9 9 -3 5 -11 -4 -25 15
-51 74 l-36 79 77 0 77 0 41 -42 c22 -24 67 -77 99 -118 l59 -75 -3 382 c-2
262 0 383 8 383 7 0 10 -112 10 -344z m90 47 c-1 -164 -1 -305 -1 -313 1 -11
15 -15 56 -17 l54 -1 3 46 c3 46 4 47 40 50 l37 3 3 -48 3 -48 45 0 45 0 3 48
3 48 144 -3 145 -3 0 -97 0 -98 -40 0 -40 0 0 60 0 60 -80 0 -80 0 0 -60 0
-60 -87 -1 c-116 -1 -175 -10 -181 -29 -4 -12 -2 -13 9 -2 10 9 74 12 251 12
131 0 238 -2 238 -5 0 -3 -17 -39 -37 -81 l-37 -76 -176 3 c-96 2 -190 0 -207
-4 -26 -7 -33 -5 -33 6 0 20 -42 56 -47 40 -3 -9 -24 -12 -61 -11 l-57 2 53 3
c28 2 52 8 52 14 0 5 -7 9 -15 9 -13 0 -15 9 -9 50 6 48 5 51 -30 84 l-36 35
0 340 0 341 36 0 36 0 -2 -297z m-1270 52 c0 -143 -4 -225 -10 -225 -6 0 -10
82 -10 225 0 143 4 225 10 225 6 0 10 -82 10 -225z m250 195 c0 -18 -8 -20
-102 -22 l-103 -3 -3 -172 c-1 -104 -6 -173 -12 -173 -6 0 -10 75 -10 195 l0
195 115 0 c108 0 115 -1 115 -20z m70 5 c0 -17 -2 -18 -24 -9 -23 9 -20 24 4
24 11 0 20 -7 20 -15z m429 2 c6 -8 8 -17 4 -20 -3 -4 -87 -7 -185 -7 -171 0
-178 1 -178 20 0 19 7 20 174 20 133 0 176 -3 185 -13z m-945 -18 c15 -11 36
-38 46 -60 l20 -39 -294 0 c-180 0 -297 4 -301 10 -7 12 19 64 46 91 18 18 34
19 238 19 206 0 220 -1 245 -21z m-602 -211 l2 -193 3 153 c3 144 5 152 23
152 20 0 20 -6 18 -192 l-3 -193 -241 -3 -240 -2 4 -30 c3 -18 0 -30 -7 -30
-6 0 -11 17 -11 38 0 29 7 45 28 64 47 44 80 61 107 54 20 -5 25 -3 25 13 0
35 22 69 53 82 26 11 35 10 71 -9 50 -27 61 -27 86 -2 18 18 20 33 20 136 0
122 8 154 40 154 19 0 20 -9 22 -192z m1723 170 c8 -19 19 -24 58 -26 70 -5
57 -22 -18 -22 -55 0 -66 3 -75 21 -9 15 -8 24 1 35 16 19 23 18 34 -8z
m-1795 -7 c-5 -11 -10 -69 -10 -128 0 -109 -7 -133 -38 -133 -9 0 -11 7 -6 23
8 24 9 126 1 134 -3 2 -42 -3 -88 -12 -46 -8 -127 -22 -179 -30 -94 -15 -95
-14 -113 7 -22 26 -14 37 11 15 10 -10 21 -15 23 -13 3 3 74 17 159 31 193 32
190 31 190 60 0 14 11 32 26 44 33 26 38 26 24 2z m1130 -146 c0 -138 -3 -167
-15 -171 -39 -15 -5 -24 95 -24 67 0 110 -4 110 -10 0 -6 -45 -10 -114 -10
-90 0 -116 3 -126 16 -22 26 -50 36 -81 29 -16 -4 -29 -13 -29 -21 0 -8 -4
-14 -9 -14 -5 0 -23 -3 -40 -6 -27 -6 -31 -4 -31 15 0 14 6 21 20 21 19 0 20
7 20 170 l0 170 100 0 100 0 0 -165z m150 -5 c0 -107 -4 -170 -10 -170 -6 0
-10 63 -10 170 0 107 4 170 10 170 6 0 10 -63 10 -170z m-1990 146 c0 -9 -30
-14 -35 -6 -4 6 3 10 14 10 12 0 21 -2 21 -4z m2431 -85 c14 -17 19 -40 19
-82 0 -64 -2 -61 91 -118 49 -31 59 -53 59 -135 l0 -41 -26 33 c-25 32 -26 32
-115 32 -58 0 -88 4 -84 10 3 6 50 10 106 10 99 0 100 0 94 23 -7 24 -16 32
-90 80 l-50 32 -5 67 c-3 37 -11 73 -17 80 -7 6 -12 28 -12 48 1 27 3 29 6 10
3 -13 14 -35 24 -49z m279 59 c0 -5 -11 -10 -25 -10 -14 0 -25 5 -25 10 0 6
11 10 25 10 14 0 25 -4 25 -10z m-2453 -6 c-3 -3 -12 -4 -19 -1 -8 3 -5 6 6 6
11 1 17 -2 13 -5z m43 2 c0 -11 -19 -15 -25 -6 -3 5 1 10 9 10 9 0 16 -2 16
-4z m951 -43 c5 -5 8 -125 7 -271 l-3 -262 -52 61 -53 61 0 204 0 204 -127 1
c-71 1 -139 5 -153 10 -15 5 52 7 174 5 109 -3 202 -8 207 -13z m-1573 -65
c-5 -29 -5 -206 -2 -394 4 -194 3 -353 -2 -370 -6 -19 -11 114 -14 375 l-5
404 -24 4 c-30 4 -35 8 -26 22 3 6 23 11 44 11 l38 0 -9 -52z m227 -8 c4 -6
-30 -10 -94 -10 -61 0 -101 4 -101 10 0 6 38 10 94 10 53 0 98 -4 101 -10z
m553 -28 c3 -20 0 -22 -50 -20 -43 1 -46 2 -15 5 29 3 37 8 37 24 0 27 24 19
28 -9z m-950 -17 c6 -14 10 -25 8 -25 -2 0 -11 11 -20 25 -9 14 -13 25 -8 25
5 0 14 -11 20 -25z m62 -18 c0 -31 -3 -38 -10 -27 -5 8 -10 23 -10 33 0 11 -6
17 -16 15 -10 -2 -19 2 -21 8 -2 6 9 11 27 12 29 1 30 -1 30 -41z m70 -7 c0
-49 -1 -50 -30 -50 -29 0 -30 1 -30 50 0 49 1 50 30 50 29 0 30 -1 30 -50z
m106 34 c-14 -13 -16 -62 -16 -380 0 -236 -4 -364 -10 -364 -6 0 -10 133 -10
380 l0 380 26 0 c23 0 24 -1 10 -16z m604 -89 c0 -63 -4 -105 -10 -105 -6 0
-10 36 -10 89 0 49 -3 96 -6 105 -4 11 -1 16 10 16 14 0 16 -15 16 -105z m587
-92 c-2 -32 -3 -6 -3 57 0 63 1 89 3 58 2 -32 2 -84 0 -115z m203 25 l0 -142
-33 32 c-29 28 -39 32 -89 32 l-57 0 -3 110 -3 110 93 0 92 0 0 -142z m160
-100 c0 -154 -4 -228 -10 -218 -13 20 -13 450 0 450 6 0 10 -84 10 -232z
m-1665 114 c-4 -4 -13 2 -21 13 -13 17 -13 20 3 26 13 4 19 1 21 -13 2 -11 1
-23 -3 -26z m3545 8 c0 -17 -7 -20 -40 -20 -33 0 -40 3 -40 20 0 17 7 20 40
20 33 0 40 -3 40 -20z m365 0 c-3 -5 -28 -10 -55 -10 -27 0 -52 5 -55 10 -4 6
17 10 55 10 38 0 59 -4 55 -10z m-1795 -20 c0 -5 -11 -10 -25 -10 -14 0 -25 5
-25 10 0 6 11 10 25 10 14 0 25 -4 25 -10z m1719 -22 c1 19 6 22 41 22 36 0
40 -2 40 -25 0 -23 -3 -25 -50 -25 -48 0 -50 1 -49 28 l1 27 8 -25 c8 -24 8
-24 9 -2z m-3831 -5 c-10 -2 -26 -2 -35 0 -10 3 -2 5 17 5 19 0 27 -2 18 -5z
m3782 -11 c0 -17 -15 -19 -239 -21 -233 -2 -263 2 -246 29 4 6 97 10 246 10
225 0 239 -1 239 -18z m190 14 c0 -11 -19 -15 -25 -6 -3 5 1 10 9 10 9 0 16
-2 16 -4z m-1880 -86 c0 -64 -3 -80 -15 -80 -12 0 -15 16 -15 80 0 64 3 80 15
80 12 0 15 -16 15 -80z m-1620 0 l0 -50 -45 0 c-25 0 -45 5 -45 10 0 6 -13 10
-30 10 -28 0 -30 3 -30 35 l0 34 73 4 c39 1 73 4 75 5 1 1 2 -20 2 -48z m3440
-20 l0 -70 -45 0 -45 0 0 39 c0 21 3 53 6 70 6 28 10 31 45 31 l39 0 0 -70z
m-2567 5 c-62 -35 -63 -36 -170 -33 l-108 3 85 32 c70 26 100 31 170 32 l85 1
-62 -35z m-1458 -5 c9 -28 -2 -40 -35 -40 -29 0 -49 28 -35 50 12 19 63 12 70
-10z m1263 -47 c84 -4 112 -9 112 -20 0 -11 -78 -13 -440 -13 -381 0 -440 2
-440 15 0 12 27 15 158 18 356 6 503 7 610 0z m2762 -129 l0 -95 -50 62 c-38
47 -50 71 -50 96 l0 33 50 0 50 0 0 -96z m-4110 61 c0 -21 -5 -25 -29 -25 -33
0 -44 11 -35 34 4 10 18 16 35 16 24 0 29 -4 29 -25z m4330 -110 c0 -70 -4
-115 -10 -115 -6 0 -10 45 -10 115 0 70 4 115 10 115 6 0 10 -45 10 -115z
m-1175 -52 c-171 -7 -355 -7 -355 0 0 4 96 6 213 5 116 -1 181 -3 142 -5z
m795 -23 c0 -5 -4 -10 -10 -10 -5 0 -10 5 -10 10 0 6 5 10 10 10 6 0 10 -4 10
-10z m-565 -20 c28 -4 48 -9 45 -10 -3 -2 -140 -6 -305 -9 l-300 -6 -3 -92
c-4 -132 -22 -117 -22 17 l0 110 268 -1 c147 0 290 -4 317 -9z m-3182 -57 c-7
-2 -21 -2 -30 0 -10 3 -4 5 12 5 17 0 24 -2 18 -5z m3017 -3 c0 -5 -17 -10
-39 -10 -21 0 -66 -3 -100 -6 -52 -6 -61 -5 -61 10 0 14 14 16 100 16 60 0
100 -4 100 -10z"/>
<path d="M2699 1967 c-4 -374 -4 -378 17 -398 29 -27 44 -83 44 -162 0 -58 3
-69 26 -92 21 -21 25 -32 20 -58 -4 -23 -3 -28 4 -17 15 23 12 45 -12 75 -17
22 -22 42 -23 99 -1 48 -8 86 -23 119 -20 44 -22 71 -28 345 -10 483 -20 519
-25 89z"/>
<path d="M2240 1383 c-17 -6 -49 -43 -50 -57 0 -5 9 3 20 17 24 30 59 40 97
27 26 -9 27 -9 9 5 -20 15 -48 18 -76 8z"/>
<path d="M3710 2360 c0 -5 5 -10 10 -10 6 0 10 5 10 10 0 6 -4 10 -10 10 -5 0
-10 -4 -10 -10z"/>
<path d="M4571 1214 c0 -11 3 -14 6 -6 3 7 2 16 -1 19 -3 4 -6 -2 -5 -13z"/>
<path d="M4230 755 c-7 -9 -8 -15 -2 -15 5 0 12 7 16 15 3 8 4 15 2 15 -2 0
-9 -7 -16 -15z"/>
<path d="M1601 1737 c2 -1 13 -9 24 -17 19 -14 19 -14 6 3 -7 9 -18 17 -24 17
-6 0 -8 -1 -6 -3z"/>
<path d="M4840 1500 l0 -50 65 0 65 0 0 50 0 50 -65 0 -65 0 0 -50z"/>
<path d="M1859 1375 c-1 -3 -1 -14 -1 -25 0 -37 2 -40 27 -40 22 0 25 4 25 35
0 31 -3 35 -25 35 -14 0 -25 -2 -26 -5z m27 -52 c-11 -11 -17 4 -9 23 7 18 8
18 11 1 2 -10 1 -21 -2 -24z"/>
<path d="M418 913 c6 -2 18 -2 25 0 6 3 1 5 -13 5 -14 0 -19 -2 -12 -5z"/>
<path d="M2774 4731 c-45 -21 -94 -77 -93 -107 0 -15 2 -14 10 6 27 67 90 104
179 104 67 0 110 -16 161 -58 14 -11 8 -4 -14 16 -62 60 -162 76 -243 39z"/>
<path d="M1633 4465 c-42 -26 -75 -69 -87 -115 -4 -14 5 -4 19 22 61 114 199
139 291 53 45 -43 52 -44 24 -5 -51 71 -168 92 -247 45z"/>
<path d="M2994 4471 c-36 -22 -64 -58 -64 -81 0 -8 8 0 17 19 18 36 78 70 125
71 14 0 40 -12 57 -26 17 -14 31 -21 31 -15 0 6 9 11 20 11 30 0 90 -60 100
-100 l8 -35 1 32 c1 23 -8 43 -29 67 -29 33 -95 65 -107 52 -3 -3 -15 1 -27 9
-29 21 -95 19 -132 -4z"/>
<path d="M2735 4373 c-59 -31 -86 -66 -98 -128 -5 -23 -1 -19 14 15 34 76 77
108 159 121 l45 6 -45 1 c-25 1 -58 -6 -75 -15z"/>
<path d="M2924 4154 c-18 -14 -18 -15 4 -4 12 6 22 13 22 15 0 8 -5 6 -26 -11z"/>
<path d="M72 4151 c-8 -5 -12 -15 -10 -22 2 -10 9 -8 25 9 22 21 12 30 -15 13z"/>
<path d="M2732 4052 c-47 -47 -78 -112 -86 -177 l-6 -50 13 50 c22 80 43 121
88 169 50 56 44 61 -9 8z"/>
<path d="M991 4040 c0 -8 4 -24 9 -35 5 -13 9 -14 9 -5 0 8 -4 24 -9 35 -5 13
-9 14 -9 5z"/>
<path d="M1170 4021 c0 -5 9 -7 20 -4 11 3 20 7 20 9 0 2 -9 4 -20 4 -11 0
-20 -4 -20 -9z"/>
<path d="M4022 3960 c-12 -12 -22 -24 -22 -27 0 -4 11 4 25 17 23 22 29 30 22
30 -2 0 -13 -9 -25 -20z"/>
<path d="M1107 3943 c-3 -5 6 -24 20 -43 18 -25 23 -28 18 -12 -4 13 -2 22 5
22 6 0 8 5 5 10 -4 6 -14 9 -23 8 -9 -2 -16 3 -14 10 2 13 -4 16 -11 5z"/>
<path d="M145 3759 c-4 -6 -5 -12 -2 -15 2 -3 7 2 10 11 7 17 1 20 -8 4z"/>
<path d="M1139 3753 c-13 -16 -12 -17 4 -4 9 7 17 15 17 17 0 8 -8 3 -21 -13z"/>
<path d="M4572 3564 c-12 -13 -12 -20 1 -45 12 -27 16 -29 29 -16 8 8 21 17
29 20 8 2 2 3 -13 1 -28 -3 -32 2 -29 39 3 21 0 21 -17 1z"/>
<path d="M4660 3516 c0 -2 8 -10 18 -17 15 -13 16 -12 3 4 -13 16 -21 21 -21
13z"/>
<path d="M4839 3473 l-24 -28 30 25 c17 14 32 26 34 28 2 1 0 2 -6 2 -5 0 -20
-12 -34 -27z"/>
<path d="M4691 3445 c-1 -49 -14 -65 -55 -66 -19 -1 -24 -3 -13 -6 53 -14 98
39 77 90 -7 18 -9 16 -9 -18z"/>
<path d="M3264 3408 l-19 -23 23 19 c21 18 27 26 19 26 -2 0 -12 -10 -23 -22z"/>
<path d="M1463 3360 c-35 -21 -63 -67 -63 -102 1 -17 4 -14 14 15 17 46 32 64
67 83 36 18 76 18 114 -1 l30 -15 -24 20 c-30 26 -96 26 -138 0z"/>
<path d="M3243 3345 c0 -22 2 -30 4 -17 2 12 2 30 0 40 -3 9 -5 -1 -4 -23z"/>
<path d="M4483 3345 c-17 -19 -27 -35 -23 -35 5 0 12 5 15 10 11 17 23 1 18
-23 -7 -26 -33 -58 -43 -52 -4 2 1 -13 12 -34 14 -29 16 -44 9 -64 -11 -28
-45 -52 -61 -42 -6 4 -10 -24 -10 -74 l0 -81 -72 3 -73 3 -3 70 c-3 67 -2 70
28 95 22 19 28 29 19 34 -7 5 -10 4 -6 -2 4 -6 -5 -15 -19 -21 -32 -15 -45
-51 -45 -129 -1 -52 -4 -63 -17 -64 -10 0 -12 -3 -5 -5 7 -3 10 -18 6 -39 -4
-27 -1 -36 16 -47 19 -12 21 -22 21 -126 0 -111 0 -113 -25 -122 -31 -12 -34
-51 -5 -80 15 -15 20 -33 20 -69 0 -28 5 -53 10 -56 6 -4 10 16 10 54 0 49 4
62 19 71 33 17 68 11 101 -16 l31 -26 24 26 c29 31 34 90 10 100 -12 4 -15 29
-15 138 0 124 1 134 21 146 27 17 22 56 -8 60 -21 3 -23 9 -23 70 0 64 2 68
30 84 35 20 47 60 32 102 -9 24 -9 33 2 45 22 25 31 72 15 81 -11 7 -10 13 5
29 11 12 17 21 14 21 -2 0 -18 -16 -35 -35z m-123 -435 c-92 -21 -130 -27
-130 -18 0 16 44 27 105 26 53 0 56 -1 25 -8z m-83 -46 c-3 -3 -12 -4 -19 -1
-8 3 -5 6 6 6 11 1 17 -2 13 -5z m108 -49 c2 -11 6 -61 9 -110 l5 -90 -55 -3
-55 -3 2 125 c2 104 6 126 18 129 24 5 71 -25 76 -48z m-105 -92 c0 -80 -3
-113 -10 -103 -14 22 -8 220 6 220 2 0 4 -53 4 -117z m35 -137 c-44 -6 -86
-15 -94 -20 -9 -6 -12 -5 -9 5 6 19 42 27 118 27 l65 0 -80 -12z m100 -31 l40
-14 -61 6 c-34 3 -85 0 -114 -6 -73 -16 -89 2 -18 19 50 12 109 10 153 -5z"/>
<path d="M4585 3349 c-4 -6 -17 -14 -29 -19 -14 -6 -16 -9 -5 -9 9 -1 24 8 34
19 10 11 15 20 12 20 -3 0 -9 -5 -12 -11z"/>
<path d="M3301 3324 c0 -11 3 -14 6 -6 3 7 2 16 -1 19 -3 4 -6 -2 -5 -13z"/>
<path d="M913 3275 c0 -22 2 -30 4 -17 2 12 2 30 0 40 -3 9 -5 -1 -4 -23z"/>
<path d="M5 3290 c-3 -6 1 -7 9 -4 18 7 21 14 7 14 -6 0 -13 -4 -16 -10z"/>
<path d="M3322 3200 c0 -14 2 -19 5 -12 2 6 2 18 0 25 -3 6 -5 1 -5 -13z"/>
<path d="M4091 3087 c-1 -21 11 -40 44 -73 25 -24 45 -37 45 -30 0 8 -16 23
-35 34 -21 13 -37 31 -41 49 -10 46 -12 50 -13 20z"/>
<path d="M60 3046 c0 -11 14 -16 47 -18 43 -3 47 -5 55 -35 5 -18 7 -130 6
-250 l-3 -218 -35 -3 c-20 -2 -47 1 -60 7 -21 8 -17 10 28 10 l53 1 -3 58 -3
57 -52 3 -53 3 0 -53 c0 -29 -3 -63 -6 -75 -6 -20 -2 -22 70 -25 68 -3 76 -1
80 17 3 11 6 125 6 253 l0 233 -25 24 c-28 29 -105 36 -105 11z"/>
<path d="M40 2916 l0 -95 43 -4 42 -4 -42 -1 -43 -2 0 -70 0 -70 55 0 55 0 -2
168 -3 167 -52 3 -53 3 0 -95z"/>
<path d="M1017 2859 c7 -7 15 -10 18 -7 3 3 -2 9 -12 12 -14 6 -15 5 -6 -5z"/>
<path d="M1074 2820 c23 -28 27 -40 22 -69 -4 -25 -3 -31 4 -21 22 35 6 91
-32 111 -19 11 -19 8 6 -21z"/>
<path d="M1069 2693 c-13 -16 -12 -17 4 -4 9 7 17 15 17 17 0 8 -8 3 -21 -13z"/>
<path d="M4974 2689 c-4 -7 0 -9 14 -5 44 14 90 -28 105 -99 3 -12 5 -6 6 14
2 60 -98 132 -125 90z"/>
<path d="M4684 2446 c-19 -19 -34 -44 -34 -57 0 -19 4 -16 21 18 29 58 65 72
121 45 l43 -21 -28 24 c-41 36 -81 33 -123 -9z"/>
<path d="M4623 2295 c-44 -19 -69 -59 -55 -88 10 -21 11 -20 11 10 2 65 90 96
146 51 27 -21 27 -21 16 -1 -6 12 -25 26 -42 32 -39 13 -37 13 -76 -4z"/>
<path d="M4539 2113 c-13 -16 -12 -17 3 -5 10 8 27 11 40 7 18 -5 20 -4 8 4
-22 15 -36 13 -51 -6z"/>
<path d="M88 1951 c-10 -14 -18 -17 -28 -10 -22 13 -60 11 -60 -4 0 -9 13 -13
40 -13 29 1 44 7 55 24 9 12 14 22 11 22 -3 0 -11 -9 -18 -19z"/>
<path d="M3942 1930 c0 -14 2 -19 5 -12 2 6 2 18 0 25 -3 6 -5 1 -5 -13z"/>
<path d="M635 856 c-19 -15 -19 -16 9 -6 57 21 125 -11 139 -65 4 -12 5 -9 4
9 -4 55 -107 97 -152 62z"/>
<path d="M578 703 c29 -2 74 -2 100 0 26 2 2 3 -53 3 -55 0 -76 -1 -47 -3z"/>
<path d="M5100 669 c0 -5 5 -7 10 -4 6 3 10 8 10 11 0 2 -4 4 -10 4 -5 0 -10
-5 -10 -11z"/>
<path d="M5111 634 c0 -11 3 -14 6 -6 3 7 2 16 -1 19 -3 4 -6 -2 -5 -13z"/>
<path d="M5088 589 c-12 -13 -31 -19 -59 -19 -53 0 -101 -37 -123 -95 -10 -24
-33 -58 -52 -75 -29 -25 -43 -30 -88 -30 l-54 0 2 40 c0 22 -2 40 -5 40 -8 0
-19 -54 -19 -96 l0 -33 35 15 c19 7 47 14 62 14 35 1 106 63 126 110 7 19 26
49 41 67 23 27 31 30 64 26 47 -6 104 19 96 42 -4 8 -7 15 -8 14 0 0 -9 -9
-18 -20z"/>
<path d="M2590 520 c0 -25 -3 -62 -6 -82 -6 -36 -8 -38 -45 -38 -35 0 -38 2
-41 32 -2 22 -9 34 -20 36 -17 3 -18 -13 -18 -232 0 -229 1 -236 20 -236 19 0
20 7 20 195 l0 195 40 0 40 0 0 -196 0 -195 36 3 36 3 -2 214 c-1 206 4 241
31 241 4 0 22 -20 39 -44 l30 -45 -37 -4 -38 -4 38 -1 c52 -3 57 -22 57 -208
0 -96 4 -154 10 -154 6 0 10 62 10 165 l0 164 -44 63 c-25 35 -70 88 -100 118
l-56 54 0 -44z m47 -442 c-1 -40 -3 -10 -3 67 0 77 1 110 3 73 2 -37 2 -100 0
-140z"/>
<path d="M5068 533 c-24 -3 -38 -9 -38 -18 0 -25 -64 -88 -110 -108 -25 -11
-51 -28 -57 -38 -13 -17 -70 -42 -125 -53 -15 -4 -31 -14 -35 -24 -5 -9 -7
-79 -5 -154 3 -128 5 -138 23 -138 17 0 19 10 22 143 l3 142 2 -142 2 -143
120 0 119 0 3 153 3 152 35 0 35 0 6 -105 c4 -58 7 -126 8 -152 0 -27 6 -48
11 -48 6 0 10 61 10 164 l0 164 -32 8 -33 8 40 3 40 4 0 94 c0 52 -2 94 -5 93
-3 -1 -22 -3 -42 -5z"/>
<path d="M0 260 c0 -5 18 -10 41 -10 24 0 38 4 34 10 -3 6 -22 10 -41 10 -19
0 -34 -4 -34 -10z"/>
<path d="M3627 173 c-4 -3 -7 -44 -7 -90 l0 -83 30 0 30 0 0 80 c0 47 4 80 10
80 6 0 10 -33 10 -80 0 -73 2 -80 20 -80 19 0 20 7 20 90 l0 90 -53 0 c-30 0
-57 -3 -60 -7z"/>
<path d="M3920 111 l0 -39 45 -4 45 -3 0 42 0 43 -45 0 -45 0 0 -39z m70 -1
c0 -25 -4 -30 -25 -30 -21 0 -25 5 -25 30 0 25 4 30 25 30 21 0 25 -5 25 -30z"/>
<path d="M3380 65 l0 -65 75 0 75 0 0 65 0 65 -75 0 -75 0 0 -65z"/>
<path d="M0 10 c0 -6 67 -10 183 -10 121 0 177 4 167 10 -20 13 -350 13 -350
0z"/>
</g>
</svg>