<svg width="704" height="221" viewBox="0 0 704 221" fill="none" xmlns="http://www.w3.org/2000/svg">
<path d="M151.727 175.32C138.621 194.459 110.379 194.459 97.2727 175.32L52.0483 109.283C37.0504 87.3822 52.732 57.6366 79.2756 57.6366L169.724 57.6366C196.268 57.6366 211.95 87.3822 196.952 109.283L151.727 175.32Z" fill="#77E7D9"/>
<path d="M96.0289 43.6166C109.445 23.063 139.555 23.063 152.971 43.6166L197.995 112.591C212.757 135.206 196.53 165.176 169.524 165.176H79.4762C52.4696 165.176 36.2429 135.206 51.0051 112.591L96.0289 43.6166Z" fill="url(#paint0_linear_6_14)"/>
<ellipse cx="124.5" cy="109.749" rx="33.2243" ry="33.1457" fill="url(#paint1_linear_6_14)"/>
<path d="M245.584 124.768C242.128 124.768 239.141 124.192 236.624 123.04C234.149 121.845 232.037 120.267 230.288 118.304L233.744 115.296C235.323 116.96 237.051 118.24 238.928 119.136C240.805 120.032 243.067 120.48 245.712 120.48C248.272 120.48 250.363 120.032 251.984 119.136C253.648 118.197 254.48 116.747 254.48 114.784C254.48 113.931 254.309 113.227 253.968 112.672C253.669 112.075 253.243 111.605 252.688 111.264C252.133 110.923 251.515 110.667 250.832 110.496C250.149 110.283 249.424 110.112 248.656 109.984L243.472 109.216C242.32 109.045 241.061 108.811 239.696 108.512C238.373 108.213 237.157 107.744 236.048 107.104C234.939 106.421 234 105.525 233.232 104.416C232.507 103.307 232.144 101.856 232.144 100.064C232.144 98.4 232.464 96.9707 233.104 95.776C233.787 94.5387 234.725 93.5147 235.92 92.704C237.115 91.8507 238.523 91.232 240.144 90.848C241.765 90.4213 243.536 90.208 245.456 90.208C248.443 90.208 251.024 90.6773 253.2 91.616C255.419 92.5547 257.317 93.856 258.896 95.52L255.568 98.656C255.184 98.1867 254.693 97.7173 254.096 97.248C253.541 96.736 252.837 96.288 251.984 95.904C251.173 95.4773 250.213 95.136 249.104 94.88C247.995 94.624 246.715 94.496 245.264 94.496C242.661 94.496 240.656 94.944 239.248 95.84C237.883 96.736 237.2 98.0373 237.2 99.744C237.2 100.597 237.349 101.323 237.648 101.92C237.989 102.475 238.437 102.923 238.992 103.264C239.547 103.605 240.165 103.883 240.848 104.096C241.573 104.267 242.299 104.416 243.024 104.544L248.208 105.312C249.403 105.483 250.661 105.717 251.984 106.016C253.307 106.315 254.523 106.805 255.632 107.488C256.741 108.128 257.659 109.003 258.384 110.112C259.152 111.221 259.536 112.672 259.536 114.464C259.536 117.749 258.256 120.288 255.696 122.08C253.179 123.872 249.808 124.768 245.584 124.768ZM267.831 124V90.976H272.567V94.816H272.823C273.335 93.536 274.06 92.448 274.999 91.552C275.938 90.656 277.324 90.208 279.159 90.208C281.079 90.208 282.508 90.6987 283.447 91.68C284.386 92.6187 284.962 93.856 285.175 95.392H285.367C285.964 93.8987 286.818 92.6613 287.927 91.68C289.036 90.6987 290.572 90.208 292.535 90.208C295.223 90.208 297.015 91.1467 297.911 93.024C298.85 94.9013 299.319 97.5893 299.319 101.088V124H294.583V101.92C294.583 99.104 294.284 97.1627 293.687 96.096C293.132 94.9867 292.087 94.432 290.551 94.432C289.186 94.432 288.076 94.88 287.223 95.776C286.37 96.6293 285.943 97.952 285.943 99.744V124H281.207V101.92C281.207 99.104 280.908 97.1627 280.311 96.096C279.756 94.9867 278.732 94.432 277.239 94.432C275.874 94.432 274.743 94.88 273.847 95.776C272.994 96.6293 272.567 97.952 272.567 99.744V124H267.831ZM321.95 124.768C319.646 124.768 317.555 124.363 315.678 123.552C313.843 122.741 312.265 121.589 310.942 120.096C309.662 118.56 308.681 116.747 307.998 114.656C307.315 112.523 306.974 110.133 306.974 107.488C306.974 104.885 307.315 102.517 307.998 100.384C308.681 98.2507 309.662 96.4373 310.942 94.944C312.265 93.408 313.843 92.2347 315.678 91.424C317.555 90.6133 319.646 90.208 321.95 90.208C324.254 90.208 326.323 90.6133 328.158 91.424C330.035 92.2347 331.614 93.408 332.894 94.944C334.217 96.4373 335.219 98.2507 335.902 100.384C336.585 102.517 336.926 104.885 336.926 107.488C336.926 110.133 336.585 112.523 335.902 114.656C335.219 116.747 334.217 118.56 332.894 120.096C331.614 121.589 330.035 122.741 328.158 123.552C326.323 124.363 324.254 124.768 321.95 124.768ZM321.95 120.352C324.809 120.352 327.113 119.499 328.862 117.792C330.611 116.085 331.486 113.44 331.486 109.856V105.12C331.486 101.536 330.611 98.8907 328.862 97.184C327.113 95.4773 324.809 94.624 321.95 94.624C319.091 94.624 316.787 95.4773 315.038 97.184C313.289 98.8907 312.414 101.536 312.414 105.12V109.856C312.414 113.44 313.289 116.085 315.038 117.792C316.787 119.499 319.091 120.352 321.95 120.352ZM361.925 124C359.408 124 357.552 123.296 356.357 121.888C355.205 120.48 354.629 118.667 354.629 116.448V95.328H343.621V90.976H351.813C352.922 90.976 353.69 90.7627 354.117 90.336C354.586 89.8667 354.821 89.0773 354.821 87.968V79.328H359.749V90.976H374.789V95.328H359.749V119.648H374.789V124H361.925ZM411.18 124C409.175 124 407.745 123.488 406.892 122.464C406.039 121.44 405.505 120.16 405.292 118.624H404.972C404.247 120.544 403.073 122.059 401.452 123.168C399.873 124.235 397.74 124.768 395.052 124.768C391.596 124.768 388.844 123.872 386.796 122.08C384.748 120.288 383.724 117.835 383.724 114.72C383.724 111.648 384.833 109.28 387.052 107.616C389.313 105.952 392.94 105.12 397.932 105.12H404.972V101.856C404.972 99.424 404.289 97.6107 402.924 96.416C401.559 95.1787 399.617 94.56 397.1 94.56C394.881 94.56 393.068 95.008 391.66 95.904C390.252 96.7573 389.121 97.9307 388.268 99.424L384.812 96.864C385.239 96.0107 385.815 95.1787 386.54 94.368C387.265 93.5573 388.161 92.8533 389.228 92.256C390.295 91.616 391.511 91.1253 392.876 90.784C394.241 90.4 395.756 90.208 397.42 90.208C401.303 90.208 404.375 91.1893 406.636 93.152C408.94 95.1147 410.092 97.8453 410.092 101.344V119.52H414.7V124H411.18ZM395.948 120.48C397.271 120.48 398.465 120.331 399.532 120.032C400.641 119.691 401.601 119.264 402.412 118.752C403.223 118.197 403.841 117.557 404.268 116.832C404.737 116.064 404.972 115.253 404.972 114.4V108.96H397.932C394.86 108.96 392.62 109.387 391.212 110.24C389.804 111.093 389.1 112.331 389.1 113.952V115.296C389.1 117.003 389.697 118.304 390.892 119.2C392.129 120.053 393.815 120.48 395.948 120.48ZM475.834 124.768C472.378 124.768 469.391 124.192 466.874 123.04C464.399 121.845 462.287 120.267 460.538 118.304L463.994 115.296C465.573 116.96 467.301 118.24 469.178 119.136C471.055 120.032 473.317 120.48 475.962 120.48C478.522 120.48 480.613 120.032 482.234 119.136C483.898 118.197 484.73 116.747 484.73 114.784C484.73 113.931 484.559 113.227 484.218 112.672C483.919 112.075 483.493 111.605 482.938 111.264C482.383 110.923 481.765 110.667 481.082 110.496C480.399 110.283 479.674 110.112 478.906 109.984L473.722 109.216C472.57 109.045 471.311 108.811 469.946 108.512C468.623 108.213 467.407 107.744 466.298 107.104C465.189 106.421 464.25 105.525 463.482 104.416C462.757 103.307 462.394 101.856 462.394 100.064C462.394 98.4 462.714 96.9707 463.354 95.776C464.037 94.5387 464.975 93.5147 466.17 92.704C467.365 91.8507 468.773 91.232 470.394 90.848C472.015 90.4213 473.786 90.208 475.706 90.208C478.693 90.208 481.274 90.6773 483.45 91.616C485.669 92.5547 487.567 93.856 489.146 95.52L485.818 98.656C485.434 98.1867 484.943 97.7173 484.346 97.248C483.791 96.736 483.087 96.288 482.234 95.904C481.423 95.4773 480.463 95.136 479.354 94.88C478.245 94.624 476.965 94.496 475.514 94.496C472.911 94.496 470.906 94.944 469.498 95.84C468.133 96.736 467.45 98.0373 467.45 99.744C467.45 100.597 467.599 101.323 467.898 101.92C468.239 102.475 468.687 102.923 469.242 103.264C469.797 103.605 470.415 103.883 471.098 104.096C471.823 104.267 472.549 104.416 473.274 104.544L478.458 105.312C479.653 105.483 480.911 105.717 482.234 106.016C483.557 106.315 484.773 106.805 485.882 107.488C486.991 108.128 487.909 109.003 488.634 110.112C489.402 111.221 489.786 112.672 489.786 114.464C489.786 117.749 488.506 120.288 485.946 122.08C483.429 123.872 480.058 124.768 475.834 124.768ZM515.425 124C512.908 124 511.052 123.296 509.857 121.888C508.705 120.48 508.129 118.667 508.129 116.448V95.328H497.121V90.976H505.313C506.422 90.976 507.19 90.7627 507.617 90.336C508.086 89.8667 508.321 89.0773 508.321 87.968V79.328H513.249V90.976H528.289V95.328H513.249V119.648H528.289V124H515.425ZM564.68 124C562.675 124 561.245 123.488 560.392 122.464C559.539 121.44 559.005 120.16 558.792 118.624H558.472C557.747 120.544 556.573 122.059 554.952 123.168C553.373 124.235 551.24 124.768 548.552 124.768C545.096 124.768 542.344 123.872 540.296 122.08C538.248 120.288 537.224 117.835 537.224 114.72C537.224 111.648 538.333 109.28 540.552 107.616C542.813 105.952 546.44 105.12 551.432 105.12H558.472V101.856C558.472 99.424 557.789 97.6107 556.424 96.416C555.059 95.1787 553.117 94.56 550.6 94.56C548.381 94.56 546.568 95.008 545.16 95.904C543.752 96.7573 542.621 97.9307 541.768 99.424L538.312 96.864C538.739 96.0107 539.315 95.1787 540.04 94.368C540.765 93.5573 541.661 92.8533 542.728 92.256C543.795 91.616 545.011 91.1253 546.376 90.784C547.741 90.4 549.256 90.208 550.92 90.208C554.803 90.208 557.875 91.1893 560.136 93.152C562.44 95.1147 563.592 97.8453 563.592 101.344V119.52H568.2V124H564.68ZM549.448 120.48C550.771 120.48 551.965 120.331 553.032 120.032C554.141 119.691 555.101 119.264 555.912 118.752C556.723 118.197 557.341 117.557 557.768 116.832C558.237 116.064 558.472 115.253 558.472 114.4V108.96H551.432C548.36 108.96 546.12 109.387 544.712 110.24C543.304 111.093 542.6 112.331 542.6 113.952V115.296C542.6 117.003 543.197 118.304 544.392 119.2C545.629 120.053 547.315 120.48 549.448 120.48ZM591.727 124.768C589.338 124.768 587.204 124.363 585.327 123.552C583.492 122.699 581.935 121.525 580.655 120.032C579.375 118.539 578.394 116.725 577.711 114.592C577.071 112.459 576.751 110.091 576.751 107.488C576.751 104.885 577.092 102.517 577.775 100.384C578.458 98.2507 579.439 96.4373 580.719 94.944C581.999 93.408 583.556 92.2347 585.391 91.424C587.226 90.6133 589.316 90.208 591.663 90.208C594.863 90.208 597.466 90.912 599.471 92.32C601.476 93.728 602.948 95.5627 603.887 97.824L599.791 100C599.194 98.2933 598.191 96.9707 596.783 96.032C595.418 95.0933 593.711 94.624 591.663 94.624C590.17 94.624 588.826 94.88 587.631 95.392C586.479 95.8613 585.498 96.544 584.687 97.44C583.876 98.336 583.258 99.4027 582.831 100.64C582.447 101.877 582.255 103.221 582.255 104.672V110.304C582.255 111.755 582.447 113.099 582.831 114.336C583.258 115.573 583.876 116.64 584.687 117.536C585.498 118.432 586.5 119.136 587.695 119.648C588.89 120.117 590.255 120.352 591.791 120.352C594.01 120.352 595.844 119.84 597.295 118.816C598.746 117.792 599.898 116.384 600.751 114.592L604.399 117.088C603.418 119.307 601.882 121.141 599.791 122.592C597.743 124.043 595.055 124.768 591.727 124.768ZM616.47 76.64H621.59V106.528H621.846L627.606 101.088L638.614 90.976H644.886L631.19 103.904L646.486 124H640.15L627.286 106.848L621.59 112.032V124H616.47V76.64Z" fill="#DB4DFF"/>
<line x1="239" y1="142.5" x2="637" y2="142.5" stroke="#DB4DFF"/>
<defs>
<linearGradient id="paint0_linear_6_14" x1="124.5" y1="0" x2="124.5" y2="220.235" gradientUnits="userSpaceOnUse">
<stop stop-color="#FF8D8D"/>
<stop offset="1" stop-color="#9182F2"/>
</linearGradient>
<linearGradient id="paint1_linear_6_14" x1="118.658" y1="125.954" x2="146.733" y2="85.6702" gradientUnits="userSpaceOnUse">
<stop stop-color="#9E5BF2"/>
</linearGradient>
</defs>
</svg>
