<?xml version="1.0" standalone="no"?>
<!DOCTYPE svg PUBLIC "-//W3C//DTD SVG 20010904//EN"
 "http://www.w3.org/TR/2001/REC-SVG-20010904/DTD/svg10.dtd">
<svg version="1.0" xmlns="http://www.w3.org/2000/svg"
 width="512.000000pt" height="512.000000pt" viewBox="0 0 512.000000 512.000000"
 preserveAspectRatio="xMidYMid meet">
<metadata>
Created by potrace 1.16, written by Peter Selinger 2001-2019
</metadata>
<g transform="translate(0.000000,512.000000) scale(0.100000,-0.100000)"
fill="#bbf7d0" stroke="none">
<path d="M1642 3440 c-78 -83 -86 -89 -102 -75 -9 8 -21 15 -27 15 -6 0 -44
-39 -85 -87 -107 -127 -133 -163 -159 -216 -19 -38 -28 -47 -49 -47 -45 0
-126 -29 -154 -55 -16 -15 -54 -32 -93 -42 -36 -9 -76 -25 -88 -37 -23 -22
-52 -127 -40 -146 3 -5 26 -10 51 -10 36 0 44 -3 44 -18 0 -38 131 -1276 146
-1385 l7 -47 -39 16 c-22 9 -57 28 -79 43 -22 15 -45 30 -52 34 -8 5 -30 -17
-63 -62 -55 -76 -116 -135 -216 -208 -35 -26 -64 -54 -64 -63 0 -8 23 -38 50
-66 l50 -51 -77 -7 c-75 -7 -113 -19 -113 -35 0 -4 54 -11 120 -14 66 -3 129
-11 142 -18 23 -13 167 -22 286 -19 41 1 95 -5 126 -14 67 -20 324 -25 600
-13 197 9 236 16 236 42 0 18 71 20 135 4 22 -5 97 -14 167 -19 70 -5 146 -14
170 -21 31 -8 117 -10 313 -5 298 8 331 11 314 32 -8 10 -5 15 16 20 43 11
484 8 805 -5 386 -16 766 2 777 36 5 14 -19 22 -86 30 -56 5 -57 6 -85 57 -16
28 -39 84 -50 125 l-21 75 -77 50 c-77 51 -77 51 -78 96 -1 25 -11 72 -23 105
-18 48 -27 59 -42 57 -11 -1 -48 -5 -82 -9 -58 -5 -63 -8 -94 -49 -18 -24 -37
-44 -41 -44 -5 0 -6 28 -3 63 3 34 24 300 45 591 22 291 41 530 42 530 2 1 17
6 33 12 28 9 30 12 26 54 -5 62 -17 89 -45 100 -14 5 -105 15 -203 21 -191 13
-203 17 -203 68 0 13 -27 73 -61 133 l-61 108 -30 -17 c-59 -35 -114 -92 -163
-172 -27 -44 -54 -81 -58 -81 -4 0 -25 11 -45 25 -20 14 -42 25 -49 25 -7 0
-24 -18 -37 -39 -14 -22 -29 -42 -34 -45 -6 -3 -45 21 -88 55 l-79 60 -28 -33
c-15 -18 -43 -64 -62 -101 -23 -45 -54 -86 -92 -120 -86 -79 -93 -86 -93 -102
0 -10 7 -15 18 -13 13 2 16 -3 14 -26 -10 -82 -27 -88 -76 -29 l-27 32 12 113
c22 230 20 219 59 232 21 7 34 18 33 26 -3 34 -24 124 -28 129 -3 3 -36 7 -73
9 -83 5 -94 14 -59 50 l26 27 -60 50 c-82 69 -94 73 -122 47 -30 -28 -35 -27
-77 8 -19 17 -40 30 -47 30 -8 0 -23 16 -34 35 -22 37 -29 41 -45 26 -9 -9
-204 -55 -207 -49 -1 1 -14 28 -29 58 -51 102 -206 250 -261 250 -12 0 -54
-36 -105 -90z m177 -72 c51 -59 96 -110 100 -112 4 -3 16 1 27 8 13 10 15 18
9 28 -6 8 -2 5 8 -6 17 -18 17 -20 -10 -37 -15 -11 -32 -19 -36 -19 -5 0 -20
-14 -34 -31 -24 -28 -31 -30 -67 -25 -31 4 -79 -6 -191 -38 -143 -42 -151 -43
-166 -26 -10 12 -30 18 -59 18 -31 1 -40 -2 -30 -9 13 -8 11 -12 -10 -29 l-25
-19 -3 32 c-3 26 2 37 29 59 18 16 30 28 25 28 -8 0 22 38 86 108 22 24 43 41
46 37 3 -3 -25 -37 -63 -75 -38 -39 -66 -70 -62 -70 19 0 102 66 187 148 l92
88 14 -27 c7 -15 43 -57 79 -93 l65 -67 -60 -26 c-33 -14 -59 -28 -56 -30 2
-2 30 8 62 23 33 16 73 27 89 26 l30 -3 -40 33 c-62 50 -132 124 -150 157 -12
24 -13 36 -4 52 6 12 14 17 18 13 5 -5 49 -57 100 -116z m-4 87 c24 -19 62
-58 86 -87 l43 -53 -69 65 c-39 36 -83 76 -100 88 -16 12 -24 22 -16 22 8 0
33 -16 56 -35z m492 -299 c32 -63 39 -86 31 -94 -7 -7 -15 -12 -19 -12 -4 0
-32 33 -62 74 l-55 73 21 22 c12 11 26 21 32 21 5 -1 29 -38 52 -84z m-162 45
c-12 -10 -75 -32 -75 -26 0 2 12 11 28 19 30 17 62 22 47 7z m81 -53 l29 -33
-32 29 c-18 17 -33 31 -33 33 0 8 8 1 36 -29z m323 -36 c40 -35 43 -40 30 -60
-8 -12 -16 -22 -19 -22 -3 0 -25 25 -48 55 -24 30 -48 55 -54 55 -7 0 -6 5 2
15 14 17 27 12 89 -43z m-522 26 l21 -23 -64 -69 -63 -70 -63 60 c-34 32 -61
61 -61 64 1 6 171 58 194 59 8 1 25 -9 36 -21z m208 -60 c39 -39 50 -55 26
-34 -41 36 -47 38 -89 32 -65 -9 -81 8 -46 46 15 15 30 28 34 28 3 0 37 -32
75 -72z m-449 -38 l77 -65 -81 -37 c-44 -21 -101 -41 -126 -44 l-46 -7 55 88
c50 81 62 105 51 105 -3 0 -34 -45 -70 -100 -36 -55 -70 -100 -76 -100 -15 0
-13 5 33 77 24 38 54 87 67 111 13 23 27 41 32 40 4 -2 42 -32 84 -68z m-337
29 c24 -32 22 -50 -3 -30 -12 10 -21 8 -48 -12 -18 -14 -62 -42 -97 -62 -61
-36 -65 -37 -78 -20 -18 25 -2 41 87 90 39 21 76 45 82 52 17 20 32 16 57 -18z
m602 2 c-11 -15 -33 -36 -47 -46 -23 -15 -21 -11 12 29 42 50 68 63 35 17z
m-411 12 c0 -5 -9 -19 -20 -33 -15 -20 -21 -23 -31 -12 -22 21 -33 13 -13 -9
19 -22 19 -22 -3 -8 -30 18 -29 23 10 48 33 21 57 27 57 14z m776 -10 c21 -27
17 -33 -21 -33 l-35 0 16 25 c19 30 23 30 40 8z m-197 -94 c29 -39 51 -72 49
-74 -2 -2 -33 -7 -68 -11 -61 -6 -68 -4 -118 26 -28 18 -52 39 -52 46 0 10
112 82 130 84 3 0 29 -32 59 -71z m1441 -104 c-1 -5 -20 25 -43 67 l-43 77
-42 -44 c-23 -25 -50 -45 -60 -45 -11 1 2 19 42 56 l59 56 43 -79 c24 -43 44
-82 44 -88z m-1177 117 c21 -21 34 -41 31 -45 -16 -16 -58 -5 -99 27 l-44 33
32 11 c18 5 34 10 37 11 3 1 23 -16 43 -37z m-979 -26 c37 -64 29 -76 -54 -76
-45 0 -71 5 -79 14 -15 18 -49 27 -57 15 -3 -5 4 -9 15 -9 11 0 22 -4 25 -8 3
-5 -13 -6 -35 -3 -22 3 -38 10 -37 16 4 13 158 94 180 95 9 0 28 -20 42 -44z
m-324 -28 l52 -43 -33 -3 c-25 -3 -38 2 -50 17 -22 27 -37 26 -67 -1 l-24 -23
7 25 c7 25 43 70 55 70 4 0 31 -19 60 -42z m383 35 c8 -7 -11 -33 -24 -33 -5
0 -9 9 -9 20 0 19 20 27 33 13z m777 -5 c0 -6 7 -20 17 -30 15 -17 15 -18 -1
-18 -10 0 -28 8 -41 18 -21 17 -21 19 -7 30 22 14 32 15 32 0z m292 -1 c56 -1
52 -12 -8 -20 -31 -3 -47 0 -65 15 l-24 19 24 -7 c13 -3 46 -7 73 -7z m-236
-24 c-7 -7 -26 7 -26 19 0 6 6 6 15 -2 9 -7 13 -15 11 -17z m-349 -60 c-1 0
-29 2 -61 5 l-59 7 28 33 28 34 33 -39 c18 -21 31 -39 31 -40z m1561 13 c32
-46 43 -71 40 -92 -5 -50 -31 -40 -93 37 l-58 71 29 24 c16 13 31 23 34 23 3
0 24 -28 48 -63z m-1762 19 c-9 -14 -21 -25 -27 -25 -6 0 -1 14 11 31 26 36
40 31 16 -6z m691 9 c-3 -3 -12 -4 -19 -1 -8 3 -5 6 6 6 11 1 17 -2 13 -5z
m-40 -10 c-3 -3 -12 -4 -19 -1 -8 3 -5 6 6 6 11 1 17 -2 13 -5z m-1457 -14 c0
-5 -17 -10 -37 -10 -28 0 -34 3 -23 10 20 13 60 13 60 0z m1051 -7 c13 -16 12
-17 -3 -4 -10 7 -18 15 -18 17 0 8 8 3 21 -13z m349 7 c-14 -4 -34 -8 -45 -8
-16 0 -15 2 5 8 14 4 34 8 45 8 16 0 15 -2 -5 -8z m1077 -59 c35 -62 36 -63
12 -56 -29 9 -71 47 -90 81 -11 22 -11 27 1 35 26 16 41 5 77 -60z m-2567 34
c0 -13 75 -15 611 -15 390 0 635 4 680 11 111 17 90 5 -39 -22 -113 -23 -130
-24 -455 -21 -231 2 -337 -1 -332 -8 4 -6 127 -10 361 -10 343 0 354 -1 354
-19 0 -11 8 -22 18 -25 9 -3 -272 -4 -625 -3 -353 1 -644 5 -647 8 -3 2 -3 15
1 27 5 22 7 22 237 24 l231 2 -225 6 c-124 3 -226 7 -227 8 -11 9 1 34 20 42
32 13 37 12 37 -5z m1413 8 c-7 -2 -19 -2 -25 0 -7 3 -2 5 12 5 14 0 19 -2 13
-5z m1077 -73 c0 -11 -33 -14 -43 -4 -3 3 -3 12 0 20 4 10 10 11 24 3 10 -5
19 -14 19 -19z m-146 -20 l40 -30 -62 0 c-34 0 -62 2 -62 5 0 15 25 55 34 55
6 0 29 -14 50 -30z m189 -29 c9 -1 17 -6 17 -12 0 -15 -100 -2 -118 15 -11 11
-5 12 35 5 26 -4 56 -8 66 -8z m-2416 -78 l10 -58 2 58 1 57 33 -1 c17 0 26
-3 20 -6 -8 -3 -13 -23 -13 -48 0 -35 3 -43 18 -41 13 2 18 14 20 49 l3 47 59
0 c58 0 59 0 70 -34 19 -57 61 -62 91 -11 l21 35 138 0 138 0 6 -25 c13 -53
75 -56 101 -4 l16 29 139 0 140 0 0 -52 c0 -29 -7 -197 -15 -373 -8 -176 -19
-444 -25 -595 -16 -413 -30 -651 -40 -670 -13 -25 -61 -42 -106 -38 l-39 3 3
100 c2 57 0 95 -5 88 -5 -7 -10 102 -11 250 -3 484 -14 901 -24 883 -6 -10 -9
-275 -9 -660 1 -578 0 -645 -15 -657 -13 -10 -20 -10 -36 0 -19 12 -99 38
-186 61 -26 7 -40 15 -36 22 4 6 1 9 -7 6 -18 -6 -42 19 -33 33 4 7 3 9 -4 5
-10 -6 -58 47 -80 90 -6 12 -17 63 -24 115 -9 69 -14 86 -18 64 -6 -30 -18
106 -46 495 -7 113 -18 249 -24 304 -5 54 -10 107 -10 117 0 11 -7 19 -16 19
-14 0 -15 -12 -10 -92 4 -51 13 -239 22 -418 8 -179 21 -395 27 -481 l12 -157
-26 22 c-14 12 -56 30 -93 40 -37 10 -70 26 -75 35 -4 9 -11 43 -14 76 -4 33
-34 316 -67 630 -33 314 -62 599 -65 635 -3 36 -8 75 -11 88 -4 20 -1 22 39
22 l44 0 10 -57z m303 49 c0 -5 -6 -17 -14 -27 -16 -22 -41 -15 -49 14 -4 18
-1 21 29 21 19 0 34 -4 34 -8z m2348 -19 c13 -8 22 -16 20 -17 -1 -1 -42 0
-90 2 -74 3 -88 7 -88 21 0 15 9 16 68 13 37 -2 78 -11 90 -19z m305 8 c4 -4
-28 -16 -72 -26 -79 -18 -79 -18 -106 4 -16 12 -42 21 -61 21 -18 0 -36 5 -40
11 -7 12 265 2 279 -10z m-2265 -8 c-5 -26 -44 -29 -51 -4 -4 18 0 21 25 21
23 0 29 -4 26 -17z m1510 9 c23 -7 23 -7 -11 -40 -33 -32 -34 -32 -70 -17 -20
8 -37 18 -37 21 0 3 10 14 23 25 22 19 54 22 95 11z m-1151 -99 c-2 -21 -4 -6
-4 32 0 39 2 55 4 38 2 -18 2 -50 0 -70z m1336 82 c39 -5 50 -11 58 -31 12
-33 13 -32 -15 -27 -13 3 -27 0 -30 -6 -4 -6 -26 -11 -49 -11 l-42 0 34 22
c45 29 24 35 -30 9 -42 -21 -119 -29 -119 -13 0 29 83 73 125 66 11 -1 42 -6
68 -9z m667 -3 c0 -9 -219 -78 -375 -118 l-90 -23 -210 15 c-115 8 -225 17
-242 20 -52 8 -39 25 15 20 26 -3 140 -11 253 -17 l206 -11 94 26 c52 15 146
42 209 61 124 36 140 39 140 27z m-292 -30 c5 -16 -40 -16 -56 0 -7 7 -12 15
-12 19 0 11 63 -6 68 -19z m-83 -12 c22 -8 26 -13 16 -20 -17 -10 -43 -2 -35
11 3 5 1 9 -5 9 -6 0 -15 -9 -21 -20 -15 -28 -41 -24 -70 12 l-24 31 54 -6
c30 -3 68 -10 85 -17z m-1205 -17 c0 -14 -2 -15 -9 -4 -7 11 -27 7 -112 -19
-57 -17 -108 -35 -112 -39 -10 -10 -31 -210 -23 -218 3 -3 62 18 131 47 69 29
128 51 130 48 7 -7 -163 -85 -218 -100 -26 -6 -49 -9 -53 -5 -9 8 5 210 16
227 9 15 192 79 228 79 15 1 22 -5 22 -16z m498 -2 l82 -6 -36 -54 -37 -55
-23 30 c-13 16 -24 32 -24 36 0 3 -20 18 -45 32 -49 29 -58 42 -22 30 12 -4
59 -10 105 -13z m589 -17 c-10 -10 -57 9 -57 22 0 12 5 12 31 -1 17 -9 29 -19
26 -21z m-663 -144 c5 -17 0 -12 -17 15 -24 38 -28 40 -97 50 l-72 10 58 47
58 47 32 -72 c17 -40 34 -83 38 -97z m1166 150 c0 -5 -6 -10 -13 -10 -7 0 -86
-19 -175 -43 -106 -28 -162 -39 -162 -32 0 7 66 30 153 53 159 42 197 49 197
32z m-647 -72 c183 -12 187 -13 187 -34 0 -15 7 -24 23 -27 53 -10 -133 -5
-298 8 -99 8 -188 15 -197 15 -13 0 -18 8 -18 31 l0 32 58 -6 c31 -3 141 -12
245 -19z m-1376 -130 c-2 -24 -4 -7 -4 37 0 44 2 63 4 43 2 -21 2 -57 0 -80z
m1939 -35 c-5 -79 -13 -143 -18 -143 -4 0 -8 5 -8 11 0 6 -7 9 -15 5 -10 -3
-15 1 -16 12 0 12 -4 10 -11 -8 -11 -24 -12 -24 -18 15 l-6 40 -7 -45 c-3 -25
-9 -135 -12 -245 -9 -288 -30 -623 -39 -632 -5 -5 -6 19 -2 52 6 67 22 418 31
688 5 153 4 177 -9 177 -13 0 -16 -22 -18 -122 l-3 -122 -55 -21 c-40 -15 -56
-27 -58 -42 -2 -12 -10 -27 -18 -33 -22 -19 -17 -30 14 -30 22 0 27 5 29 26 2
41 19 50 31 16 10 -30 9 -31 -39 -51 -27 -12 -49 -26 -49 -32 0 -13 38 -5 98
21 l43 19 -16 37 c-23 55 -18 63 8 13 13 -24 22 -51 20 -60 -3 -9 -36 -29 -75
-45 -62 -25 -89 -46 -76 -59 2 -3 32 9 67 25 69 33 82 36 76 18 -4 -13 -12
-64 -19 -120 -2 -16 0 -28 5 -28 5 0 9 -27 9 -60 0 -47 -3 -58 -14 -54 -8 3
-12 12 -9 21 5 12 1 14 -18 8 -13 -5 -29 -8 -36 -8 -7 0 -15 -7 -17 -14 -3 -8
-11 -11 -16 -8 -7 4 -9 -7 -6 -31 2 -21 0 -45 -4 -53 -18 -38 -30 -91 -30
-139 0 -28 -4 -53 -8 -56 -4 -2 -7 67 -5 155 2 147 -3 188 -28 244 -4 11 -10
36 -13 55 -2 19 -6 37 -7 40 -2 3 -6 -76 -9 -175 l-6 -180 -2 185 c-1 102 3
217 9 255 22 152 22 155 10 155 -6 0 -16 -10 -21 -22 -7 -19 -9 -14 -8 22 0
25 3 35 5 22 4 -18 7 -21 18 -12 10 8 11 18 5 35 -5 13 -6 26 -2 30 4 4 3 6
-3 5 -25 -5 -35 2 -35 24 0 14 4 28 10 31 5 3 7 0 4 -8 -3 -8 -1 -18 5 -22 7
-3 8 0 5 9 -3 8 4 23 15 33 26 22 26 34 2 81 -14 27 -18 50 -14 83 l5 46 57 7
c31 4 64 9 74 10 10 1 23 9 28 17 5 8 9 10 9 4 0 -5 6 -3 13 6 7 8 27 21 45
27 26 9 32 8 32 -4 0 -17 -6 -19 65 16 33 16 60 28 60 27 1 -1 -3 -66 -9 -144z
m-1143 121 c55 -11 22 -82 -54 -116 -16 -7 -29 -16 -29 -19 0 -3 -12 -4 -26
-1 -22 4 -25 9 -20 31 3 14 9 48 12 74 l7 48 41 -6 c23 -3 53 -8 69 -11z m441
-60 c9 -8 16 -11 16 -6 0 5 24 9 53 7 28 -1 91 -2 140 -3 l87 -2 0 -44 0 -45
-31 9 c-17 5 -37 14 -44 20 -7 6 -88 13 -186 16 -96 3 -189 7 -208 10 -52 8
-18 24 52 24 44 0 57 3 57 15 0 20 44 20 64 -1z m-700 0 c11 -4 -2 -19 -47
-56 -34 -28 -69 -60 -78 -71 l-17 -21 -45 24 -46 24 72 36 c40 19 83 43 97 53
26 18 39 21 64 11z m431 -24 c17 -17 42 -33 55 -35 39 -8 47 -23 23 -47 l-22
-21 -6 26 c-7 26 -76 97 -94 97 -6 0 -12 -19 -14 -42 l-4 -43 -1 48 c-2 58 16
63 63 17z m-95 -60 c0 -54 -3 -70 -14 -70 -10 0 -16 13 -18 38 l-3 37 -18 -39
c-17 -38 -18 -38 -59 -32 -23 4 -45 9 -48 13 -7 7 112 113 121 107 4 -2 10 0
14 6 16 26 25 4 25 -60z m-286 21 c17 -19 16 -21 -36 -50 -60 -35 -131 -44
-107 -14 19 23 102 82 115 83 6 0 19 -9 28 -19z m710 -18 l108 -6 -88 -33 -89
-34 -33 33 -33 32 -30 -32 c-43 -49 -68 -41 -48 16 13 36 19 36 213 24z m-619
-23 c3 -5 1 -10 -4 -10 -6 0 -11 5 -11 10 0 6 2 10 4 10 3 0 8 -4 11 -10z
m-37 -23 c2 -11 -3 -17 -16 -17 -26 0 -34 11 -20 27 14 17 32 12 36 -10z m782
13 c0 -6 -16 -18 -35 -27 -31 -15 -35 -21 -35 -54 0 -34 -20 -69 -39 -69 -4 0
-15 18 -24 40 l-16 40 -52 -20 c-50 -20 -66 -21 -378 -16 -185 2 -294 1 -251
-4 41 -4 163 -8 270 -9 255 -2 295 -6 309 -37 l11 -24 -76 0 c-48 0 -86 6
-105 16 -42 21 -237 26 -261 7 -13 -12 -46 -13 -170 -9 -84 3 -171 8 -193 10
-22 2 -88 4 -147 5 l-108 1 0 46 0 46 558 -6 557 -6 90 39 c50 21 91 39 93 40
1 1 2 -4 2 -9z m-1433 -133 c-2 -23 -3 -1 -3 48 0 50 1 68 3 42 2 -26 2 -67 0
-90z m993 102 c0 -5 -7 -9 -15 -9 -15 0 -20 12 -9 23 8 8 24 -1 24 -14z m194
6 c4 -10 -1 -15 -14 -15 -13 0 -18 5 -14 15 4 8 10 15 14 15 4 0 10 -7 14 -15z
m-871 -2 c-13 -2 -35 -2 -50 0 -16 2 -5 4 22 4 28 0 40 -2 28 -4z m1077 -307
c-11 -97 -20 -186 -20 -198 0 -12 -3 -19 -6 -15 -3 3 1 84 11 179 18 187 23
223 31 215 3 -2 -4 -84 -16 -181z m-965 154 c16 -18 31 -20 152 -20 116 0 133
-2 133 -16 0 -13 -7 -15 -31 -10 -17 3 -83 6 -145 6 l-113 0 -16 30 c-18 34
-7 40 20 10z m360 -2 c-3 -13 -7 -45 -9 -72 -1 -28 -7 -51 -13 -53 -16 -6 -25
75 -13 113 13 39 44 49 35 12z m215 -78 c0 -55 -2 -59 -29 -68 -38 -13 -98
-72 -115 -113 l-14 -32 -17 26 c-9 15 -15 36 -12 48 4 15 2 18 -7 10 -9 -7
-17 -2 -30 21 -17 27 -17 32 -4 39 9 5 21 37 28 75 12 65 30 88 52 66 7 -7 18
-7 34 0 13 6 26 9 28 7 3 -3 2 -39 -3 -81 -6 -73 -6 -77 11 -62 10 10 22 46
30 91 12 74 12 75 30 53 13 -16 18 -39 18 -80z m-603 42 c21 -27 23 -27 175
-32 l153 -5 3 -39 c2 -21 10 -49 19 -62 l15 -24 -141 0 c-77 0 -141 -3 -141
-7 0 -5 62 -7 139 -5 l139 3 36 -58 c19 -32 39 -65 44 -73 8 -13 16 -10 50 17
l40 33 26 -31 c14 -17 29 -41 32 -55 3 -13 1 -196 -5 -406 -6 -211 -11 -395
-11 -411 0 -31 -1 -31 -123 4 -71 21 -78 20 -175 -15 -32 -12 -48 -13 -63 -6
-26 15 -15 30 22 30 16 0 29 5 29 10 0 6 -22 10 -50 10 -30 0 -50 -4 -50 -11
0 -8 -5 -8 -15 1 -8 7 -30 10 -49 8 -41 -5 -39 -13 -58 212 -10 117 -14 145
-20 115 -3 -22 -5 0 -3 50 3 64 1 81 -5 60 -7 -22 -8 -8 -5 50 3 57 1 73 -5
55 -7 -17 -8 0 -4 55 4 59 2 76 -6 65 -8 -11 -9 2 -5 50 5 50 4 61 -5 50 -8
-11 -10 0 -5 50 5 48 3 61 -5 50 -8 -12 -10 -7 -8 20 3 29 7 35 25 34 12 0 20
3 17 8 -7 10 -51 11 -58 0 -2 -4 4 -104 14 -222 37 -410 60 -713 56 -718 -3
-2 -29 9 -58 25 -62 33 -51 -9 -99 388 -52 441 -79 685 -79 727 l0 40 98 -7
c89 -6 99 -9 119 -33z m1460 -79 c-2 -21 -4 -4 -4 37 0 41 2 58 4 38 2 -21 2
-55 0 -75z m70 85 c-3 -8 -6 -5 -6 6 -1 11 2 17 5 13 3 -3 4 -12 1 -19z
m-1940 -95 c-2 -21 -4 -4 -4 37 0 41 2 58 4 38 2 -21 2 -55 0 -75z m1368 -125
c-14 -122 -28 -230 -31 -240 -2 -9 -16 -23 -29 -32 -14 -9 -25 -25 -25 -36 0
-26 8 -25 38 3 l25 22 -7 -75 c-4 -41 -18 -160 -31 -265 -22 -171 -26 -192
-47 -209 -13 -10 -22 -24 -20 -31 2 -12 -105 -91 -113 -83 -2 2 5 109 15 238
11 129 29 375 40 545 21 304 22 310 46 333 14 12 33 22 42 21 10 0 4 -7 -15
-16 -18 -9 -33 -20 -33 -25 0 -15 59 22 76 47 8 13 21 22 28 19 7 -3 23 -1 37
4 13 6 25 8 27 7 2 -2 -8 -104 -23 -227z m-192 215 c3 -5 -2 -84 -9 -178 -7
-93 -25 -345 -39 -560 -14 -214 -28 -404 -31 -422 -7 -38 -18 -48 -61 -56 -38
-7 -44 4 -37 70 3 26 9 236 13 466 l8 418 39 40 38 39 -19 75 c-18 72 -18 75
0 95 18 20 89 29 98 13z m-1092 -298 c-16 -249 -41 -569 -47 -574 -2 -2 -4 16
-4 40 0 42 48 783 52 804 8 44 8 -124 -1 -270z m1446 208 c-3 -10 -5 -4 -5 12
0 17 2 24 5 18 2 -7 2 -21 0 -30z m400 -35 c-3 -7 -5 -2 -5 12 0 14 2 19 5 13
2 -7 2 -19 0 -25z m-380 -15 c-3 -10 -5 -4 -5 12 0 17 2 24 5 18 2 -7 2 -21 0
-30z m-1560 -125 c-2 -18 -4 -4 -4 32 0 36 2 50 4 33 2 -18 2 -48 0 -65z
m-770 -15 c-3 -10 -5 -2 -5 17 0 19 2 27 5 18 2 -10 2 -26 0 -35z m2700 25
c-3 -8 -6 -5 -6 6 -1 11 2 17 5 13 3 -3 4 -12 1 -19z m-60 -95 c-2 -21 -4 -4
-4 37 0 41 2 58 4 38 2 -21 2 -55 0 -75z m-322 -73 c10 0 15 16 18 53 2 28 4
-16 4 -98 1 -142 0 -151 -18 -152 -10 -1 -20 4 -21 10 -1 7 -5 -13 -9 -43 -4
-37 -5 -22 -3 49 2 57 5 159 6 225 2 100 3 107 5 39 3 -63 7 -83 18 -83z m375
59 c0 -16 -4 -28 -9 -25 -8 5 -3 56 5 56 2 0 4 -14 4 -31z m-2683 -56 c-2 -16
-4 -5 -4 22 0 28 2 40 4 28 2 -13 2 -35 0 -50z m750 15 c-2 -13 -4 -5 -4 17
-1 22 1 32 4 23 2 -10 2 -28 0 -40z m1390 5 c-3 -10 -5 -2 -5 17 0 19 2 27 5
18 2 -10 2 -26 0 -35z m530 -105 c-2 -18 -4 -6 -4 27 0 33 2 48 4 33 2 -15 2
-42 0 -60z m-540 40 c-3 -8 -6 -5 -6 6 -1 11 2 17 5 13 3 -3 4 -12 1 -19z
m-1210 -25 c-3 -10 -5 -4 -5 12 0 17 2 24 5 18 2 -7 2 -21 0 -30z m-910 -80
c-2 -21 -4 -6 -4 32 0 39 2 55 4 38 2 -18 2 -50 0 -70z m2610 -20 c-2 -16 -4
-5 -4 22 0 28 2 40 4 28 2 -13 2 -35 0 -50z m40 -50 c-3 -10 -5 -4 -5 12 0 17
2 24 5 18 2 -7 2 -21 0 -30z m-2640 -80 c-2 -21 -4 -6 -4 32 0 39 2 55 4 38 2
-18 2 -50 0 -70z m2543 43 c0 -23 -5 -35 -17 -39 -10 -2 -27 -8 -38 -12 -11
-3 -7 1 8 10 17 10 30 28 34 46 7 39 13 37 13 -5z m80 -41 c5 3 10 -1 10 -9 0
-13 -4 -14 -25 -4 -14 6 -25 16 -25 21 0 5 7 4 15 -3 8 -6 19 -9 25 -5z m242
-33 c-6 -2 -29 -17 -52 -33 l-41 -30 -31 22 -30 22 73 27 c65 24 75 25 83 11
6 -9 5 -16 -2 -19z m-232 -26 c41 -15 86 -35 100 -46 l25 -19 -29 -30 c-15
-16 -37 -29 -46 -28 -10 1 -17 4 -14 8 2 4 -5 18 -15 30 -18 22 -20 22 -26 7
-4 -10 -11 -15 -17 -12 -5 3 5 16 21 29 l31 22 -67 -2 c-39 -1 -81 -8 -98 -17
-16 -9 -54 -23 -82 -31 -42 -13 -53 -13 -53 -3 0 22 164 130 185 122 6 -3 44
-16 85 -30z m-2593 -83 c-2 -21 -4 -4 -4 37 0 41 2 58 4 38 2 -21 2 -55 0 -75z
m2270 92 c0 -8 -4 -12 -9 -9 -5 3 -6 10 -3 15 9 13 12 11 12 -6z m-2657 -56
c30 -20 79 -48 108 -63 38 -19 51 -31 45 -39 -55 -73 -96 -114 -152 -154 -36
-26 -99 -77 -140 -112 l-75 -65 -83 90 c-45 49 -83 91 -83 94 0 3 26 23 57 45
65 46 187 166 223 218 13 19 29 32 35 29 5 -4 35 -23 65 -43z m3257 24 c13
-20 14 -28 5 -31 -7 -2 -27 -16 -44 -30 l-31 -26 -18 23 c-26 32 -24 37 18 66
47 31 49 31 70 -2z m-2900 -45 c-2 -13 -4 -3 -4 22 0 25 2 35 4 23 2 -13 2
-33 0 -45z m2303 42 c0 -5 -2 -10 -4 -10 -3 0 -8 5 -11 10 -3 6 -1 10 4 10 6
0 11 -4 11 -10z m9 -77 c1 -13 -3 -23 -9 -23 -5 0 -10 19 -9 43 0 32 2 37 9
22 5 -11 9 -30 9 -42z m523 -43 c7 0 25 12 40 27 l28 27 91 -89 c78 -77 149
-162 149 -178 0 -3 -11 -8 -25 -11 -29 -7 -64 9 -150 69 -117 81 -112 71 23
-44 46 -39 91 -71 101 -71 9 0 27 7 39 16 21 14 22 14 22 -10 0 -22 -4 -26
-30 -26 -17 0 -58 14 -91 31 -34 17 -67 28 -75 25 -13 -5 -97 112 -168 236
-33 58 -25 85 10 34 14 -20 30 -36 36 -36z m-269 30 c26 -17 63 -36 81 -44 35
-14 76 -63 76 -89 0 -14 -18 -15 -127 -12 -92 3 -115 2 -83 -5 25 -5 72 -9
105 -9 68 -1 64 -10 -15 -34 -31 -9 -65 -24 -75 -32 -19 -15 -18 -15 10 -9 17
4 59 18 95 31 102 38 104 39 97 20 -4 -10 -2 -17 5 -17 14 0 -106 -91 -149
-113 -45 -24 -73 -22 -73 4 0 36 -36 83 -94 123 l-55 38 20 31 c27 45 24 55
-9 24 -25 -24 -62 -37 -62 -21 0 3 14 17 30 31 23 19 30 33 30 59 0 30 2 33
18 25 12 -6 29 -4 57 10 54 25 63 24 118 -11z m-1386 -42 c-2 -13 -4 -3 -4 22
0 25 2 35 4 23 2 -13 2 -33 0 -45z m-410 -15 c-2 -16 -4 -5 -4 22 0 28 2 40 4
28 2 -13 2 -35 0 -50z m2099 -170 c19 -34 44 -69 57 -78 l21 -15 -27 0 c-23 0
-35 11 -71 68 -24 37 -62 105 -85 150 -34 68 -40 86 -30 98 10 13 20 0 57 -73
24 -48 59 -116 78 -150z m224 120 l0 -37 -16 24 c-10 14 -33 42 -53 64 l-36
38 53 -26 c49 -25 52 -29 52 -63z m-860 57 c20 -13 12 -18 -56 -35 -62 -16
-104 -50 -104 -86 0 -10 -4 -19 -10 -19 -13 0 -12 12 4 80 l12 55 50 6 c78 9
88 9 104 -1z m-2371 -19 c11 -20 13 -18 -66 -68 l-28 -18 28 33 c15 19 27 42
27 53 0 25 26 25 39 0z m232 -21 l24 -19 -33 -1 c-45 0 -151 -51 -186 -89 -36
-38 -42 -38 -50 -5 -6 22 -11 25 -36 20 -17 -3 -45 -8 -62 -11 -31 -5 -32 -5
-8 6 109 49 290 116 316 118 7 1 22 -8 35 -19z m846 -76 c-32 -22 -32 -22 -59
-2 -35 24 -35 27 -1 54 l27 21 32 -25 33 -26 -32 -22z m1333 56 c0 -5 -10 -10
-21 -10 -19 0 -17 -3 11 -22 39 -27 61 -58 44 -65 -6 -2 -30 -16 -54 -31 l-43
-27 -34 63 c-18 35 -31 67 -28 73 4 5 21 9 38 9 18 0 39 5 47 10 20 13 40 13
40 0z m-1083 -57 c-3 -10 -5 -2 -5 17 0 19 2 27 5 18 2 -10 2 -26 0 -35z
m-349 -16 c9 -11 -1 -25 -54 -70 -66 -57 -87 -63 -98 -24 -12 45 -8 49 38 45
l45 -3 11 43 c9 37 13 41 29 33 9 -6 23 -16 29 -24z m175 4 c-3 -12 -16 -21
-34 -23 -35 -5 -37 4 -6 25 30 22 46 21 40 -2z m1347 -42 c-56 -44 -121 -89
-127 -89 -14 0 44 53 78 70 19 10 41 26 49 35 7 8 16 13 19 9 3 -3 -5 -15 -19
-25z m-2550 -6 c0 -16 3 -46 6 -68 l7 -40 -51 55 c-27 30 -48 57 -46 59 3 3
57 17 77 20 4 1 7 -11 7 -26z m384 10 c28 -5 27 -6 -34 -39 -58 -31 -64 -32
-86 -18 -22 15 -23 17 -8 46 16 31 21 32 128 11z m855 -109 l24 -22 -71 -4
c-52 -2 -68 0 -61 9 15 17 29 73 19 73 -5 0 -15 -8 -22 -18 -7 -10 -26 -34
-41 -52 l-28 -33 -43 45 -43 46 54 36 55 36 67 -47 c36 -25 77 -56 90 -69z
m54 74 l41 -20 -23 -19 c-22 -18 -23 -18 -82 22 -32 22 -59 42 -59 46 0 11 82
-8 123 -29z m-1266 -40 c-2 -13 -4 -3 -4 22 0 25 2 35 4 23 2 -13 2 -33 0 -45z
m471 53 c10 -6 -9 -29 -70 -85 -70 -64 -87 -76 -108 -71 -14 4 -45 10 -70 13
l-45 7 25 16 c96 62 218 129 235 129 11 0 26 -4 33 -9z m2152 -23 c31 -52 27
-58 -40 -58 -33 0 -60 4 -60 10 0 6 5 10 12 10 6 0 9 3 6 6 -4 3 -23 1 -43 -5
-27 -7 -35 -7 -32 2 5 16 62 48 100 57 18 5 33 8 35 9 1 1 11 -14 22 -31z
m-2717 -24 c40 -51 40 -64 -1 -64 -15 0 -43 -5 -62 -10 -33 -10 -37 -8 -69 26
-32 35 -33 38 -16 50 10 8 33 17 52 20 18 3 36 10 39 15 10 17 21 9 57 -37z
m801 -16 c31 -35 56 -66 56 -70 0 -5 -43 -8 -96 -8 -84 0 -95 2 -90 16 3 9 6
25 6 37 0 29 36 87 54 87 8 0 39 -28 70 -62z m1613 55 c-4 -3 0 -14 9 -24 15
-17 15 -18 -9 -24 -31 -8 -67 2 -67 19 0 20 22 36 49 36 13 0 21 -3 18 -7z
m634 -15 c21 -18 61 -89 54 -96 -3 -4 -15 -1 -26 6 -13 9 -36 11 -64 7 -32 -5
-49 -3 -68 10 -15 9 -32 13 -39 9 -7 -4 -2 4 11 19 25 28 76 56 102 57 8 0 22
-6 30 -12z m-1468 -17 c7 -7 -3 -7 -29 0 -57 15 -64 20 -20 14 22 -2 44 -9 49
-14z m-1297 -6 c17 -13 17 -14 2 -15 -9 0 -20 -5 -23 -10 -4 -7 3 -8 22 -4 31
7 28 2 -29 -40 -33 -23 -46 -27 -95 -24 l-58 3 74 53 c41 28 78 52 81 52 3 0
15 -7 26 -15z m622 -22 c2 -18 0 -33 -3 -33 -16 0 -44 21 -59 45 l-17 26 38
-3 c35 -3 38 -6 41 -35z m489 -21 c-20 -20 -37 -34 -37 -30 0 13 62 79 68 73
3 -3 -11 -22 -31 -43z m451 32 c37 -9 71 -20 75 -24 5 -4 -6 -18 -25 -31 l-33
-23 24 27 c14 15 19 27 12 27 -7 0 -25 -14 -40 -31 -27 -29 -32 -31 -87 -27
-59 3 -59 3 -56 32 3 23 1 28 -12 23 -25 -10 -19 18 7 31 31 15 58 14 135 -4z
m1381 2 c9 -11 9 -16 0 -22 -7 -4 -9 -3 -5 4 3 6 -2 15 -11 21 -10 6 -13 11
-7 11 6 0 17 -6 23 -14z m-1697 -21 c-2 -11 -9 -31 -15 -45 -11 -22 -19 -25
-72 -26 l-60 -1 55 7 c30 4 44 8 30 9 -14 1 -33 5 -42 9 -16 6 -15 10 8 40 22
28 32 33 63 30 30 -2 35 -6 33 -23z m68 -1 c0 -8 -4 -12 -10 -9 -5 3 -10 10
-10 16 0 5 5 9 10 9 6 0 10 -7 10 -16z m-20 -15 c0 -6 -4 -7 -10 -4 -5 3 -7 0
-5 -7 3 -8 -1 -22 -9 -33 -13 -17 -15 -18 -16 -3 0 28 19 70 30 63 5 -3 10
-11 10 -16z m89 -5 c13 -30 7 -44 -20 -44 -20 0 -23 10 -13 48 8 29 18 28 33
-4z m641 11 c0 -16 -9 -19 -34 -9 -20 8 -11 24 15 24 10 0 19 -7 19 -15z
m-1653 -42 c-3 -10 -5 -2 -5 17 0 19 2 27 5 18 2 -10 2 -26 0 -35z"/>
<path d="M1608 3314 c-38 -20 -36 -28 2 -9 17 9 30 18 30 20 0 7 -1 6 -32 -11z"/>
<path d="M1455 2278 c-14 -29 -25 -59 -25 -65 0 -7 -8 -13 -18 -13 -25 0 -34
-11 -21 -26 7 -9 4 -24 -11 -54 -11 -22 -18 -45 -15 -49 3 -5 -1 -12 -7 -14
-10 -4 -10 -7 0 -15 9 -6 10 -16 3 -33 -7 -20 -2 -36 31 -92 l40 -67 81 0 c70
0 84 -3 105 -22 l25 -23 -6 23 c-5 20 -1 22 29 22 24 0 37 6 42 18 4 9 25 48
46 86 l39 68 -39 80 c-21 44 -44 84 -51 90 -10 8 -9 17 2 45 13 32 13 34 0 23
-13 -10 -15 -9 -15 8 0 12 -4 24 -10 27 -5 3 -10 1 -10 -6 0 -6 -11 0 -25 15
-22 23 -31 26 -95 26 l-71 0 -24 -52z m72 -4 c14 -22 15 -29 3 -47 -8 -14 -9
-22 -2 -25 6 -2 9 -9 6 -17 -3 -7 3 -16 15 -20 12 -3 21 -9 21 -13 0 -12 -130
-275 -134 -271 -12 13 -56 112 -45 102 21 -21 26 -16 39 40 22 93 39 125 62
119 16 -4 19 -1 16 19 -2 18 -10 25 -30 27 -33 4 -34 13 -8 70 22 49 33 52 57
16z m108 -25 c43 -60 41 -95 -3 -84 -34 8 -43 17 -81 83 l-30 52 38 0 c35 0
43 -5 76 -51z m-175 -101 c0 -18 -50 -78 -66 -78 -18 0 -18 3 6 50 13 26 27
40 40 40 11 0 20 -5 20 -12z m259 -34 c26 -44 26 -52 -1 -81 -26 -28 -44 -29
-58 -3 -8 16 -21 20 -59 20 l-48 0 21 44 c20 41 24 45 66 48 25 3 48 5 52 6 3
1 15 -14 27 -34z m-132 -130 c-33 -51 -65 -42 -52 14 5 25 9 27 40 24 l34 -4
-22 -34z m152 -15 c-18 -29 -34 -59 -35 -67 -3 -20 -7 -22 -45 -28 -21 -3 -41
0 -53 9 -17 13 -18 18 -7 46 8 17 17 28 23 25 5 -3 15 -1 21 5 19 15 121 68
126 65 2 -2 -11 -27 -30 -55z m-172 -59 l11 -30 -49 0 c-27 0 -49 2 -49 4 0 3
4 16 10 30 14 39 62 36 77 -4z"/>
<path d="M1395 1710 c4 -6 75 -10 181 -10 114 0 173 3 169 10 -4 6 -75 10
-181 10 -114 0 -173 -3 -169 -10z"/>
<path d="M1614 1358 l1 -277 -25 6 c-14 3 -22 3 -19 -1 3 -4 24 -8 45 -11 22
-2 33 -1 27 1 -10 4 -13 43 -14 142 -1 76 -5 200 -9 277 -6 116 -7 92 -6 -137z"/>
<path d="M3753 2129 c-2 -97 1 -139 8 -139 8 0 10 13 6 35 -3 19 -2 35 4 35
14 0 11 186 -3 198 -10 8 -13 -19 -15 -129z"/>
<path d="M3733 2070 c0 -36 2 -50 4 -32 2 17 2 47 0 65 -2 17 -4 3 -4 -33z"/>
<path d="M3753 1620 c0 -25 2 -35 4 -22 2 12 2 32 0 45 -2 12 -4 2 -4 -23z"/>
<path d="M3416 2253 c-6 -14 -5 -15 5 -6 7 7 10 15 7 18 -3 3 -9 -2 -12 -12z"/>
<path d="M2940 2045 c-15 -39 -24 -81 -16 -73 9 8 37 98 30 98 -2 0 -9 -11
-14 -25z"/>
<path d="M2582 1805 c-2 -44 32 -558 44 -663 8 -79 17 -55 19 54 1 61 -1 91
-7 82 -6 -8 -7 13 -4 57 5 50 3 66 -4 55 -8 -11 -9 9 -6 70 3 55 2 74 -3 55
-8 -27 -9 -24 -9 20 0 28 3 60 6 73 7 22 7 21 20 -8 8 -17 29 -46 47 -65 28
-30 39 -35 78 -35 27 0 47 -5 50 -12 3 -8 6 -5 6 5 1 13 6 17 20 12 10 -3 25
-3 34 1 23 9 69 91 62 112 -9 27 -73 97 -81 89 -4 -4 2 -17 12 -30 11 -12 28
-34 37 -49 17 -28 17 -28 -6 -28 -25 0 -47 33 -47 73 0 19 -2 20 -15 6 -14
-14 -14 -19 0 -53 15 -36 15 -37 -4 -31 -10 3 -22 1 -25 -4 -4 -6 -17 -4 -34
5 -38 20 -51 18 -64 -11 -13 -29 -1 -49 13 -22 15 26 65 23 73 -5 9 -36 8 -38
-24 -38 -40 0 -72 22 -104 70 l-26 40 61 0 61 0 -46 54 c-52 60 -55 69 -24 64
14 -2 24 -12 28 -27 5 -21 7 -22 19 -7 12 15 16 14 47 -5 l34 -21 32 33 c25
24 29 33 18 37 -8 2 -27 18 -41 34 -21 25 -36 32 -76 35 -48 5 -51 4 -74 -28
-13 -19 -27 -35 -31 -37 -12 -5 -10 -42 3 -42 5 0 3 -10 -5 -22 -9 -12 -16
-31 -16 -41 0 -10 -4 -16 -9 -13 -5 4 -12 0 -15 -6 -3 -7 -5 10 -6 37 0 61
-17 173 -18 130z m166 -20 c-9 -19 -16 -24 -32 -19 -27 8 -27 8 -20 28 4 10
17 16 35 16 27 0 28 -1 17 -25z m76 -15 c20 -34 14 -50 -16 -50 -12 0 -18 3
-15 7 4 3 0 17 -9 31 -17 26 -12 55 9 47 7 -3 21 -19 31 -35z m-128 -118 c-34
-7 -44 2 -34 28 l9 25 21 -25 c18 -22 18 -25 4 -28z m182 -80 c21 -7 22 -8 7
-29 -20 -28 -41 -29 -55 -3 -19 35 -2 46 48 32z"/>
<path d="M2952 1435 c0 -198 3 -332 8 -320 11 25 11 601 0 635 -4 14 -8 -128
-8 -315z"/>
<path d="M2730 1130 c20 -13 163 -13 155 0 -3 6 -43 10 -88 10 -57 0 -77 -3
-67 -10z"/>
<path d="M911 1246 c8 -7 99 -35 99 -30 0 8 -67 34 -86 34 -10 0 -15 -2 -13
-4z"/>
<path d="M1000 1160 c-36 -22 -118 -63 -182 -91 -65 -29 -118 -54 -118 -56 0
-10 74 -113 81 -113 15 0 10 11 -26 60 -19 26 -35 50 -35 53 0 2 21 10 46 16
25 7 78 28 117 48 73 36 197 111 197 119 0 9 -19 1 -80 -36z"/>
<path d="M832 1014 c-27 -22 -60 -64 -49 -64 1 0 23 20 47 45 50 51 51 57 2
19z"/>
<path d="M3842 1192 c-8 -5 0 -8 20 -8 18 0 49 -3 68 -7 l35 -7 -30 15 c-34
16 -74 19 -93 7z"/>
<path d="M1790 910 c0 -5 21 -10 48 -9 35 0 42 3 27 9 -28 12 -75 12 -75 0z"/>
<path d="M415 901 l-30 -7 38 -7 c39 -8 61 -2 52 14 -7 10 -15 10 -60 0z"/>
<path d="M3777 844 c-4 -4 -7 -11 -7 -16 0 -13 50 -6 53 7 2 12 -36 19 -46 9z"/>
<path d="M3217 823 c-17 -16 -3 -23 44 -23 45 0 50 2 39 15 -12 15 -71 21 -83
8z"/>
<path d="M1893 803 c-7 -2 -13 -11 -13 -19 0 -10 14 -14 55 -14 30 0 55 4 55
10 0 22 -63 37 -97 23z"/>
<path d="M3595 800 c3 -5 13 -10 21 -10 8 0 14 5 14 10 0 6 -9 10 -21 10 -11
0 -17 -4 -14 -10z"/>
<path d="M825 790 c-3 -5 1 -10 9 -10 9 0 16 5 16 10 0 6 -4 10 -9 10 -6 0
-13 -4 -16 -10z"/>
<path d="M3716 791 c-9 -15 23 -36 36 -23 5 5 7 15 4 21 -9 13 -33 14 -40 2z"/>
<path d="M4155 790 c3 -5 10 -10 16 -10 5 0 9 5 9 10 0 6 -7 10 -16 10 -8 0
-12 -4 -9 -10z"/>
<path d="M4380 790 c0 -5 7 -10 16 -10 8 0 12 5 9 10 -3 6 -10 10 -16 10 -5 0
-9 -4 -9 -10z"/>
<path d="M1005 780 c-4 -6 7 -10 24 -10 17 0 31 5 31 10 0 6 -11 10 -24 10
-14 0 -28 -4 -31 -10z"/>
<path d="M2185 780 c-3 -5 3 -10 14 -10 12 0 21 5 21 10 0 6 -6 10 -14 10 -8
0 -18 -4 -21 -10z"/>
<path d="M3848 783 c6 -2 18 -2 25 0 6 3 1 5 -13 5 -14 0 -19 -2 -12 -5z"/>
<path d="M2100 770 c0 -5 5 -10 10 -10 6 0 10 5 10 10 0 6 -4 10 -10 10 -5 0
-10 -4 -10 -10z"/>
<path d="M2780 760 c0 -5 9 -10 21 -10 11 0 17 5 14 10 -3 6 -13 10 -21 10 -8
0 -14 -4 -14 -10z"/>
<path d="M3990 760 c0 -5 12 -10 26 -10 14 0 23 4 19 10 -3 6 -15 10 -26 10
-10 0 -19 -4 -19 -10z"/>
<path d="M1970 756 c0 -9 30 -14 35 -6 4 6 -3 10 -14 10 -12 0 -21 -2 -21 -4z"/>
<path d="M1480 740 c20 -13 40 -13 40 0 0 6 -12 10 -27 10 -22 0 -25 -2 -13
-10z"/>
</g>
</svg>