<?xml version="1.0" standalone="no"?>
<!DOCTYPE svg PUBLIC "-//W3C//DTD SVG 20010904//EN"
 "http://www.w3.org/TR/2001/REC-SVG-20010904/DTD/svg10.dtd">
<svg version="1.0" xmlns="http://www.w3.org/2000/svg"
 width="512.000000pt" height="512.000000pt" viewBox="0 0 512.000000 512.000000"
 preserveAspectRatio="xMidYMid meet">
<metadata>
Created by potrace 1.16, written by Peter Selinger 2001-2019
</metadata>
<g transform="translate(0.000000,512.000000) scale(0.100000,-0.100000)"
fill="#bbf7d0" stroke="none">
<path d="M3452 4613 c-128 -154 -415 -504 -536 -653 -34 -41 -101 -120 -149
-177 -81 -95 -87 -105 -75 -126 16 -28 11 -54 -14 -81 -10 -11 -43 -49 -71
-84 l-52 -63 -49 7 c-38 5 -55 13 -75 37 -14 17 -43 51 -65 76 l-38 45 33 31
c19 16 47 40 63 53 l29 22 -20 23 c-210 234 -624 723 -788 932 -43 55 -80 102
-82 105 -2 2 -10 0 -18 -5 -7 -6 -89 -61 -182 -124 -92 -63 -170 -116 -172
-118 -2 -1 153 -159 345 -350 193 -192 412 -418 488 -503 76 -85 147 -164 157
-175 19 -19 19 -19 54 15 l36 35 45 -50 c63 -71 68 -82 45 -95 -26 -13 -96
-74 -194 -167 l-78 -73 21 -36 c22 -34 22 -36 4 -49 -27 -20 -34 -15 -63 41
-14 27 -27 51 -28 53 -1 2 -55 -30 -120 -72 -262 -167 -1016 -577 -1028 -558
-7 12 27 34 220 141 83 46 241 134 352 196 111 63 252 140 314 171 61 32 114
64 116 71 3 6 2 23 -1 36 -6 24 -7 24 -123 -43 -224 -129 -918 -501 -933 -501
-6 0 -10 -4 -10 -9 0 -17 81 -276 89 -284 5 -5 136 65 292 155 156 90 425 242
597 338 230 127 316 180 323 197 5 13 20 28 34 35 31 14 31 19 3 68 -13 21
-20 42 -16 46 6 6 168 43 193 44 15 0 -115 -127 -160 -157 -22 -15 -42 -28
-44 -30 -2 -1 2 -9 8 -17 23 -28 6 -48 -89 -101 -144 -81 -136 -73 -124 -134
13 -64 32 -36 -301 -451 -143 -179 -293 -367 -332 -418 l-72 -93 77 -94 c42
-51 81 -93 86 -91 9 2 162 224 432 626 68 102 135 199 149 215 l24 30 1 -30
c0 -16 -11 -75 -24 -130 -13 -55 -38 -167 -56 -250 -43 -204 -177 -748 -194
-790 -8 -19 -28 -41 -46 -50 -32 -16 -60 -66 -60 -105 0 -12 10 -25 25 -32 14
-6 25 -16 25 -23 0 -13 -65 -210 -75 -225 -5 -8 -12 -7 -23 4 -29 26 -100 25
-126 -1 -33 -34 -76 -87 -76 -93 0 -8 -70 -30 -97 -30 -11 0 -26 -7 -33 -15
-18 -22 -40 -18 -89 15 -51 35 -76 33 -136 -11 -22 -16 -55 -36 -72 -44 -30
-12 -33 -18 -33 -55 0 -22 6 -56 14 -75 l15 -34 -32 -5 c-18 -3 -97 -14 -177
-26 -80 -11 -161 -25 -180 -29 -41 -10 1256 -12 1340 -2 l55 6 -75 15 -75 14
75 8 c90 9 222 3 294 -14 l53 -12 -134 -44 c-74 -24 -132 -46 -130 -49 10 -9
143 17 241 47 95 29 105 30 293 30 l194 0 117 -39 c64 -21 135 -41 157 -44 35
-5 30 0 -49 39 -49 24 -104 46 -122 50 -57 11 -38 22 49 29 109 9 199 3 205
-12 2 -7 -5 -13 -15 -14 -13 -1 -11 -3 7 -9 14 -4 390 -8 835 -8 446 0 792 4
770 8 -38 8 -342 42 -487 56 -73 6 -84 15 -40 33 15 6 38 20 52 31 23 18 24
19 7 38 -17 19 -17 20 8 36 31 21 32 33 1 48 -23 10 -24 12 -10 33 8 12 11 25
7 28 -11 12 -58 8 -72 -5 -10 -11 -14 -10 -22 4 -5 10 -16 15 -24 12 -10 -4
-15 1 -15 16 0 50 -49 83 -64 44 -5 -13 -9 -14 -21 -4 -24 20 -45 4 -45 -35 0
-33 -2 -35 -25 -29 -30 7 -34 -13 -9 -52 23 -34 12 -40 -33 -18 -38 19 -40 24
-31 79 2 13 -5 23 -20 30 -16 7 -21 16 -18 29 10 38 -35 61 -62 34 -7 -7 -20
-13 -30 -13 -11 0 -16 -7 -15 -22 2 -17 -5 -24 -33 -33 -20 -7 -51 -26 -70
-42 -19 -17 -40 -28 -47 -25 -7 2 -34 80 -61 173 -27 93 -51 174 -53 180 -2 6
10 17 28 24 29 13 31 16 26 54 -5 39 -23 62 -70 91 -12 7 -52 156 -137 510
-66 275 -126 524 -134 554 -10 40 -11 50 -1 40 12 -14 421 -528 461 -580 l20
-27 76 62 c306 247 428 349 428 358 0 5 -155 168 -343 361 -189 194 -383 395
-430 447 -85 94 -86 95 -59 101 241 56 483 109 727 160 165 35 302 64 304 66
5 4 -56 220 -94 330 -2 6 -1379 -273 -1447 -293 -15 -4 -16 -9 -7 -26 6 -11 8
-22 5 -26 -15 -14 -137 78 -136 102 1 6 25 38 55 71 l54 60 71 -70 c69 -69 70
-69 89 -50 10 11 111 124 224 251 113 127 340 369 504 539 l300 308 -96 85
c-53 47 -124 112 -157 144 l-61 60 -131 -159z m132 15 c-11 -13 -72 -81 -135
-153 -214 -242 -245 -280 -454 -540 -260 -324 -231 -294 -255 -269 l-20 20
200 244 c111 135 256 313 323 395 66 83 163 201 215 264 l94 113 26 -26 26
-25 -20 -23z m-2059 -4 c15 -19 25 -37 24 -38 -2 -2 -28 -18 -56 -36 l-53 -32
-25 29 c-13 15 -25 31 -25 35 0 8 89 78 100 78 4 0 20 -16 35 -36z m205 -121
c430 -507 535 -628 639 -735 l55 -58 -34 -35 c-32 -33 -56 -42 -31 -11 15 18
6 36 -18 36 -28 0 -80 46 -186 165 -270 303 -460 555 -544 723 -20 40 -27 62
-19 62 7 0 69 -66 138 -147z m1919 128 c12 -8 10 -16 -14 -50 -26 -39 -29 -40
-46 -25 -17 16 -17 18 8 50 27 37 31 38 52 25z m64 -65 c15 -22 15 -25 -3 -41
-18 -16 -20 -16 -44 2 l-25 20 22 21 c27 28 31 27 50 -2z m-2078 -83 c33 -44
99 -136 147 -204 48 -68 156 -202 240 -298 84 -96 168 -192 187 -214 34 -39
34 -39 14 -59 -20 -19 -20 -19 -114 90 -453 526 -601 692 -551 617 20 -30 212
-258 371 -440 117 -134 315 -378 303 -374 -5 2 -47 49 -92 104 -46 55 -203
239 -349 408 -146 169 -281 325 -299 346 l-33 39 48 35 c26 20 52 35 58 33 5
-1 37 -39 70 -83z m-252 49 l27 -28 -35 -16 c-33 -15 -35 -14 -61 13 l-26 27
28 16 c38 20 36 20 67 -12z m2212 -12 c3 -5 -39 -58 -94 -117 -109 -119 -225
-234 -220 -218 2 6 64 90 138 187 115 152 136 176 152 168 10 -6 21 -14 24
-20z m113 -57 c5 1 25 -13 46 -31 l37 -33 -194 -197 c-234 -238 -323 -333
-560 -598 l-181 -204 -28 27 c-24 23 -26 29 -14 42 7 9 67 81 133 161 67 80
158 181 203 225 l83 80 -40 -60 c-50 -76 -55 -85 -49 -85 3 0 46 53 96 118 50
64 138 169 197 232 109 119 253 293 253 306 0 4 -8 15 -17 24 -17 16 -27 8
-176 -134 -88 -83 -213 -216 -280 -295 -111 -133 -348 -385 -297 -316 175 236
314 397 449 519 80 74 170 161 199 195 30 34 57 59 62 56 4 -3 6 5 3 17 -4 19
1 17 31 -14 20 -21 40 -37 44 -35z m92 22 c31 -32 33 -36 18 -51 -15 -15 -19
-14 -56 16 -35 28 -39 35 -29 51 17 27 28 24 67 -16z m-2505 15 c10 -17 69
-55 61 -39 -23 45 578 -595 779 -829 57 -67 85 -92 97 -88 22 5 23 -7 2 -25
-14 -11 -19 -9 -38 16 -64 89 -231 269 -560 603 -203 204 -363 372 -358 372 6
0 13 -4 17 -10z m2284 -167 c-14 -16 -62 -71 -109 -123 -46 -52 -169 -181
-274 -285 -105 -105 -238 -247 -296 -317 -58 -70 -109 -127 -114 -128 -5 0
-17 7 -26 15 -16 14 2 34 213 243 127 125 319 316 426 424 108 109 198 198
200 198 3 0 -6 -12 -20 -27z m-1283 -644 l34 -20 -28 -24 -27 -24 -27 27 c-26
24 -27 27 -11 44 20 22 19 22 59 -3z m103 -196 l63 -73 -26 -31 c-31 -37 -33
-77 -6 -112 39 -50 117 -42 140 14 21 50 -7 104 -63 121 -20 6 -20 6 5 7 61 2
103 -107 61 -158 -39 -47 -120 -42 -157 10 -22 33 -20 91 5 123 l20 26 -60 73
c-34 41 -61 78 -61 82 0 5 4 5 8 0 4 -6 36 -43 71 -82z m1781 32 c7 -30 11
-57 9 -58 -2 -2 -44 -11 -94 -20 -49 -8 -246 -45 -437 -81 -191 -36 -349 -66
-352 -66 -14 0 -4 29 12 34 9 3 143 31 297 61 154 31 285 61 290 66 13 13 -20
7 -320 -51 -866 -170 -782 -156 -804 -136 -28 25 -20 33 42 41 52 7 280 53
942 191 193 40 362 73 376 73 23 1 27 -4 39 -54z m20 -84 c0 -10 -169 -45
-177 -37 -8 8 10 13 97 30 41 8 76 15 78 15 1 1 2 -3 2 -8z m-211 -51 c-8 -4
-52 -15 -99 -24 -47 -10 -196 -42 -333 -72 -136 -30 -252 -54 -258 -54 -6 0
-9 8 -7 17 3 15 60 29 348 84 311 59 390 71 349 49z m-1609 -69 c0 -73 -23
-96 -116 -116 -41 -10 -77 -15 -80 -13 -6 7 173 178 186 178 5 0 10 -22 10
-49z m1830 41 c0 -4 -125 -36 -277 -70 -153 -34 -368 -82 -478 -107 -110 -25
-209 -44 -220 -42 -31 5 26 19 483 122 503 113 492 110 492 97z m-926 -40 c13
-21 -24 -33 -217 -71 -114 -23 -213 -44 -221 -47 -8 -3 -19 3 -25 14 -13 24
-31 19 234 67 110 20 202 39 204 41 7 7 19 5 25 -4z m-599 -61 c30 -13 46 -29
59 -60 11 -22 17 -43 15 -45 -2 -2 -23 -6 -46 -9 l-42 -5 -34 69 c-34 66 -34
69 -13 69 11 0 39 -9 61 -19z m585 1 c0 -28 -37 -41 -209 -75 -139 -28 -188
-34 -198 -25 -8 6 -12 16 -10 22 2 5 93 27 203 47 237 44 214 41 214 31z
m-465 -58 c30 -39 30 -46 -3 -37 -19 5 -52 48 -52 68 0 17 32 0 55 -31z m-176
-18 c-2 -2 -13 8 -23 22 l-19 27 24 -22 c12 -12 21 -24 18 -27z m620 17 c0 -5
-16 -21 -35 -37 -29 -24 -56 -32 -174 -54 -77 -14 -142 -23 -144 -21 -2 2 -6
13 -10 24 -6 19 5 23 172 57 211 43 192 40 191 31z m-663 -77 c42 -63 44 -68
23 -63 -61 15 -129 18 -183 8 -33 -6 -61 -9 -63 -7 -2 1 19 32 47 69 49 62 53
65 91 63 37 -2 42 -6 85 -70z m-545 -56 l26 -49 -181 -99 c-217 -119 -226
-124 -226 -119 0 3 60 37 133 77 72 40 134 74 136 76 2 1 -5 24 -15 50 -10 27
-14 49 -9 51 6 2 30 17 55 33 25 16 47 30 50 30 3 0 17 -22 31 -50z m-191 35
c0 -2 -10 -9 -22 -15 -22 -11 -22 -10 -4 4 21 17 26 19 26 11z m935 -17 c47
21 63 15 84 -33 11 -25 24 -45 28 -45 4 0 45 6 91 14 l83 13 36 -43 35 -44
-41 -55 c-23 -30 -44 -55 -48 -55 -3 0 -61 54 -129 121 -121 120 -122 121
-146 105 -23 -15 -26 -15 -49 10 l-24 26 28 -13 c21 -9 33 -10 52 -1z m696
-382 c76 -94 158 -193 181 -221 44 -51 -85 62 -260 230 -119 114 -296 315
-286 325 5 4 18 10 29 13 27 6 156 -127 336 -347z m-656 318 c9 -15 60 -68
113 -119 56 -55 91 -95 84 -99 -6 -3 -40 21 -75 54 -35 33 -66 57 -69 55 -2
-3 -19 11 -38 30 -33 34 -34 34 -62 17 -32 -19 -34 -25 -13 -42 8 -7 65 -83
127 -171 62 -87 114 -156 117 -154 5 5 -82 138 -175 267 -51 71 -59 88 -46 93
9 3 21 0 27 -8 5 -7 26 -33 46 -58 43 -53 131 -214 154 -284 9 -27 41 -97 71
-155 30 -58 46 -95 36 -84 -9 12 -87 113 -172 225 -85 112 -183 239 -219 282
-56 69 -62 80 -49 93 18 18 111 83 119 83 4 1 14 -11 24 -25z m-937 -53 c-46
-15 -640 -329 -788 -416 -97 -57 -193 -104 -203 -98 -4 3 20 20 55 38 170 89
195 113 41 40 -52 -26 -100 -44 -106 -42 -5 1 39 25 99 52 186 85 202 93 739
405 l150 87 13 -31 c11 -25 11 -31 0 -35z m729 50 c13 -8 -5 -9 -72 -5 -59 4
-115 1 -163 -9 -60 -12 -71 -12 -60 -1 30 31 249 42 295 15z m86 -194 c21 -27
36 -51 35 -52 -2 -1 -46 2 -98 7 -52 5 -139 7 -194 5 -117 -6 -118 -10 39 96
l110 75 35 -41 c19 -22 52 -63 73 -90z m887 -322 c74 -65 193 -176 264 -247
102 -102 126 -131 117 -141 -10 -9 -28 5 -84 66 -40 42 -77 77 -84 77 -7 0
-51 -25 -98 -55 -46 -30 -87 -55 -89 -55 -16 0 -556 606 -556 625 0 4 21 38
47 75 l48 69 150 -147 c82 -82 211 -202 285 -267z m-590 236 c32 -47 146 -187
252 -311 237 -276 268 -314 268 -327 0 -6 -18 -23 -40 -38 -22 -15 -40 -31
-40 -35 0 -4 36 -61 80 -126 72 -106 97 -156 71 -139 -6 3 -54 72 -108 153
-54 81 -126 184 -160 229 -88 116 -154 210 -188 268 -57 98 -223 436 -208 424
8 -7 41 -51 73 -98z m-796 54 c-20 -25 -39 -45 -42 -45 -5 0 8 17 52 68 35 40
28 23 -10 -23z m-144 -84 c-44 -69 -52 -74 -89 -59 l-30 13 56 79 55 79 20
-32 20 -31 -32 -49z m-410 84 c0 -3 -27 -18 -60 -35 -33 -17 -60 -28 -60 -25
0 2 26 18 58 34 64 34 62 33 62 26z m1534 -205 c90 -102 220 -246 289 -320
l126 -135 -25 -13 c-23 -12 -27 -10 -52 20 -15 18 -86 100 -157 183 -206 237
-304 356 -347 418 -69 101 -8 45 166 -153z m-514 150 c92 -15 109 -24 160 -88
78 -98 86 -113 99 -202 28 -193 172 -878 221 -1052 10 -35 30 -53 30 -28 0 6
-29 142 -64 303 -56 252 -107 504 -131 640 l-6 39 30 -18 c36 -22 38 -27 91
-259 94 -409 200 -836 215 -865 l16 -31 -29 15 c-68 35 -444 156 -485 156 -27
0 17 -21 148 -70 77 -29 163 -63 191 -75 l51 -23 56 -226 c32 -124 57 -230 57
-236 0 -7 -113 -10 -330 -10 l-330 0 0 195 c0 167 2 195 15 195 8 0 15 7 15
15 0 7 7 18 16 23 15 8 9 19 -40 80 -70 89 -130 126 -201 126 -27 0 -64 -8
-81 -17 -35 -18 -118 -102 -147 -147 -17 -27 -17 -30 -1 -54 9 -14 20 -26 25
-26 5 0 9 -88 9 -195 l0 -195 -261 0 -261 0 6 24 c25 99 86 389 83 392 -2 2
-27 -6 -55 -18 -28 -12 -54 -19 -57 -16 -15 15 20 46 158 140 135 92 337 243
337 253 0 8 -108 -30 -210 -75 -39 -17 -73 -30 -75 -28 -1 2 19 120 45 263 26
143 68 384 95 535 26 151 53 289 60 306 14 34 92 124 173 198 34 32 65 52 90
56 56 11 199 11 272 0z m-1150 -15 c0 -2 -18 -14 -40 -25 -22 -11 -40 -18 -40
-15 0 2 17 13 38 24 42 23 42 23 42 16z m650 2 c0 -2 -19 -21 -42 -42 -31 -29
-36 -31 -18 -10 33 39 60 63 60 52z m-740 -51 c0 -3 -57 -35 -127 -72 -71 -36
-171 -89 -223 -117 -52 -27 -90 -45 -85 -39 8 8 423 231 433 232 1 0 2 -2 2
-4z m558 -74 c-1 -4 -61 -91 -132 -192 -71 -102 -179 -256 -239 -342 -61 -87
-113 -158 -117 -158 -4 0 -15 11 -24 25 -17 26 -17 26 135 223 83 108 195 254
247 325 64 85 102 127 115 127 10 0 17 -4 15 -8z m-106 -59 c-86 -120 -506
-653 -510 -648 -3 2 7 19 21 37 14 18 76 96 137 173 61 77 168 213 237 303 69
89 127 162 130 162 2 0 -5 -12 -15 -27z m181 7 c6 -23 -12 -45 -44 -55 -30
-10 -31 -3 -3 38 28 42 39 46 47 17z m-1083 -115 c0 -2 -13 -11 -30 -20 -38
-19 -40 -11 -2 9 31 17 32 18 32 11z m1100 -12 c0 -10 -14 -101 -30 -203 -16
-102 -30 -188 -30 -192 0 -4 -23 -19 -50 -33 l-51 -26 6 23 c2 13 23 109 46
213 30 136 47 196 62 213 24 26 47 29 47 5z m1734 -270 c24 -27 53 -59 64 -73
l20 -26 -61 -52 -62 -52 -72 77 c-40 43 -73 81 -73 86 0 8 119 87 132 87 4 0
27 -21 52 -47z m-151 -133 c37 -43 67 -82 67 -87 0 -9 -79 -73 -91 -73 -16 0
-149 150 -149 168 0 7 91 71 100 71 3 0 35 -36 73 -79z m-1703 -325 c-66 -373
-57 -347 -135 -388 -36 -19 -65 -31 -65 -27 0 4 20 88 45 186 24 99 58 242 75
319 17 77 33 147 35 155 5 16 88 52 93 41 1 -4 -20 -133 -48 -286z m-492 224
c11 -17 9 -26 -15 -64 -15 -24 -30 -44 -33 -45 -3 0 -13 12 -22 27 -15 26 -15
28 16 65 17 21 33 38 36 38 3 0 11 -9 18 -21z m-79 -134 c0 -19 -20 -55 -32
-55 -3 0 -19 17 -36 39 l-31 38 28 35 27 35 22 -36 c12 -20 22 -45 22 -56z
m84 54 c-10 -17 -24 -36 -32 -42 -8 -7 -2 7 14 31 32 49 45 57 18 11z m-55
-79 c-7 -10 -14 -17 -17 -15 -4 4 18 35 25 35 2 0 -1 -9 -8 -20z m1118 -464
c30 -14 67 -43 92 -72 53 -62 45 -71 -11 -13 -102 107 -202 105 -299 -4 -21
-23 -38 -37 -38 -31 0 21 80 102 122 123 54 27 71 26 134 -3z m34 -371 l0
-225 -84 0 c-46 0 -91 3 -100 6 -14 5 -16 35 -16 225 l0 219 100 0 100 0 0
-225z m-253 -112 c-1 -60 -3 -11 -3 107 0 118 2 167 3 108 2 -60 2 -156 0
-215z m985 305 c22 -17 130 -390 117 -403 -25 -25 -44 16 -95 211 -30 109 -54
200 -54 202 -1 6 18 1 32 -10z m-675 -315 c-1 -54 -3 -10 -3 97 0 107 2 151 3
98 2 -54 2 -142 0 -195z m-841 260 c-2 -10 -21 -85 -41 -168 -21 -82 -41 -158
-46 -167 -12 -22 -99 -26 -99 -5 0 6 22 79 48 162 47 146 49 150 87 172 48 27
58 28 51 6z m-248 -266 c19 -21 21 -28 11 -55 -13 -37 -22 -39 -49 -12 -14 14
-28 18 -45 14 -39 -10 -45 23 -11 53 34 29 67 29 94 0z m2171 -72 c16 -8 36
-31 45 -52 45 -100 57 -115 71 -93 20 32 85 -11 85 -55 l0 -25 -102 0 c-57 0
-127 -3 -156 -6 -51 -7 -52 -6 -50 17 2 19 -1 24 -19 22 -18 -2 -22 3 -25 35
-2 26 -8 38 -20 40 -13 3 -18 -3 -18 -20 0 -13 -3 -33 -6 -45 -6 -22 -8 -21
-35 17 -16 21 -38 44 -50 50 -30 17 -69 22 -69 10 0 -5 11 -10 25 -10 45 0 26
-17 -26 -24 -39 -5 -55 -3 -68 9 -25 22 -77 19 -94 -5 -15 -22 -27 -17 -27 12
0 13 -6 18 -17 16 -10 -2 -22 5 -28 17 -11 21 -44 33 -54 18 -3 -4 -15 -13
-26 -19 -11 -6 -22 -22 -25 -35 -3 -13 -13 -36 -24 -52 -19 -27 -19 -27 -115
-23 -77 4 -98 8 -106 22 -5 9 -27 42 -47 73 l-37 56 434 3 434 2 30 30 c33 34
74 39 120 15z m-2605 -37 c8 -12 32 -27 52 -34 31 -11 40 -10 59 2 24 16 45
15 57 -1 4 -5 18 3 33 19 24 26 30 28 68 21 23 -4 55 -7 70 -6 16 0 40 -7 53
-15 l24 -16 -25 -20 c-24 -19 -34 -48 -16 -48 11 0 71 67 71 80 0 6 133 10
355 10 l354 0 -52 -74 -52 -74 -133 -7 c-73 -4 -164 -4 -203 -1 -58 6 -70 5
-75 -8 -8 -21 -104 -23 -104 -2 0 7 7 19 15 26 23 19 18 33 -10 26 -17 -4 -27
-2 -31 8 -4 12 -12 10 -41 -10 -41 -27 -53 -30 -53 -10 0 7 -8 16 -18 18 -30
8 -63 -10 -75 -42 -10 -27 -16 -30 -54 -30 -40 0 -44 2 -58 38 -8 20 -15 41
-14 46 1 12 -22 26 -44 26 -21 0 -57 -56 -57 -90 0 -20 -2 -22 -10 -10 -7 12
-12 12 -22 2 -19 -19 -24 -15 -37 28 -10 35 -16 40 -41 40 -16 0 -31 -4 -34
-8 -3 -5 -18 -7 -34 -4 -34 5 -49 -12 -32 -33 10 -12 9 -15 -8 -15 -23 0 -36
18 -46 65 -6 28 -3 34 35 58 22 15 44 27 48 27 5 0 16 9 26 20 23 26 40 25 59
-2z m1541 -8 c4 -7 -57 -10 -177 -10 -122 0 -178 4 -168 10 20 13 337 13 345
0z m29 -55 c5 -13 -21 -15 -199 -15 -187 0 -218 4 -198 23 3 4 93 7 199 7 161
0 193 -2 198 -15z m36 -60 c0 -13 -34 -15 -246 -15 -218 0 -245 2 -234 15 19
22 480 22 480 0z m577 0 c12 -8 43 -17 70 -19 26 -1 66 -11 88 -21 l40 -19
-45 -6 c-25 -3 -53 -3 -64 0 -10 4 -48 2 -85 -2 -36 -5 -76 -6 -89 -3 l-22 5
22 33 c37 52 50 57 85 32z m-529 -62 c3 -10 -60 -13 -292 -13 -260 0 -295 2
-290 15 5 13 44 15 292 13 217 -2 286 -6 290 -15z"/>
<path d="M2357 2538 c10 -31 4 -222 -8 -226 -6 -2 -5 -10 2 -18 9 -11 43 -14
145 -14 134 0 167 9 131 35 -14 10 -17 31 -17 113 0 67 4 103 12 108 23 15
-28 23 -150 23 l-123 1 8 -22z m223 -113 l0 -105 -95 0 -95 0 0 38 c0 20 3 67
7 105 l6 67 88 0 89 0 0 -105z"/>
<path d="M2410 2481 c0 -36 3 -40 28 -44 l27 -4 -27 -2 c-26 -1 -28 -4 -28
-46 0 -57 20 -59 21 -2 l1 42 11 -42 c8 -36 14 -43 33 -43 22 0 24 4 24 49 0
39 -4 51 -17 54 -16 4 -16 5 -1 6 11 1 18 12 21 34 l4 32 1 -32 c2 -30 5 -33
32 -33 28 0 30 3 30 35 l0 35 -80 0 -80 0 0 -39z"/>
<path d="M2510 2390 c0 -49 1 -50 30 -50 29 0 30 1 30 50 0 49 -1 50 -30 50
-29 0 -30 -1 -30 -50z"/>
<path d="M2392 2095 c-30 -14 -61 -25 -70 -25 -15 -1 -15 -2 1 -14 15 -11 17
-32 17 -154 0 -117 -3 -141 -15 -146 -13 -4 -14 -10 -5 -26 10 -19 21 -20 169
-20 144 0 159 2 176 20 16 18 16 20 1 35 -13 13 -16 40 -16 147 0 113 2 133
18 144 14 11 14 13 2 14 -8 0 -37 11 -64 25 -67 34 -142 34 -214 0z m196 -32
l27 -20 0 -144 1 -144 -3 143 -4 143 -34 15 c-19 8 -53 14 -75 14 -22 0 -56
-6 -75 -14 l-34 -15 -4 -143 -3 -143 1 145 0 144 35 24 c29 20 44 23 88 20 32
-3 64 -13 80 -25z m-18 -33 c0 -5 -18 -10 -40 -10 l-40 0 0 -51 0 -51 42 3
c26 2 43 -1 46 -9 3 -9 -18 -12 -77 -12 l-81 0 0 64 c0 42 4 66 13 69 23 10
137 7 137 -3z m-80 -215 l0 -55 -35 0 -35 0 0 55 0 55 35 0 35 0 0 -55z m90 0
c0 -52 -1 -55 -25 -55 -24 0 -25 3 -25 55 0 52 1 55 25 55 24 0 25 -3 25 -55z"/>
<path d="M2430 1975 c0 -41 2 -45 25 -45 23 0 25 4 25 45 0 41 -2 45 -25 45
-23 0 -25 -4 -25 -45z"/>
<path d="M2380 1065 l0 -75 85 0 85 0 0 75 0 75 -85 0 -85 0 0 -75z"/>
<path d="M2385 961 c-3 -9 -1 -17 4 -19 6 -2 11 -8 11 -13 0 -6 -4 -7 -10 -4
-6 4 -10 -32 -10 -99 l0 -106 90 0 90 0 0 119 c0 76 -4 122 -11 127 -6 3 -44
7 -84 9 -60 2 -75 -1 -80 -14z"/>
</g>
</svg>